<mxfile host="drawio.corp.amazon.com" modified="2024-04-09T14:21:06.281Z" agent="Mozilla/5.0 (Windows NT 10.0; Win64; x64) AppleWebKit/537.36 (KHTML, like Gecko) Chrome/123.0.0.0 Safari/537.36" etag="otXcQY4lwntE5-l5co60" version="21.7.4" type="device">
  <diagram id="FukMHeDB37K8RXDOaziL" name="Page-1">
    <mxGraphModel dx="1205" dy="707" grid="1" gridSize="10" guides="1" tooltips="1" connect="1" arrows="1" fold="1" page="1" pageScale="1" pageWidth="850" pageHeight="1100" math="0" shadow="0">
      <root>
        <mxCell id="0" />
        <mxCell id="1" style="" parent="0" />
        <mxCell id="iztJvjO-frAtPUYrZVRu-6" value="" style="fillColor=none;strokeColor=#5A6C86;dashed=1;verticalAlign=top;fontStyle=0;fontColor=#5A6C86;align=left;" parent="1" vertex="1">
          <mxGeometry x="1402" y="1290" width="120" height="150" as="geometry" />
        </mxCell>
        <mxCell id="c3dWK8VUlBXcVYDahUM2-81" value="" style="fillColor=none;strokeColor=#5A6C86;dashed=1;verticalAlign=top;fontStyle=0;fontColor=#5A6C86;align=left;" parent="1" vertex="1">
          <mxGeometry x="1450" y="1130" width="90" height="140" as="geometry" />
        </mxCell>
        <mxCell id="c83NvUh6HGZqpBSzk8XP-1" value=" Summarization" style="fillColor=none;strokeColor=#5A6C86;dashed=1;verticalAlign=top;fontStyle=0;fontColor=#5A6C86;align=left;" parent="1" vertex="1">
          <mxGeometry x="1330" y="1130" width="110" height="140" as="geometry" />
        </mxCell>
        <mxCell id="_xa58697VZdUaDmlX0MW-4" value=" Integration" style="fillColor=none;strokeColor=#5A6C86;dashed=1;verticalAlign=top;fontStyle=0;fontColor=#5A6C86;align=left;" parent="1" vertex="1">
          <mxGeometry x="1330" y="980" width="331.5" height="140" as="geometry" />
        </mxCell>
        <mxCell id="-kJO9xXdpxVRhP6Ypn-4-5" value="  Knowledge&#xa;  Sources" style="fillColor=none;strokeColor=#5A6C86;dashed=1;verticalAlign=top;fontStyle=0;fontColor=#5A6C86;align=left;" parent="1" vertex="1">
          <mxGeometry x="1560" y="1130" width="100" height="310" as="geometry" />
        </mxCell>
        <mxCell id="XjcV3IcUZlFmYVSwBR1V-1" value=" Meeting Assist" style="fillColor=none;strokeColor=#5A6C86;dashed=1;verticalAlign=top;fontStyle=0;fontColor=#5A6C86;align=left;" parent="1" vertex="1">
          <mxGeometry x="1010" y="1290" width="370" height="150" as="geometry" />
        </mxCell>
        <mxCell id="fZqA0a1MIIfmeRz-qSJw-61" value=" API" style="fillColor=none;strokeColor=#5A6C86;dashed=1;verticalAlign=top;fontStyle=0;fontColor=#5A6C86;align=left;" parent="1" vertex="1">
          <mxGeometry x="853" y="980" width="140" height="460" as="geometry" />
        </mxCell>
        <mxCell id="fZqA0a1MIIfmeRz-qSJw-2" value=" LMA Web App" style="fillColor=none;strokeColor=#5A6C86;dashed=1;verticalAlign=top;fontStyle=0;fontColor=#5A6C86;align=left;" parent="1" vertex="1">
          <mxGeometry x="680" y="980" width="154" height="460" as="geometry" />
        </mxCell>
        <mxCell id="fZqA0a1MIIfmeRz-qSJw-3" value=" Enrichment" style="fillColor=none;strokeColor=#5A6C86;dashed=1;verticalAlign=top;fontStyle=0;fontColor=#5A6C86;align=left;" parent="1" vertex="1">
          <mxGeometry x="1080" y="980" width="240" height="290" as="geometry" />
        </mxCell>
        <mxCell id="fZqA0a1MIIfmeRz-qSJw-85" style="edgeStyle=orthogonalEdgeStyle;rounded=0;orthogonalLoop=1;jettySize=auto;html=1;" parent="1" source="fZqA0a1MIIfmeRz-qSJw-44" target="fZqA0a1MIIfmeRz-qSJw-51" edge="1">
          <mxGeometry relative="1" as="geometry" />
        </mxCell>
        <mxCell id="fZqA0a1MIIfmeRz-qSJw-44" value="" style="outlineConnect=0;fontColor=#232F3E;gradientColor=#945DF2;gradientDirection=north;fillColor=#5A30B5;strokeColor=#ffffff;dashed=0;verticalLabelPosition=bottom;verticalAlign=top;align=center;html=1;fontSize=12;fontStyle=0;aspect=fixed;shape=mxgraph.aws4.resourceIcon;resIcon=mxgraph.aws4.cloudfront;" parent="1" vertex="1">
          <mxGeometry x="715" y="1013" width="80" height="80" as="geometry" />
        </mxCell>
        <mxCell id="fZqA0a1MIIfmeRz-qSJw-45" style="edgeStyle=orthogonalEdgeStyle;rounded=0;orthogonalLoop=1;jettySize=auto;html=1;entryX=0.49;entryY=1.067;entryDx=0;entryDy=0;entryPerimeter=0;" parent="1" source="fZqA0a1MIIfmeRz-qSJw-46" target="fZqA0a1MIIfmeRz-qSJw-48" edge="1">
          <mxGeometry relative="1" as="geometry" />
        </mxCell>
        <mxCell id="fZqA0a1MIIfmeRz-qSJw-46" value="Amazon S3&lt;br&gt;Webpage bucket" style="outlineConnect=0;fontColor=#232F3E;gradientColor=#60A337;gradientDirection=north;fillColor=#277116;strokeColor=#ffffff;dashed=0;verticalLabelPosition=bottom;verticalAlign=top;align=center;html=1;fontSize=12;fontStyle=0;aspect=fixed;shape=mxgraph.aws4.resourceIcon;resIcon=mxgraph.aws4.s3;" parent="1" vertex="1">
          <mxGeometry x="715" y="1160" width="80" height="80" as="geometry" />
        </mxCell>
        <mxCell id="fZqA0a1MIIfmeRz-qSJw-48" value="Amazon CloudFront&lt;br&gt;LCA Web Application" style="text;html=1;align=center;verticalAlign=middle;resizable=0;points=[];autosize=1;" parent="1" vertex="1">
          <mxGeometry x="691" y="1099" width="130" height="30" as="geometry" />
        </mxCell>
        <mxCell id="fZqA0a1MIIfmeRz-qSJw-51" value="" style="outlineConnect=0;fontColor=#232F3E;gradientColor=#F34482;gradientDirection=north;fillColor=#BC1356;strokeColor=#ffffff;dashed=0;verticalLabelPosition=bottom;verticalAlign=top;align=center;html=1;fontSize=12;fontStyle=0;aspect=fixed;shape=mxgraph.aws4.resourceIcon;resIcon=mxgraph.aws4.appsync;" parent="1" vertex="1">
          <mxGeometry x="881.5" y="1013" width="79" height="79" as="geometry" />
        </mxCell>
        <mxCell id="fZqA0a1MIIfmeRz-qSJw-55" value="Amazon Cognito &lt;br&gt;Auth" style="outlineConnect=0;fontColor=#232F3E;gradientColor=#F54749;gradientDirection=north;fillColor=#C7131F;strokeColor=#ffffff;dashed=0;verticalLabelPosition=bottom;verticalAlign=top;align=center;html=1;fontSize=12;fontStyle=0;aspect=fixed;shape=mxgraph.aws4.resourceIcon;resIcon=mxgraph.aws4.cognito;" parent="1" vertex="1">
          <mxGeometry x="716" y="1298.85" width="80" height="80" as="geometry" />
        </mxCell>
        <mxCell id="fZqA0a1MIIfmeRz-qSJw-58" style="edgeStyle=orthogonalEdgeStyle;rounded=0;orthogonalLoop=1;jettySize=auto;html=1;endArrow=classic;endFill=1;" parent="1" target="fZqA0a1MIIfmeRz-qSJw-64" edge="1">
          <mxGeometry relative="1" as="geometry">
            <Array as="points" />
            <mxPoint x="1410" y="902.8" as="sourcePoint" />
            <mxPoint x="1140" y="1054" as="targetPoint" />
          </mxGeometry>
        </mxCell>
        <mxCell id="_xa58697VZdUaDmlX0MW-46" value="Write transcript&lt;br&gt;segments to KDS" style="text;html=1;align=center;verticalAlign=middle;resizable=0;points=[];labelBackgroundColor=#ffffff;" parent="fZqA0a1MIIfmeRz-qSJw-58" vertex="1" connectable="0">
          <mxGeometry x="0.1335" relative="1" as="geometry">
            <mxPoint y="-5.8" as="offset" />
          </mxGeometry>
        </mxCell>
        <mxCell id="H0DclU-_FFojEJTY1uw1-4" value="Bedrock &lt;br&gt;Knowledge base" style="text;html=1;align=center;verticalAlign=middle;resizable=0;points=[];labelBackgroundColor=#ffffff;" parent="fZqA0a1MIIfmeRz-qSJw-58" vertex="1" connectable="0">
          <mxGeometry x="0.1335" relative="1" as="geometry">
            <mxPoint x="52" y="445" as="offset" />
          </mxGeometry>
        </mxCell>
        <mxCell id="-kJO9xXdpxVRhP6Ypn-4-1" value="" style="edgeStyle=orthogonalEdgeStyle;rounded=0;orthogonalLoop=1;jettySize=auto;html=1;startArrow=classic;startFill=1;" parent="1" source="-kJO9xXdpxVRhP6Ypn-4-6" edge="1">
          <mxGeometry relative="1" as="geometry">
            <mxPoint x="1400" y="1359" as="targetPoint" />
          </mxGeometry>
        </mxCell>
        <mxCell id="fZqA0a1MIIfmeRz-qSJw-67" value="Amazon Lex" style="outlineConnect=0;fontColor=#232F3E;gradientColor=#4AB29A;gradientDirection=north;fillColor=#116D5B;strokeColor=#ffffff;dashed=0;verticalLabelPosition=bottom;verticalAlign=top;align=center;html=1;fontSize=12;fontStyle=0;aspect=fixed;shape=mxgraph.aws4.resourceIcon;resIcon=mxgraph.aws4.lex;" parent="1" vertex="1">
          <mxGeometry x="1138" y="1319.85" width="78" height="78" as="geometry" />
        </mxCell>
        <mxCell id="fZqA0a1MIIfmeRz-qSJw-75" value="" style="group" parent="1" vertex="1" connectable="0">
          <mxGeometry x="858" y="1160" width="130" height="115.35000000000002" as="geometry" />
        </mxCell>
        <mxCell id="fZqA0a1MIIfmeRz-qSJw-76" value="" style="outlineConnect=0;fontColor=#232F3E;gradientColor=#4D72F3;gradientDirection=north;fillColor=#3334B9;strokeColor=#ffffff;dashed=0;verticalLabelPosition=bottom;verticalAlign=top;align=center;html=1;fontSize=12;fontStyle=0;aspect=fixed;shape=mxgraph.aws4.resourceIcon;resIcon=mxgraph.aws4.dynamodb;" parent="fZqA0a1MIIfmeRz-qSJw-75" vertex="1">
          <mxGeometry x="26" width="78" height="78" as="geometry" />
        </mxCell>
        <mxCell id="fZqA0a1MIIfmeRz-qSJw-77" value="Amazon DynamoDB&lt;br&gt;Database" style="text;html=1;align=center;verticalAlign=middle;resizable=0;points=[];autosize=1;" parent="fZqA0a1MIIfmeRz-qSJw-75" vertex="1">
          <mxGeometry y="85.35000000000002" width="130" height="30" as="geometry" />
        </mxCell>
        <mxCell id="fZqA0a1MIIfmeRz-qSJw-78" value="&lt;div align=&quot;center&quot;&gt;Stream / Export&lt;br&gt;eg search, data lake.&lt;/div&gt;" style="text;html=1;align=center;" parent="1" vertex="1">
          <mxGeometry x="834" y="1338.85" width="176" height="40" as="geometry" />
        </mxCell>
        <mxCell id="fZqA0a1MIIfmeRz-qSJw-79" value="" style="html=1;endArrow=none;elbow=vertical;startArrow=block;startFill=1;strokeColor=#545B64;rounded=0;exitX=0.5;exitY=0;exitDx=0;exitDy=0;" parent="1" target="fZqA0a1MIIfmeRz-qSJw-77" edge="1">
          <mxGeometry width="100" relative="1" as="geometry">
            <mxPoint x="923" y="1338.85" as="sourcePoint" />
            <mxPoint x="921" y="1302.35" as="targetPoint" />
          </mxGeometry>
        </mxCell>
        <mxCell id="-kJO9xXdpxVRhP6Ypn-4-19" style="edgeStyle=orthogonalEdgeStyle;rounded=0;orthogonalLoop=1;jettySize=auto;html=1;startArrow=classic;startFill=1;" parent="1" source="fZqA0a1MIIfmeRz-qSJw-84" target="fZqA0a1MIIfmeRz-qSJw-51" edge="1">
          <mxGeometry relative="1" as="geometry" />
        </mxCell>
        <mxCell id="fZqA0a1MIIfmeRz-qSJw-84" value="" style="outlineConnect=0;fontColor=#232F3E;gradientColor=#F78E04;gradientDirection=north;fillColor=#D05C17;strokeColor=#ffffff;dashed=0;verticalLabelPosition=bottom;verticalAlign=top;align=center;html=1;fontSize=12;fontStyle=0;aspect=fixed;shape=mxgraph.aws4.resourceIcon;resIcon=mxgraph.aws4.lambda;" parent="1" vertex="1">
          <mxGeometry x="1134" y="1014.0000000000001" width="78" height="78" as="geometry" />
        </mxCell>
        <mxCell id="fZqA0a1MIIfmeRz-qSJw-86" style="edgeStyle=orthogonalEdgeStyle;rounded=0;orthogonalLoop=1;jettySize=auto;html=1;" parent="1" target="fZqA0a1MIIfmeRz-qSJw-44" edge="1">
          <mxGeometry relative="1" as="geometry">
            <mxPoint x="540" y="920" as="sourcePoint" />
            <Array as="points">
              <mxPoint x="540" y="950" />
              <mxPoint x="755" y="950" />
            </Array>
          </mxGeometry>
        </mxCell>
        <mxCell id="-kJO9xXdpxVRhP6Ypn-4-3" style="edgeStyle=orthogonalEdgeStyle;rounded=0;orthogonalLoop=1;jettySize=auto;html=1;startArrow=classic;startFill=1;" parent="1" edge="1">
          <mxGeometry relative="1" as="geometry">
            <Array as="points">
              <mxPoint x="1174" y="1190" />
              <mxPoint x="1174" y="1190" />
            </Array>
            <mxPoint x="1174" y="1129" as="sourcePoint" />
            <mxPoint x="1174" y="1319.85" as="targetPoint" />
          </mxGeometry>
        </mxCell>
        <mxCell id="XjcV3IcUZlFmYVSwBR1V-7" value="AWS Lambda&lt;br&gt;Call Event Processor" style="text;html=1;align=center;verticalAlign=middle;resizable=0;points=[];autosize=1;fillColor=#ffffff;" parent="1" vertex="1">
          <mxGeometry x="1110" y="1099" width="130" height="30" as="geometry" />
        </mxCell>
        <mxCell id="XjcV3IcUZlFmYVSwBR1V-14" style="edgeStyle=orthogonalEdgeStyle;rounded=0;orthogonalLoop=1;jettySize=auto;html=1;" parent="1" source="XjcV3IcUZlFmYVSwBR1V-13" target="fZqA0a1MIIfmeRz-qSJw-76" edge="1">
          <mxGeometry relative="1" as="geometry" />
        </mxCell>
        <mxCell id="XjcV3IcUZlFmYVSwBR1V-13" value="&lt;span style=&quot;color: rgb(35 , 47 , 62)&quot;&gt;AWS AppSync&lt;/span&gt;&lt;br style=&quot;color: rgb(35 , 47 , 62)&quot;&gt;&lt;span style=&quot;color: rgb(35 , 47 , 62)&quot;&gt;API&lt;/span&gt;" style="text;html=1;align=center;verticalAlign=middle;resizable=0;points=[];autosize=1;" parent="1" vertex="1">
          <mxGeometry x="878" y="1099.67" width="90" height="30" as="geometry" />
        </mxCell>
        <mxCell id="-kJO9xXdpxVRhP6Ypn-4-12" style="edgeStyle=orthogonalEdgeStyle;rounded=0;orthogonalLoop=1;jettySize=auto;html=1;startArrow=classic;startFill=1;exitX=0.983;exitY=0.467;exitDx=0;exitDy=0;exitPerimeter=0;" parent="1" target="-kJO9xXdpxVRhP6Ypn-4-5" edge="1" source="iztJvjO-frAtPUYrZVRu-6">
          <mxGeometry relative="1" as="geometry">
            <Array as="points">
              <mxPoint x="1540" y="1360" />
              <mxPoint x="1540" y="1280" />
            </Array>
            <mxPoint x="1530" y="1360" as="sourcePoint" />
          </mxGeometry>
        </mxCell>
        <mxCell id="XjcV3IcUZlFmYVSwBR1V-28" value="Documents&lt;br&gt;FAQs&lt;br&gt;etc." style="outlineConnect=0;fontColor=#232F3E;gradientColor=#945DF2;gradientDirection=north;fillColor=#5A30B5;strokeColor=#ffffff;dashed=0;verticalLabelPosition=bottom;verticalAlign=top;align=center;html=1;fontSize=12;fontStyle=0;aspect=fixed;shape=mxgraph.aws4.resourceIcon;resIcon=mxgraph.aws4.cloudfront;" parent="1" vertex="1">
          <mxGeometry x="1567" y="1184.75" width="78" height="78" as="geometry" />
        </mxCell>
        <mxCell id="c3dWK8VUlBXcVYDahUM2-86" style="edgeStyle=orthogonalEdgeStyle;rounded=0;orthogonalLoop=1;jettySize=auto;html=1;startArrow=none;startFill=0;endArrow=classic;endFill=1;" parent="1" edge="1">
          <mxGeometry relative="1" as="geometry">
            <mxPoint x="1491" y="1256" as="targetPoint" />
            <Array as="points">
              <mxPoint x="1290" y="1280" />
              <mxPoint x="1491" y="1280" />
            </Array>
            <mxPoint x="1290" y="1335.85" as="sourcePoint" />
          </mxGeometry>
        </mxCell>
        <mxCell id="-kJO9xXdpxVRhP6Ypn-4-6" value="AWS Lambdas&lt;br&gt;(QnABot)" style="outlineConnect=0;fontColor=#232F3E;gradientColor=#F78E04;gradientDirection=north;fillColor=#D05C17;strokeColor=#ffffff;dashed=0;verticalLabelPosition=bottom;verticalAlign=top;align=center;html=1;fontSize=12;fontStyle=0;aspect=fixed;shape=mxgraph.aws4.resourceIcon;resIcon=mxgraph.aws4.lambda;" parent="1" vertex="1">
          <mxGeometry x="1251" y="1319.85" width="78" height="78" as="geometry" />
        </mxCell>
        <mxCell id="-kJO9xXdpxVRhP6Ypn-4-7" value="" style="edgeStyle=orthogonalEdgeStyle;rounded=0;orthogonalLoop=1;jettySize=auto;html=1;startArrow=classic;startFill=1;" parent="1" source="fZqA0a1MIIfmeRz-qSJw-67" target="-kJO9xXdpxVRhP6Ypn-4-6" edge="1">
          <mxGeometry relative="1" as="geometry">
            <mxPoint x="1138" y="1369.7142857142858" as="sourcePoint" />
            <mxPoint x="1360" y="1369.7142857142858" as="targetPoint" />
          </mxGeometry>
        </mxCell>
        <mxCell id="-kJO9xXdpxVRhP6Ypn-4-11" value="Other&#xa;Data Sources" style="shape=image;verticalLabelPosition=bottom;labelBackgroundColor=#ffffff;verticalAlign=top;aspect=fixed;imageAspect=0;image=data:image/png,iVBORw0KGgoAAAANSUhEUgAAAFAAAABQCAYAAACOEfKtAAAAAXNSR0IArs4c6QAAH61JREFUeAHdmwnUXlV1hs8fQpiSAAkEiCTMyNSAQCKTFRFRFG1lksIqgmillihWra3aYq0ua11Vql2KiIqIVZDRihZBRSsOQZQ5AQELImWWQCAkQNL3effe997vT2hXV+my9fz57jlnn/2+ezjn3nPv/b6MzTn13StblrGxsdb0oVbLNYOWZ40KZagbkpCFXG3+euUO04tqHJvBgH7ZFXiAZ5x+8LpX44kpP63DYWDf3QB1nLYVymVekLTR4Q2y3bJZncJPXLky8tcFK82VK1fomFHRpyfSoW7AAqthj1NbxwB6UbqkCNRzha59ldqo/Z4XBtJqPYlhsC8wDdWKSPrlJ9go4CMexoaxlAYGrJE2ghwJRsBPEC/ao/gJZYzanxUkL2CdfyADXVVoJMb6hU89ZFWKm76H0xGsMBaOq71iZVsBTymmA0N8caI0IgeniV8hjijU+ogcRrPWUGngDB9K4S0LURxZOAyjRyMqxpBNpFEFgWdHTtSEoj+ccdo4Sc3HhBzcjjqMFWvixc0fM0mSmG8glLIbZHBakxGP2z4ycAWSWrTRVZtMZQn7HXkbmxBnT7DCb4Dx5WvFEmGEXVhbWyE9Vl/5gnvhvwaUwHSMTjlaThpkhxOQAeFn8EVAyU1EHhjBo6xSDtp7q2XYASkl+Su5AjaV7I2pa037EWoVDAPlM7GSxC6daSNdCvsBDx1IVTr8sC2QuUiUeBysGgkBFjJVvgaOTZiQAnvhDFtJhzCQALPFSDU9G5qhzOiIQ2hOQFGWHRjOEKkcm2BMyGuGGa6AaOMwffRHnJfceHQIMleYus+MF0Hn83i8BmpSyh5cZd/WsYPvVZJMkYcTojdJEXU110SBXVzT1kftTifH6XN69rosKMyXDChYqtXjx3N218Rg7Y6jeImd5wGnjBAul5uhS+mJfRpva5Qz8FyXA09+0v2qNdbtwvZMFodZhtAzosFqQ8hUegIgIhsFVl1zhNSLPmeqw+MF+AB544hOSYKjw6fmEG/KIa+4HKQp4M6gs4+pDq8FETGFPfxPRHo0rpKax7VBxZlSePTG2gSH70MAMbTSq27Qt3fhREhrZaXjFgYJDsVtUPbhWwXPSo3dvvjEVAZXxecY3FVW5N0C/eJ36u1/ccVYjVcdGOxLz6qhX9M6qlf8cYaCpYQOuzDBKcshEAUzqw99CCeusUY7aZ8D2yt3fF7beL0pgf4tOj70xOPtW3fd0s5edHV7OldZn6AMNPMTCc5E5hmgU7hXih1PAnJKEvV30t4vbq/b83d/i1I2Gsq0tddtR2y7m2M+c9FVrCQrOH4WkReT11gsNC/ZSCVnmu8Da7WRMIZW1r2DqFh5lD+56Kz2r/92swm9SiVz7ZnAEPtR1YxZwbswPrFTUuAP3AAvhQm6E7B98wTeut5hQ9ecpo2zJLgce+AJeJwdJyAxI/j0Y96ms9tf73VwO2DWdu1zCxdIGnyqwk/6DkAj1I4lmvDl84lcZ5BRSlY0N548lcrJo0avPvSLNPAWWOyDeOLJQI2OmjSVvcSr8jURHfthtCEdPgmsYrVolbqv28BKIZu+K6jYaow6FRfccyedNn3t9Vx7yC0dMtaIcTBinuhPxIDv1UzI+c3FNedhJXWUSpBnVBhqgu5WFHjpW48VbI6axZQjFQ4d43NHpJ3mA1+d1IdLkA7HBODziE9psWTqqoQdGbOuvcp2j0falyG+oiif0aq2a25jMLLSiQoiB1MB9PnrAixT177l/dVsu338r1hCxNl+Nv99nXyPT/y12rHafvLHp3TyeacLm945mdaK4R+e8Bed3v9W46DzP5HJ53LSW+EWzfGnjMVBsY81YQN9AtYu7BBNxCz3xQNdl5UJITp1nalBj2HAWSlpGKYXk9LLy2aNcRZ4RkcdGACe7SaTWpx9RvDfvS50lEhyrGDXJJnrspOtR7mgCUJmwwmiMa6UPUa43sz56LvITJecmiVWI4bQC8NBxGq0PKlp41yVwu/9mQ9aDEPooBZ64/Edx4DTrOjjQ+LCDH2oQ3nIVT7UxBrn3EnXgUf0IarkBU/3JGLikHnJGugHvY4+5MySdsrgDWI0OmfV7q+jge0M57SjG81V8STS5OmLuYtfYz0XdvAlbIza73kDH8kD7FWG/egEeNzRPozIwIehmujSifeBSRzPfXGHbheGfkTEmO2NE1DJs127YeilF+h0euVZyFbBp15pUaPT6yGw1A3kDg0dnVbdszM81hvFg3Sx+Z4XGRMfu757SFiyjlea7jJSBdt5CocIeziDbeZoWG58+4eG3d/qdkxWrDiS4Wueav58pmaiWJU+hWugSx4NLpTjkvhbnTWCU2Ii5jjlvbqVCy+oulZYzYpOh1fgMKu1ZMfnbocPvcPXgboWMCs5R5ohXSyZKZ4iUtjrxYXUYjnRyd22D4GTQcb4eIJVU+IeVW26VPnEU+8Dh7Ih3vd5HR5s8JV9nnyqXH7kfDcjYbJPLJJ0frD61EkKy8u+d4NYsuRAirqOoAFgWAKMMD8mDaXAh+EhF/h4s5NkJn0mPDZ/M+8TK07Hn4GzEknif/U+UU8icX9XJDVDZDAoYiTue3j6iJVidobSoLVYId1AJKT4cI62J0i1J0S5xEqUXCHZQ+q1GDPn5BqPPfClx4S7U5LodvjU7OzbD8hDH3mV8AVutYIARQ93+Hx6Knm/jpMFRZIUperq9SntVipDAzXwseoSQz/5qmakdsvOVJIQRNwGBan5VsE/u+8Tw1OOShb+MikUVau3jzzuVrr7QICe2ZxdgP08B5FJmTnGYmLUltSiaHjFabDDpx79wOtoPKAQcaymbSa+H/Wa6LtS9mpMFCZMT0NYr6GyB4pn9NKVjhftKjbgiLPE8dTKhhOKNIDd7iyUH90KrABQrGCrNoEdEBtEJuuvDxaFkrE1g+V0xynjpsGYaULDXQ6IR+wjieCRZywIXaxbnaEs/cvKnBgEXzLUwY8TWGa5XQ2njFHT7hsDOPCxieSSNTCJ7dyItQD0p14fUDgS4ybWofBV22FdP6xbziNUidNhWCceMrjSP9umnc4brEO93u95Ai9iq4QP8CPXqec6eIqD2uPle9opWzAF3i23weg7kYEgmsifoZRCOEgPZ3RIQkvodgWj4/u9I4lHxTzAhuBY5ZalGH/9V/pZ/0/fJ/YO9y5gkkmrGO0aQvsSjYnMrt+u0Nd7vAhY65f1zidLJaJ2wv7uvO7VTCA8F1eA6uvaY251K0Ed3teS/xvvEytG6vIzZMoN560+yB1htut9oq+BkeRMXseG+n9SGPbsgwvDvfHEOo8ar9NhPF3hoJJOjx8qIo8dr1sBDKcJYwguP0Yypg/mca7DezDGrO9mElm1b6PqDU2i3v9+POz5dRYGSDJZNspGIRgWrjOeDQlrFTHuHU/eMlHGdyAsWyH1Y7XZFo+JqRxcwS1PAjBK1NkLG1x7uXSjG77Urgin+RjzP3T1R2ycafioP79NAo6+fKlivPSLu/gqXseqyYyzL1CD94EQYygTpPGeukxETTJvfc+po8L/R70XnPVhx0q8JHpYWK2WS1h1N7EknwR7MpiY/G0MBKVMu1YH7WFBzmf4HDkc///UVhiOhSSML+PjJ2nWq1WtjpOqvm+kSV5PGEt81ZmJFYoxDGz3gbdaBftOvhoY8j9bw2ga7nTCW8tRhME6vVzCPK0Sj0AlbITehMFpt1p8choT8PSFwHPT8xdfxJIKqnwdlgn75wE6ES9aQz6ISGK+TGC4Z4oZoN/LsFQzQ80nwgEbpbRtmwN6bCAqxtC2GNNqONGBLR3X1rNibxOEifsb+IjO5EGS4+Vf1cXtWx11fD8p+lVLCvHb5nubcHHpKs7wnxUISxomHpoRF6syCW2JQStbYTgGGauPhHZ4NgoDgjRmL/m6rz/Dlrly1dCumS45hpPdnkxZa+223xbbt31nb9tmTtmgTddPTiZPWqs9+Phj+jzabn/4gfa9O37ertV3vk9nDObs/MdPOqxyU/rgYSZPvjsX2FXXmgPFwAqiAf82BvK0Y+eLPKBhwG9tTDJIiJntRlqRLsMwM0Y3ueGsxDAYu580pVfvEw02fYIHeBRnb7hRm7/Xi9v+W+/QJk5Yw/zDwwb6mcY20zZu8zbfuh21y7y2+Iml7ZwbF7QvXX9Ve+LpJ03vg7j8Ps9u9rawEf6qFjEj9lnygZZN1vtA78IVXCRuQAJLFjdFVCVaGIpbijKMJbelSL5rV7MjQzekB0fhWGFhfyAj+TptJk2c2P50v5e1I35nrhP35NNPtR/ceWv77i8Wtdseuq/d//iS9tjyZW36upP9S4rdN9ui7b/lc9vWSuYf7fHCdtiOe7SP/uiy9i3ph1WOEUH4FVGVfRx3W3XdIg1SYeXSnTi8vwuaUsVEteO60QUrYkZwwQka6HUOedZCD14MMlYOdZDBpCDrEYHZSKfnqYcc0+ZsNqs9teLpdu71C9qnFlzRHtavqlzsolDiflgr7vZfP9AW3PWLdtpVV7RdN91cK/bANmeTzdv7D3h12/aaH7RPXf1dz6xh+MUpm6VcYcyTm0eGy/+oJZA9ysiXSghIG0Q4VEaQux0DZr/9lI8hftbLPY8uboeedWpbsny5rm2T29mveWObOXXD9qvFv24nf+2L7VatuHLek2VfcaNCVi0/Gbvu3rva6y8+sx220x7tbfsc1I7bbZ+2sVbp+79/iSeyTsORIIT10nGCaiUSv9r6q6yw8Lid89eaZDV2JoxHspDxqeItnj7/BvIafzZqeP/y0vPaozodJ8q5U195jJN37b/f2Y7+8ifbLQ/c4yC6RzP7Y4faRL6rTv+IgHb0V7YLbvppm//1f/Jp/ort57Rjdnl+F4d10nlj3B7gHXDEHLr9C2f6/QrEuLJehDG7khW5as+C9Jicrd57EtSeaetmG3X642UCSzaByqUehzpdxq0U9dv3f3nbdbPZ7a7FD7X5F3/Bp2xsNoGftf60dvguc9t+W27fNl9/wzZpjYlatcvaovv/vX3n9oXt4kU/a8ueftp+sHKuvvuOdsp3Lm5/d9AR7U1zX9Suv+9XXqFSaI8se6JN1c5O6eOnjc8ho474pZRBoJsvEyJRBab2xykyL9Qh81hvCJW6jqyCLx7V1lPtlZ6Oph/hNCqpN3vD6e3IXef5mveWr57dfr30MTvBhgLmzfu8pJ1/zPx27O77eqMgecu1sXArs+dztmzveMHB7cKj57e9Zm0dfud17nt33NI++9Pv+5u+N897sTk5XHzzNW7Hyg4/wpc+L3ZNB+u4jpjiSURuMUu1ajrmwEeXdvezNYi8XvxjTILCQEjQCwhHHOl5e0L0md6xAAbeuLF28n4v9W775Wt/1G7WijKvxniF9JFXHN1etM2ONnDpLde3L13343bTvb9qT+oZdv2112l7zd6mnagVtqVueU49+A/a31zx1XbJLdfJERHo3+evubK9aodd284zZnqnvkI/Gj3/pqvb0brtYZJ9YLlFy4sju5KQpyyOSz4RIH8utDXLltHWp4plnsle3suklcaZIV8vpbtavPSGK5YVGSXqqWut1Q7YdievqE9ceXkMKR645mvlkbzF2oHfqg3lz/7lnHbN3Xe0J7U748Aj2oW/ecsN7Q/O+WT74rU/bGvoOvruF76y7TTjOV1My7RSP/ezK817yHZzLL/3sUfaj+663TLHRAwj8XNpiycg4mSMFFP7UQ5kbRIVjtlWd0AhSdygm30I+5JtyUblqcGw9RmnGXov3HpHr74Fd97WHly6xDr4xjXv2N33M/iUyy5s375tocYSB9VgwkjSR668tF12641tTf1Inh04lKO6/Pab2tNaKHN1uq+t0x8Hrr33l/bBBuxbnkj2K99HejCpkKupa6AaXlnmCXwGMwycJxEg3YpJHePVplDZ9gBfHMPnyNCNhAEoHfD7bfVcc31bwQ+T8po5z3cyvrHoWiXvJmN6HO/g7MmI/Q9+9xJfP+dsOqvtsNGmeCjcirZ46VI95v3SG8/uM7dwTDfcd3fvh/WINVai/SVHjotkumn/ul0Y4njRGNcsnOuvXSCM47Jlg3d94LQQPAvH792+qL3h3E+be+bUDczItY9is/LlBZnYL/7sh3I839nVxcmxpd9C2G/JONUv/fkN7Sglf9/Z27WF999jG8TKEwzJmzk57C28/+6wxyxyfqrUNR1RlTh1wz52uu+Fwxc0+1uZAlVNUq1RjtfA/7C+f8kjkSl5N2Py+ma795HFsiVr4VLbfINplt+glWMf6Q0iG042Caos3KgNhrL51GndCkP3/scetXz6uutZ/viTy514r+q0aQUdSFpMSh8/ptEdfR8ob9kV/QOenIUi6VYkSI3NeveJEZva4XwAyK3xabTLtRoVJDWf8tNy4Ip7PW0ilCXLljl54CfpxQG3KsueetIbhvHsqmIwB1z4RcF/vwmKLs/IlPUmTXJt9wVdsvwJ96dMGr3/Q2h/PBqH4rbPEb6Uwt7IfaC9yRUIqICmkX7169pECGDC9yC0yAL6q7tmBg9cxgPIAuLBbmVMNjG2uMdbopvdtSau2aZOWsd+OHVkd1CG/tkp2aj/XfWQ7iVrnB8MTVtH/CrcfGcAXY3e8IMe/dW9T9RtTAwWeSz/DI7BKqO+9gaSPPCV9MBZZn5IRIA4ORmrT3exluzeR3U6q2wydarU+Qv/FurJgbL3ltuax5NYF/a89WI8/KAV7Xm+mW5+QjEwGLvE3rdEl4ryJTEGZ7vGLOv8x/fYYHwfSG56xTgdiHPozHAXLTl8UvJKCn0Eq+LRr128EoKmYzEik6v2rXrepeypd3qdHYG+efP1lp+ke8E1eRfoCY1J0DlnP4oPHJ9dtfu+SO8OeYvzXW1U5SM1GwjlJm8eha9YAg9HmjGfpJF+y8H4NoZaLZUyXO300mM+2IPoWlczTylDge9lMUa/HJEdc5SDGrOot3/5zTcAawduv4vrOiPOu25Bu0+bzdbTZ7STX/BS82CPEnVNXMi4v3vfSw71i9MLb/xpbBrWX6nHv418X/mA3l7z7DzkGd6mwR2PnsHpNGUOIlbdSFejAnNEOMVfOgiR9UzY3xshH67M4ECZD/hso0d/UKuZ/eArP67SDfTDul5tv/FmbbeZWyZXa0v1eus93zjXK/m4ub/bPnzI0W39ddYNv2zLHkPbdttsdjv3mJPaFnqc++XDD7aP/+Ay6zHGqX/4znNptgtuvLo9qRcOYdsud/bC90wcOAui7qX5St8rjbXqlRyBdzsjllRiKQuaF24Ix+9W6DkMq8VdlNOWfXkReFXGa7ccXzjdzlzwvXbyCw9u7zzgkHbUWR+3Cra4X3z317/S3veyw9vL9TzLc+8lC69p3Kqw287Q/+vbe4vt9Ci4o1ceyXvTRZ/3/WDsoPFEc9jOe/q0Pv+GqzuX8Jwow9+KLVY1DhQ+Yo7NkfeJ+lIJIAFJiY+CIqzKuAd1YAUhN5Fm0XVi0QnzGudPikN8x6cG49j0PAgEziWTC+9nf3xFO2aPfdvum2/Vjnre3u2ca37U8V14w0/abQ/e29514O9phW7R/nCPeLwrGmom4Ty9ZPjYlZe1R5YvDV/Fz8uI9xzwKj/R3KHkcqPtwIUpPxy99Ib+43XlyXakXPGPbXDS0SvpSMfB9bWp2v0f/bwxM952fH4RZNUkCCLjpTWsh20TyEYvC12cRtbL5UTKXrHT89o/HPpan2LHfem0dtUvb5Pe6PvEnfWqfn+9XJilU3Wy7h8f0rdyvJlhw/CNMjERW5Y/3/+V7ejd9qpu+6G+V3nrJV9qy/0yotcNn1BL35KCCRCh8cXrBFp13ACKiB746FkGzHjbcaohgENjAXI7mpaM9lOX6Y1v4XodmzNPyvJ07hzT2NtfdEg7cd8D26O6B3zbRV9oVygxZQu8vTBR+FRj4aYV7A+Bv3P/Q5S8vdvjOtU/pGdk3uzwfctP9P3J/K+d7ZevrMP+IUBswoH1yVH+YRWb/GO8lmrV9hBsNbKGxIVan+ob534ppB4Vcp3uHukPHjCecY/qiAAd6wFu7e+/c0m7QLsv3wOfduQJbf5+B+lmmsf30LdqEoX/CR5wbK7vUz516PFd8k688Mx2kV7xv+68M7yr76nLxCdfdWxbd2I8qYw4IJ7u/yt31Hic/sqTNdaau8t7VWdWOdcHRZ13HnyoBR++9ELVee1yrRSXcs6Gk16ZTRqvVmaMIv1q1koLGeOx4q2UvDh6ud7vLX/qqbb3Vtu1vbRBHKqvNtmRf6VX/U/o0Q7V4oo6wNtM37i9ca8D2gdedoR3Y8y/7/KL9FXozTTb4mVL23d+sbAdoEvAdnpTM2/WVu2yn99kW31gwV384KpNzaSNTX3TUXENjFGvPCtJgWAfPPULjLSN3vraGKudk3GPqEZWyTEObIxCQqv6VVtulV4XSIwjMyhsqDNPO+6fa+OYM3O2rfI+72qdfjfrNdR9evzjUY9TcpMp67e5evrgFobChnK3vtHjS/kHpHf8Vz7d2EDKj830y4YzDnudvleZ1haK601fPcvJHfFDPH0fJ/mX9dQ/fo2XVRGOrx/62Nl2ZPrJx3ZG+XGPZ348Mf26VjgDVojriBDlhC/GsOJDZKrjXmUyzBnfuKH78p12a4ft+nzfrvCF+zOV+5c86p34XO3Gi594ov3j7x/b9tlyOz0qLm7H6/TlyyoKnDOmTG1nHPq6tsUGG/mbvxMvOrM9rBWKg7gXPg5rv0JgWCswE+gVNC54gJVAW/sNHO7UF+UfvOxiPcpd50DwiVNnsr7/eP4W22jlTHcCpqrPKuR7ZXbiG/Wd8FM8K3uhjLW11pzYTlOSeDa+59GH23Hnnt7ulm4lZyN9X/xprcStp83wu8ITdf/oFxCZZEJHl4RWm87YlBOPtBUGTFYaCTjnxHe0g3beLVC/weOVunb9zaUXtJ/rpejw94nhM3nSnxdAROjjYEGgt47e5px+2Am6v9zSX9S/Vkm8T9+HUBifpiSe/urjdU3cpN2hiTv+/M/ELyA0ZjvWyzzFzLSxyW88QtdALcnKbOdIKmZCqXqSXMId4WBJWxZ86EPr033ohALjL+TFGw6EneAzPv2S8YH9aBtvezjHv6whoWeMmvSCuK275qR2xuGvb7vqWsqTCkl84HF995I6fLN3unbtHTae2f550TXtlMvZPHs87eHvE+0pu52jYVSFU6T7+IUBfck5JVzzEkDXtFC3bgA5xilW+P7hPHjR8K1N4eHTR0cOLmCj/99/nwhBwIPYPlumGOT/49rB/+j8z7Yb7rmrzdpgevuMksmPkgK3UtfLpe1d/3Ke+3vP2qaLjRyFX3FrEz77PlAGuVdDYpvxhqSSE8ykJQqhUSpBhulQ5PX2xPphJQBFEL0eP+DCgeAJK71PgESAODl7+/mqLBzJSZai1cWX/DAkga+Vb/jKZ9oi7bpb6Rdc7ML8NM4a4mGVUpbzokF1sCCJniXSI9Z4H9gZw3CuINRZcdRSrrcuBODAunhiJVZAeB7twI3H93q4YXJPjmihVnkGPC8wMxTbN5YDiHQmOqFXfkoGb/231bCj75D1jHzCV85ot+iaus30TbyBPGfKhm2ubqz/9uAjYWqX6BSmGONFlm376aE2tu4bDtc1UB0fwpm4XiBiYLQumaPGdemEWq9b/dJ1reEwE9dHE+tQGwI6+AU2cMUb/REuwFIc8tV4DJkk/Vo9vvQ5fT+nX4Bto/eMw8IPmk7QJsLrLnRLv7tNw7r+rTFx9x3fa6OJJgB7lv3xVc2+3Uc3SzUrATVJ0dfMoadOnQ7lUPH1PDB3bG6h2+ODp8PHSMFHgiWQCEdHEdBjNTlAHFNZqm/jvq5bpI0nT2mb6qaa26BzdO/4l9+8YNXkgUl82R9b5/WH5pOI6M0ZxGTaSrLoWoP8+V8a70gYQxZQO0g/xgNfuhKmXOpg0B7IgiN0nhGfhrrVMMQHoW/erUbiatwucujtoiNr4UuIDRu5Myl8+jrE62tNLPpAw2MYHL8ycupsiDHrDHDwPOP7RDlmjPnFrevJKnjG/CGY0FfXBbn9UYNgWcXOgWx2ntuBSETpo1uliyfIA88gBFKL8cAzGP7aoCl6PJjwHyzPSFYoV1As5ao7nTRUcm8ywE0RPEN8h8MGw+lYdHo7diD9KLxDl4zaMivVxIat7hYJHY+n7oALceDtAJ34SD6ysVgxdWvzTNbyyVmHJj/I/TDpFaFTtqtthHgdhvQzEIyoePVgJIbtYLcyJEQ/FFHJ2ZRu94OBXAV2SIo4Ys5BXXjXmAKftGG4hInH//F4g+NQ/kHhuNDVH8U4/HScqjmVOltWCf+4J5YjQ1/9/4XR9WoyWQDiyCrh9iH5ugb9sIBxStXu6JC5DbxUuuCTo/rGeTx4Cu8aObcPdPqDO8Yz7gH8dCf1jPZh1C9I4oOcVjiW+JCMcHS8ZkM9dIs3/78wo8yASjmSGSDbbtpgrhQmImccCMWzohriSh6ExgdBjInPOnp89KQxpo+tpHPMcpWyb4fh010QLtoeDcukr5qLcOiZEFLrwdXhy376DyzeDplAegrOEajPj0ilR9d4Rgqvmu+646ET3XI+0ijVKPjYXStKKJ1yqEQdHoCKjximbe4SMorcI6moipWGXgx3x8KPCoKzwJjs7I8oqmPb41mRxxiNVfGpL/+N53K1Ggpk3X/1IrNmUrq7MABJ3GVdHU7oXjeuI1YrfM1Q+YcTwzE54/eJeF1DvrSwMks1xqxgnZjt8CNXDIkpvHGBx9+Io9DhP09S9jv5SDiFlQ9TuWihDxq3gcCzMq2LrcHZ9x+/e+1pfD+zWwAAAABJRU5ErkJggg==;" parent="1" vertex="1">
          <mxGeometry x="1565" y="1317.8500000000001" width="80" height="80" as="geometry" />
        </mxCell>
        <mxCell id="-kJO9xXdpxVRhP6Ypn-4-17" value="QnABot Designer" style="outlineConnect=0;fontColor=#232F3E;gradientColor=#945DF2;gradientDirection=north;fillColor=#5A30B5;strokeColor=#ffffff;dashed=0;verticalLabelPosition=bottom;verticalAlign=top;align=center;html=1;fontSize=12;fontStyle=0;aspect=fixed;shape=mxgraph.aws4.resourceIcon;resIcon=mxgraph.aws4.cloudfront;" parent="1" vertex="1">
          <mxGeometry x="1030" y="1320.85" width="78" height="78" as="geometry" />
        </mxCell>
        <mxCell id="_xa58697VZdUaDmlX0MW-5" style="edgeStyle=orthogonalEdgeStyle;rounded=0;orthogonalLoop=1;jettySize=auto;html=1;endArrow=classic;endFill=1;" parent="1" source="fZqA0a1MIIfmeRz-qSJw-64" target="fZqA0a1MIIfmeRz-qSJw-84" edge="1">
          <mxGeometry relative="1" as="geometry" />
        </mxCell>
        <mxCell id="fZqA0a1MIIfmeRz-qSJw-64" value="Kinesis Data Stream" style="outlineConnect=0;fontColor=#232F3E;gradientColor=#945DF2;gradientDirection=north;fillColor=#5A30B5;strokeColor=#ffffff;dashed=0;verticalLabelPosition=bottom;verticalAlign=top;align=center;html=1;fontSize=12;fontStyle=0;aspect=fixed;shape=mxgraph.aws4.resourceIcon;resIcon=mxgraph.aws4.kinesis_data_streams;" parent="1" vertex="1">
          <mxGeometry x="1371" y="1014" width="78" height="78" as="geometry" />
        </mxCell>
        <mxCell id="EHnQ2k31aWHRx2nd6djR-3" value="" style="outlineConnect=0;fontColor=#232F3E;gradientColor=#F78E04;gradientDirection=north;fillColor=#D05C17;strokeColor=#ffffff;dashed=0;verticalLabelPosition=bottom;verticalAlign=top;align=center;html=1;fontSize=12;fontStyle=0;aspect=fixed;shape=mxgraph.aws4.resourceIcon;resIcon=mxgraph.aws4.lambda;" parent="1" vertex="1">
          <mxGeometry x="1240.5" y="1150" width="49" height="49" as="geometry" />
        </mxCell>
        <mxCell id="EHnQ2k31aWHRx2nd6djR-13" value="" style="html=1;endArrow=block;elbow=vertical;startArrow=none;endFill=1;strokeColor=#545B64;rounded=0;exitX=0.569;exitY=1.1;exitDx=0;exitDy=0;exitPerimeter=0;" parent="1" source="XjcV3IcUZlFmYVSwBR1V-7" edge="1">
          <mxGeometry width="100" relative="1" as="geometry">
            <mxPoint x="1184" y="1108.67" as="sourcePoint" />
            <mxPoint x="1240" y="1178.67" as="targetPoint" />
          </mxGeometry>
        </mxCell>
        <mxCell id="EHnQ2k31aWHRx2nd6djR-16" value="AWS Lambda&lt;br&gt;Custom Transcript&lt;br&gt;Processing&lt;br&gt;(Optional)" style="text;html=1;align=center;verticalAlign=middle;resizable=0;points=[];autosize=1;" parent="1" vertex="1">
          <mxGeometry x="1210" y="1202.7480230168517" width="110" height="60" as="geometry" />
        </mxCell>
        <mxCell id="c83NvUh6HGZqpBSzk8XP-10" value="" style="edgeStyle=orthogonalEdgeStyle;rounded=0;orthogonalLoop=1;jettySize=auto;html=1;startArrow=classicThin;startFill=1;endArrow=classicThin;endFill=1;" parent="1" source="c83NvUh6HGZqpBSzk8XP-2" edge="1">
          <mxGeometry relative="1" as="geometry">
            <mxPoint x="1460.25" y="1188.1" as="targetPoint" />
          </mxGeometry>
        </mxCell>
        <mxCell id="c83NvUh6HGZqpBSzk8XP-2" value="AWS Lambda&lt;br style=&quot;border-color: var(--border-color);&quot;&gt;Transcript Summary&amp;nbsp;." style="outlineConnect=0;fontColor=#232F3E;gradientColor=#F78E04;gradientDirection=north;fillColor=#D05C17;strokeColor=#ffffff;dashed=0;verticalLabelPosition=bottom;verticalAlign=top;align=center;html=1;fontSize=12;fontStyle=0;aspect=fixed;shape=mxgraph.aws4.resourceIcon;resIcon=mxgraph.aws4.lambda;" parent="1" vertex="1">
          <mxGeometry x="1359" y="1159" width="58" height="58" as="geometry" />
        </mxCell>
        <mxCell id="c83NvUh6HGZqpBSzk8XP-12" value="" style="html=1;endArrow=block;elbow=vertical;startArrow=none;endFill=1;strokeColor=#545B64;rounded=0;entryX=-0.069;entryY=0.19;entryDx=0;entryDy=0;entryPerimeter=0;" parent="1" target="c83NvUh6HGZqpBSzk8XP-2" edge="1">
          <mxGeometry width="100" relative="1" as="geometry">
            <mxPoint x="1220" y="1076" as="sourcePoint" />
            <mxPoint x="1340" y="1173" as="targetPoint" />
          </mxGeometry>
        </mxCell>
        <mxCell id="iztJvjO-frAtPUYrZVRu-2" value="" style="shape=image;verticalLabelPosition=bottom;labelBackgroundColor=default;verticalAlign=top;aspect=fixed;imageAspect=0;image=data:image/png,iVBORw0KGgoAAAANSUhEUgAAAMQAAADBCAYAAACQax/YAAAAAXNSR0IArs4c6QAAAARnQU1BAACxjwv8YQUAAAAJcEhZcwAADsMAAA7DAcdvqGQAAHpASURBVHhe3b0JoKZVcSZ8et/pFZodu9k3AQVkERcQRFwmOkajMeoY4xpNYhJNJpnRaDJx8mczk2SM0STGGHeNGnFHVBRZZW/Zm16ABppe6G56A/56qurUqar3fPfeRjKTzHO/95x6qurUe9Z3+5Y76bAP/O5jkyZNKh6TE2eQahISlTWpmqgz+THOWzgTWJyceGNCMq+YjCTVMbch8CASMS4Cpy0ZcKC1SaFivw1mlLo2A8N8vC7VX8zBQQUtponz8Abn3jxyG4KPypI1ErgDt9up85wZtIcwbKNw0zqBRU2Q8UwaOjod9bTKklHqudu3SVlHnMfrscewu4ZHiWOLaIW5dmx/TEToGCKJyWlNZIOIjMppk5eicdE1C/AotlS/3AZwqR2IbrUNxk0I3ETlLAVOG71ksledR+NcV/WvkBL05+rMsm8DU88hP9ZGgam0EX+m87Jx1TEab1qSVB0spnb7UEibdAOn3I8J9z825UDmtTx0rDfBcUqqB9wFJkSIm1pVqFz3xWLdakCYNJcxJVgDqhMhTLpql6KCGqVmjjdRDAjVwoEgPjq2QnT04s2ISM2gOoaXCb7uDKKxvlL/oCOAscYJLCZDDI8JME794aDIi6IHmHMbAucQWjfRGIyz0fk4Q64/v5zddIlXSNSG1nYHCtibNwbwQaQE9lef4IhYKrJBuOjk0MOArgpKhBNaAIavG/ZoC2LC8MEBJlJ5FWsiOhENjYuACoSOVXtzEwl7kL00YJKNd6ZIRSKHzDw7NWRzDE8kF83cjZMdVR24vrnOCXlRaCKAqDqnJQhTU/OhPO5OdAHwUdEkU0RnbhoHZVqbOsCwDT4SpFR/JgNHxqC+hKbr1UCM5uLqK2hksgyIsg7qhIu7kcpbMRZckJHc6RhylG1qFSzTTjI7QCT3SOJ5UWTOISQTsOAGRHn1MFq5ZAp/poCBNrwko011HtXo4TjqO2iD5gwQ+Ahz6LVhLDT7QKLMdFyX5hHlEYsgF3HX6wwf08Rhb2VeWeueaDWQGpbmJgrjDqzTgP0zBGyupCwKp2DqrmcNyUe5ExmtMYAQdGqeVD2odaR9FNDVsQgxXxEVTROdB4htIAQejcx01rTJ03xyqC4GOwRcq5A5kcFCnmQiIVwIGTgEKETKEF208NnPgc/eXkfBBwcmAjSmZcGXqQnKVg6okDh8RNLZBGI+gCfqrCoWKQAvCO5WjiZW5vQXQDQ3mo9kKrNA27CkGpCyKFx3pSCivDdhzO5VVUfg5iOgC8p18zuBCJ0wKxtqqzGijzDWQuSYqpOMIIK7ZSAQyVwbp8PlA5AV/qlM4t02tUzA9hFtqEr1aWjch2edcs4a1bwygYyBkhFAzcwFQq4Li9lHRKDVTyJ57jOBdHhoE8mgolJJCB/gJ1cCsOh5iERQquMqIB/5U/ggyEw0D4U0JlcWm00s5ZIpUYikRkWeZMCwDZnjlWpHPqZBpmWiHxvkxUqx1Msn6yNRawajKghSXxYZ5qM6ZKlmjDEXOpB1LLCS62p65srMh9LmwGguJLgAyNKeqU3NDmCR1MtuBhdKpbiI07EgmubXGIdzzi18826QkWgWkkCcq8WlbTKTjrEiT6h6JLYBB9TFe4Y4McSQM3pK1fnMuUGU+jclT8ZU59wG8MGk8oEVQ80QKXLLWHRcMxZT5/kjq/iAq4LAdfX1JYifB0pFDWCaockQQwsZ7LLjExGdfZuAPCa5PdXXtMk8Hlo4jK0UD1Xwslg1VTBxl0zNAv2QhwnE6HHVWSZ/SmgTpmKVWPYciDeqDRyBC6iiIunGWxRA0GjxUF9lKiqkvtGgOoYZuA1VrpmACK9cyexGzvlI0aYIxYHcHlBVmUV9nIkgzIpzrq1uTgQhrgeiHQFM7Q2tTfkSe0AHbQB3OhaVm0k471NNpvO8ypxrZzs1w7VBBH1jro9QdAgyh0kHkTbTKE8ioUlNFCE0SIGmMIdK1c1NJOP5Lt8MigFHtzqldpBpIPA+1EvExgETSCRZq0QQQYYCMoySCVQgB2tjM3bRm0BZx9zrWFbuRIBNrs/YbAlAeRW1MEymqnbTNYu0idBU3A+9A5XrTYnldR1e68epqqvQwpvgQLUiNSzNKlJN3cEJntGt29kJw6OAqzzAYi43jFMRGgTZc5dljozrZ3atm6tzqFdFRyWeztD1yerGBm1IgErUKumi4M21ga2u/kBvDHrt4rIiKpyXM8RwSvITUt0MRAY6Q7T0FkHmIwINMKqdA7VxEQZdpjy40YaMbqpNLQ7jVBYDEgaFxF4DexMKGbuqULkUr4bKARHsaKMcGSRhShQc1fFWVjCoP6HXJpcJ4IOM5ZqITkUvwL3BZLUrVyYIFW0+QK++3i7u8tfgZIhMva4qqRRn1Va5MEbg3gCoES/J+rD4gv6ZwpUnIbRHjaZjLjKnlmgcMRFEaFw7WrlaTZIzhDkrXGURPg9ID6MWhY8km8conQdxerWHMyrELIG0zsB1S/XrtcnXVsSgIYCpJruOhJRp90SKUH7sCIxc/1wGlDbTMh9GVrcBWGcGX66VaFUgQdWmcpIgcm57chnOmczxSjoCNE3r7Ml1dPi4KAzkoJdMZIGxZZRwaugdpbJu0ECFxGuCeTl3Lpq5QcioG23mtQBEzlRQyIA4BWHQhlhEybC+plG7aVRdhUEb6IV62GVmtuuqtza6AJC4rk2l3CmADjcNBLa7+pqg8CLJLZwImXt/BnGoRB2N+RKW0eGuxhwi81qGU01Y7bgK4iqJcZFkJECECyarWioL+KyWrjrmShRhQhHCooCY7Bq4hjQeRSTkI2qFEsrahAkZJZwy5DIYxqbjdoI31RBkz4skFFDRWmAmHRTHOTWuUB762/uERUFI9eW9BA4XpyCAW/2AAZfENMZV1xJBdHRVcpxFJCCQLQvgdokzQzia7bxJzGMQ6g+onVNLXP2bQVNADXiZkmogKt7kjTkzAo2IFIwTQu9UONyF03S5AKFaOBV63HQE3Z+pva2DPKGAUGMSM3eZCEycj0Nrg9rNDYKQJhF45VpGIIsZITqiGLQhFlHuNCw6TXCuECXSPWuDGimTPSj3cPW1g0NC0BKRhe6Q28zIvaOs4xqKq0yXTJCEoWI8AE01AKsRyUXrTagByCdWdVJnN7n7nGSiCL3LJ0h5L4agJCLODbkNiUoRFz1mDuQBXzYgEY/24EZ19JL6A8J5YwTi/ByaeTQ6bQqRSQgPlNTAPuaoSkL7fJ7ocngpKKILEFIA7em3qfkIXH9XkE/UKEPmDCw6nXFGM0iqNSIS34cYUYCr4CrbrA28KJwPzhKywJwnXCRTX7EJ9wKlkhFM8OEN0rEdA1Sqli6kTbk03zkQmKUdDI9IISNwqcaF1sSy6oPwYRdeVrCfiLWiilgYEaXPVUHIYwDkNg3s/OfAdtGkkqmo+pgueg/KutSAwi4oN9fvRMVUiuDqTAJkz6vGdCo17kDKpn8UH91QRaoYgyusYk2am9qbwpsYqrB4DCjVwKJw1ahJmJpq4qAGVcu8AW86E4xDdITA9YoqCpEUAweXIVHBxAznEyEGvWUgqGNwU0IVrX3oJ4zdJzmADduQ4ewsov65DSqxslrIh7IcvvHmY6gy5U0tkrSJWuH9CXwwrUGQDXaoeQXbpf4MJ7Boiat/M3CmEu4hHHMWmWQRCM+7UB9frKIOhg0KMpItFnPJMkzHgjg2P5G4uk1Z3SLgw5kalQNcLxdAFpISRZhQ7E6Rgg6yqxsL6eudbLcaBKC4D8eXf8Zh9GUgCWt92Hx488EUXlfrL7WBAi9jzCvhNhgXL6Zqr2AuifHgA25CM7T9SlqvIsKZoYPWBoXKjWPzds0JLLIdgoCpGSQDd+9UV8Aimb1JoTxAuZikshVeNgx0XIr/8NJE0wguaj7ql3jNAjddRFYPzy6gw8Jc1wRoWEuJtqYPduxZ2cBSOwARl5daaJrmo5NaDKn+wKANniYTg/yh7pkYbGjW0ZJyyiCZ1YSKpBjYCYM2OJ5tDDcGPTMrs6Hxdg9BuqYWCWMgG7h3yBxDNjz18Yp2le5dH9YTv4TkhP+aXQSjXYg1Xn4IrDRiN7XIvm5I7BAv6E0o01n53hf/zVQTTQEziI+BCL3ymUIyFfhUInXl+qq6iUoUMiZRx2OiMtfVc0aLxEXZKB5NNIMLb0K1cNrUkZvawQ5MCp4v+Zt2hFBjrr/nkphOGyFpTSqI4OUMuiBAmlFMKghRiK6plbDkKpEw5qIgzhkrCCpwZgZRct2coXFABJ0zBPHRl1obsdqKgYG65VM3T5iOzkBif1IpWBSOlIuaObdBIPUHmnNwMQe53PBGrpsGtDYOkPTkbxpkLDqPLncwTgJkz1UnUuOAZoQmyUJvPr0xce4CdndtUiFyJOrDolglrXisTOYJZNpmDu7wESmgU0wGJCH/Hg830hcKckVuYPPp7EKhhmAnkv1dddxeGjqqjDAADMdYFLuKNWnoNkJ1lIX+bmpLgeoT+9J7CHjB+v2pGPyIZO4yhWsTQyROTam65kQgEnhD68XmIO1KBVJ/9eZZKMOiGyMnxJLKNKMzRDQzzyqAdFZR2NUH4XkXyhnODnQrTyobdDZTlOpn7q7y6tMDiuVdtEWugI8JRhi8XxcgTzBg0AZQryPR+kK5JgLjTufAocxHsrYoiDS1pDCqA5/mUxv6E8ZBd+h6mHWiVWgMTptSNs2qgamIBNVRZiqFWkRQY/YBuGktoDTXcSC0ESJtVccp61wLTXB2ReXhHiKAuKiyYRSsAGUQYjlUdDipHA9lWVC4BjGESVEkdatovF0+KYh7zwFCfYbOvUnWHRRhKqD+2gY1RI5EDGomqERZWNhNbSmQ22jwMmHY/yFTgHmNyJw6tYlZ6HCRTGjcITJBaJdisCg6JXsa6Fjfki63BYGjYrt8EoeaiUAbvWSSNV4hYtMh4wFQPgq9RlsRV5ZFJF5guSH2lSfqr6JIKjS1QIPwEYm0g+vXCcGVyeJILkLbXXOUPgKnTdWSUaodKPUFvA/9pTHoLwrvIJtpmDc7i0zdJNMUYJ3RphcQZ4dqMYHhI1Zw/+c6e7A52XMZFntcdOIqsn6WCUm7sPaLgmM3ZlLrfOGAWKETDkgjG3qVD5MOInErp7yKjKGJoD6UBR292lFWBY7PAqc+Y7EFYPj6of65DayrQQASgwaCluG0Jd5EUB1lomMrv3TeE4TzxlCjOuRFIQBvikEb2BxawP6xDcJslrBBrBzKeNOxHpzLVkCCjtUqs8CA5L0BbpMYGBgPWSjCgUH9CUMduGpipgLdVLcCkOpWofIItQ1StieEzidkDgyu24kGDXdALie8qSH0dOhEV18dVvWUTUjDgEfFoA05BJPkw1x12W6i03mQutVf0DwhNZb9gF7U4Tgk3jHLlFIDZ9lpBFCWy0cYhxCM2bMzRyaC2sYan7YqisCScbkfs6SBJ1AyhP6DDB/KhpdQkD0nhMKgkcM3nCkA4tb5AM1jMNZUQcu0opjsWacCZaGuLRvoRBAJ4ElGFNHx1Iz34uwM4kHHIVwLVIgcifh0winEB682JsLhwyrArXpuJwzOPlwABK+DL/HQ58pNw4J8MJPBgnpAVj6E6tTN+zRuRmVKCLYYmqq1sQJ1zfUlDNoUZABcfPQpU3Qfohcgwh+VJKJCBc6oYr5ob4Cs4RVcROvXEk0jJFzP4mBmFYJ7p6yqptAimDVtWjly0T7lnIMOKyfus39ZOHN2mTppcv/fBwRYC/q79WADEvHodFHo64rm5gsMC3cXRcYIl7yP7AbOumwwqIEykUyomUDr2O9VlGneg/nCGD0e7N0SgRMnHfg/f1MvDFuQNr4iTE6cQaIw1VFmd+gaINtbRqlyoPe/BAaTjDmq6svKkZrBgjGtQuaACpRJfbNPs9ds5tRp5eglS8vrnnx6OWHpgWXGlKnlERqUe7dsLlfeu7JcuXZVueb+NWXLrl1l96OP0oGahokKutpxIHD0PWtbEjiy5qN2yjAHQhtUtjYol0zSyWTE4sn/ywHIfc4s6cCDhkhsk8imYcF5KOc0KjkzFaMpLELwaRLA7Xb1HbQRMvdZLDdsU6zvpANoQXgFEs0UJsSFIS9FIIPKsegqljkw0UURNBKo6ZzQirYSWTdY6JSZiqQp5LCIzgI/c/iTy8uPfWpZPHteqBOO+o/SZcrORx8p67duKZfds7JctvaOsuLB+8qD27fx4sDCMXD8Vp6h8UzrhHHbQC87CClXSREchuPi2lIxnEB4hUKNJYHTljB8faNJhNAezUwFqEPTNSkvCqB3tg5tYnHYhqrhBSGKmgBkziUIbQIBROSlaMQqaoc6ZM1eMZEBCQ1kcdiYKogZqey4FVW7cUDIqEWBS6FlCxeXXz3l7HLKAU/is8J4wOUI7oPufmhTueLuO8tFd91arr5/bdlFCwaHeOlo2U/bbeaWeJGgusSRyZxvvGVmZOQJZD5NxchjkCeUGwHBBNuAcjwy0TFy861oOiDvu3f2G/9AOmgBqUQTFwTAQnOPsSeNvyg0y4NkPnXHtEnnmMUw0BHlhleQ3RgLwrIuckB1ySBtEhn7XjB9RnnJ0SeWVxx7alk4a06ZhmuPPQAWxSN0dtj1yCPl3q10WUVnjh+uXVluWn9v2bxzO1/34v63VUP3XRPuGCGxK9TPdCpQFvobINGYG7TuWcL2J8j93xsjVCJoPXcCi0MD3BUiZB4zSjN3yAtgYmcJZCZwH8Bn0gHv/w10hzoNG5A5kBfFoDEAiXlRSEaCcwO6utSAsCAAVF5FBhPRiNisPhSsvfqiTdPpLHD04n3KG55yVjl5v0PKzGnTncfjA84au+meYsfu3eW+rQ+Vq9bdVS5ZfWe5bcN9vDh20cp4hOxtR9qulnhRMboNxkNGqa5pW9q+fwZlSGjmqPdgN6dj0Wk8d26sS7xmIplQM0LWNQsw3qLoL+qaNVt3QfABw3xEyDwvCn0pVNLMJnPIKFUO5ApnPjwN1iwEkYxTAgtO57lkjCl0eTSHJv/L6Kzwcjor7DN3HuueaGBx4J4CC2TdQ5vL1etWlR+subNcv/7usm3nzrKLzh24JwnQOlt1R7Sh6tq4qECZqdTYWuaNJKY+5r16FdmDB5OhzjRmEIHTrEscmVo4bVnmLa3gdrk2jHumAFKb2oIA2OIckqBmxZ5ePhFcZUSitKkGle1VPkxTNYcmsdhvg5oUwvEoFY9Qf4nOCniCNH3qtObybwh0OhbIrkd2l010A/6DtXeWy++5q9xIl1UbdzwsN+S08eC4ijex1VK6STllvQkvmRJ1kKz5AOhz3pTzvY8fB29ThHEycdjflmbdOByZWjitGRD0BG6Trw9h3LMF0dqqSfu//9epz2PlQ5OdwbQu4OCIRBCzcs2s80PW4SpXDCpPCA1k0dW4ywERalEsrbnTp5efO/op5RdOOK0snj1XDBMA3zzTVMWZr1e/xwssgHtwQ37vqvLd1beWGx64p2zZtVOftWv9LQHavsfsc3k1uCNZnUDo08l0Vpw5ZUqZR/dQc6dOp0X5WNm46+Gyne6Fdj/6CN/38KMBjhcicgzTsCCsiY4DTmhdaELUycuhKSRr1t6CAMZcFCqiBbogKuVMIUKubM9ncKZA6n1U9gOkkqTKARZRuM0BRp54cVE0mSXmEkA4EkD4jKlTyzGLl/JZAU+QZuGskOL3gIg7du8ql9PR/Mf3rC4n7XdwOXbv/cq8GbP4ES0m1PhRxka9Icdl1VpaHJ9dcWW58M6by/ZHd5G1RW/VFSHzmvkDUfAhA2xTJ08pe8+aU5629ODytP2WlcMWLqYFMasWLztpMdy9bVNZsf6e8oO77yo3bVhXdtBZDX2Rhij2IYno7eCj9sY1V2F0mwAi8hI4o0iNA/nhQeZAd1Hs/4e6IEZUVqeUIFfCOY8+UwAqaOZXcXMxidGboGMuCgLscQBqJsJkquTes+aWFx95Qnnl8aeWBTQRpk7wCdJumhj3bd1cPnHDFeVfb7+xbKFr/ml0NF06Z245aelB5ekHH1qOWbJfWYB3r2mSTaG4sXZ7DpyJcPn0wau/V754x428WAR5oQNCWpfImMgbc8KrPzL03WJq/wXLji4vXH5sWThzLrUH77oP64394s3Grbt2lesfuLt86pZryooN95ZdtHCHkyrMGNNxagbnkwQfjv2yY8golZeOuxodBgsj7kDLN11bEIpeAzlFZrPN6RjU+ZIpsh1QQplNQefAErib0aZzyPULw6di6BgSwWdOobPCkn3KW055dnnq/k+ie4Wp3mtMPExnhUtX384T845ND/Lj1LozVAc34FhY+8+ZV07Y58ByBi2OE2mR7DVjpiwOcsqLeaLAorh9w/3ll77+CZ6QrdK6/5i47lKBsrbkidBrKjkt22tReetJZ5WT9jmoTKWFbcXGAR4KbHh4a/nEzVeXr626mS7pdgzaBu6GUQU3KuzvpnBLvEhQXeIty7ylFTIvm663ICQTYcrc55z+HldVdfCVt8SLDF8hfKiCm2j25hh07BusRiRrHOB9OA74AUAs3PSZhoXGkc/BvcIxTyn/9ZkvKIcvWVqm0SRtEcYGLl8uvPWG8nuXXFju2bKZOO1RC0s2ia/xcYmzccf2csuGB8pFd91SLrz9hrJ200Y+6s6bPlMWoK/nBIEyM+iS7lsrV5TNO3fgHld33CK57iDoPpwPPoqAcrXfDt5rYXn3Gc8rxy3ZnxeyaCcGTKjZ06bTWfGAMoli3vjgOn4AgCC+dX6MWM31Ho5TRXMnn6YmCIFOmq5GyppbI5I1S+su0WXugTpPmXcOLYhsVNp2Lrl5JUHMTcZp2lwgyUshxCoGhPhi98j1G9bXD4WCdNPpyHccXeP/zjMuKC866qQyn47YgyPEOMDlwqVrbuc31nC0tspZFjmAMtvpOvs2OrJfvOrW8t27bi13kIwbUtywyhGZ/iZYF9zQfv3Om8r6h7dxv/l9WQ1MJ0IL3ZxxCbV45qzyzlOeU45esu+ELxd7wFlx2fwlZcP2reXOzRv4oBBGQcWsM25qEXxXcL/ECWKZSCbUjCC6wBUSqhmZ0z4wTn4MIPOCUOZCELi8O/WZUf0c51S5flJQdwrJHM2HdfRqbRZeMew0ElthUTsO+A/TYdIvoBvdV9JZ4Z1PP58Gfz/+gJ6PMVGg0665d1W5/O5V5RFrHcA7rJKkzcjA5QVuSnEfcPOD95XvrLqtXLTyJ2XlxvWk313mTquLo3Mqd8BHPy687YZyP00+9FmFFJFyVtoJLaQIeMT8i8edVp550OET+ijKeMAbmcvp0uuadWvLgztksQ76mHjQqD1WzemcIXNOE0dmKiWNA8LaPG4cyPVtCwIgW6i+RGga5RWNii6aO5dQ8hJZM6uo07WMUuVArvyQ45Op08uxe+9bfhdnhaNP4hvnPT0reMiCWF0uv2eVHgUrVLIscwXtG23E4sDl1ya67Ll5w33le3RP8u2VN5e7Nj7Ai+bQhXuLfwdYEF+hS7AH+Awx6DEVxhgnEnGzfPyifctbnnIWX/I8EcAeZlF/46nd5dRH/I479Lm/ieb+cRoBE9INlU7X4SqbaqBrFum5ZgegY70GjedMsuhH0ATs7TQsODvQ0znkN14pHHlDyYIrGohKjTO4sPNB3RzHtfarjz+l/OUFryhnHHQoD7xr+08J7FskaROSpstcmXEACwr1xcLYTjfqax7aWP6F7k9+53tfVo/RsDA5KKC6qI0M903nLjuyzKYJ/EQCT9NOoRvzg+bupRrasxsTBlFoWOsEzgLQPyp2YYUZHAEF5NUsJgCB8BiMhcl4nBZA/sMirvIsIMle6hMdGTaBqir5wI5acE20gSxaIoDIW+o13BaeuM9+5e9e+Oryq2ecV5bMmVcmT+D6GFHwxGj7rp2iGAXbnXwoDwi9RjqoxaTEEDkGBGedqsZRlW9Kx8VwDOQvArx1jwqULZo5s5y23yFjni1xprpo1c3lrd/6TDn3s39dXvylj5S/vPq75YFtD6nHEIiGp2ln7b9cFIpcr/5MH9YfYFc2iLXyGqLmoSXVxgKcRSVqSQ0I0IwMHhMCz5rBoiCEEFzYVV4FGxBnyDwCXHS1UQIimSs4YrANcRzdIP7+OS8uJ+x74IQvjzAR76Wbwb+8/Dvl6nvXUH3G2UkGuedF0ZDrnDkwUEwA1uMBrGmJwIm4HDhw7oKyYObod+PxlOwbK1eUP6MFgHfIt+/aRQtha/mXO24sf3zld+jmuV6uDYGzBJ5YBfB8GfpDw9psSoZmzlyA4WpDlq2KEWqM26gzhR1Gw6Jwe7NiOs+MQ1DCmRkcd4Z86QSIqmMAnJo7FtzruI4iv+GUZ5RlC5fwDep4QLmtdB1/0R0ryq997dPlUzddVbbt3K7W0Yid7ypinDZ5KRoXXbMAPCgt6PiwQG4gmJsQuImUoMTB8xbwu+mjsJHuT/55xZXlQcqxOOqZ7OFHdpWr7l9Di+UndDYdHjgBnKGX7bVQx4R3KmDqOWR3H8ZUFo7WWHReNq46RuNNS5Kqg8XUbh8KXhSuzmhvuK7AovALA43Jla+FG9hg5sArlYRiy1Z99KVWIbJ6sanRABJ1vBd6nX7QcloM4z81weURnvD8f5d8rfzWt75Yrnvg3rJzt3wMYTRglS02H0TbpJqqoxdvRkRqBtUxvDwRUAXqn4eFdQKLlGAM8dQt3cYa4Lly84Nl3bYt0kbWiQUNxKXUZfeuspvmDJyB9qL4AJdtncSIiwIvrZtoDMbZ6HycIYYmgpezmy7xConakFs0uYxoZIWEjEECjybHReC0JQmqMxMJwQ1cFEhNEoGBuuCzRKOPfQIshh+uvq28g84Kn15xTdm6e6cN1HhlM+IAyGk29KLam5tIqGvuS7un2BN4d8jMR8eAZcxLSXLAfYzVLYeixuFTuWMBT7HGQl4UYScQVee0BGFqaj6Uxy4TXQB8VDTJFNGZx46DUjuExEUxuHzizAXhsq7yLKhfTczoRZHC5ZPKwQeENtRC6odEICanGAeo930PbSp/cem3yru+9Xl+P0DaJ1FEGhtstyR76422qVWwTGtrdoDIYARHA558xvRACMkELPTGRHQP4V1uUQ6AI/whdMmDm+Nahl+S8aXWk5fsN3JRoY8f2kGXnXBWQBfmDCEwEPgIc+i1YSw0+0CizHRcl+YRZZ1nhJHLOi4KzT1UF03Cmg6S6kwpQlsUKlAGH2FmHI3mPCbwOaT3fvfL5WPXX14e3P4w7VcLISN57ONaA5dy+2vtAYSgx6TXOHjw91DrSHtGnYaYKrEIMV8RFU1TOfmsemhja3sHi2fPKS859MllLh5V88QX3+mTp5TDFiwuLzj0WH502wMW66otG5WNge7+XauQOZHBgniYTiWECyEDhwCFSBmiixa0g+cDDyQtgLAICFmXV7zsXZsjYk28SFAdMmcYLAqARGEq0MZHRxQGVzhxTKDO67Y8VHbQJZPFcpj45Yr4SRs4kcxARLnrMc0BtXtV1U0UXN6mj5V1GrZnn8doDO+iewTcOI/C9MlTy38+8sTyuuNP4xtkfMRkEZ0xnnXA8vKuU84t+86dP/IMgc93XXffGqkH718NQOKDM4eKvgiXIY3pWBBmRdWnoXEfnnXKOWtU88oE8j/mHPKiKOnaENV0VdV4TodMY5rI1ATHsT/OIkzX/KVW2Zl4VnWAAbChVP/QytQHA6g5tJtBGlKF4pBps3Ypl0yJQiQ1jgE2e59cXw6Rakc+VQN3PEK9/oF7SE5lHeZMm1FeduRTyt+c94ry9899Zfno836h/M4Z55flC5dQ//UXA4D7sUvvvYtl3WMVOEs1YwwWBdfXIetYYCW3x/TMlZkPpc2B0VxIcAGQ+T3Lb7vm0h7pLKERQhAR5SMKDZH1IT4yeZD4raLJXAtnFtH79gEf78dnBdrS0h8beTfd3faUqvOZc4M4kTZkYBIMJlUnTtXgSdHX77iJP0M1FnAWwDv8OCMsmjV73E8G48nTjfffXW7ZeL/tDBm3ydWP6+rrSxA/jzhOFaYZmgwxtJDBLjs+EXrJxCZXkhdAOlPw5ZOfQuQeKq97Nw0LSFSjYm0y745NnOiiaNBwimaUS55gnBAkXi4z0Rjqh4xicCZilTR+4wDaJD0mvIIjcAFVTADcb7KDgKDRkFJD4ZXhvYUr160uF6++bdxFgQWAhVE/3zMWNtJ92aduvpofXzN014DsvimcSZDbA6oqs6iPMxGEWXHOtdXNiSBELGrwdgQwtQjDe0p14IFMi2Jydm/xHGpoAgT2cTqGsKYTqU4gv1ers6u82a1HHicQkmJMJAp8mp8rYaIIrUrNR+pLHCpVN7fmNyFkd66/UyKevAQQeB+PlW27d5W/vfaScsuG+/nzVD8tHt61q3zulmv4a6X4JLDujG2jMFjUqH/SMfc6lpU7EWCTW7dstgSgvIpaGCZTVbtmNsNZZ0EE3GV8tmAqZ46MVEYD1SIBrDOD8/DOPbuBdFAH/55fArnUPhsMyISRy42O03ZBAmTPXTbkY8BcO87d8vB0BhJxqbh686byZ1d8u6ze9CCfNR4PEHX7I7vKV++8sXzu9uvK9l10dqBQiMYbOkB3jaw74RN67eKyIiqclzPEcErSyQ3a7DbQEdI/boeYXRSq5ksnbEIZaOCwVAiqifqJKJxyFpvSMs9Npaid/3jA9Y29OD5aVbjOVahcwlVD5YAIra5qoAySMNVNEL36D3QqBi+yox7XP7CuvPeHF5Zb8J7MHp4pEA/vOXz8xivKB6/7Icl4f0MRQpHW7bxX31A5pvLX4GSITL2uKtH2yoHKhTEC9wZAjfQaXjIBFrhOvE6n6cIwuDIMju+aByG5CFQZHD2aXSSkRno1G4Drkeu3B2gldd8Bo3QexOnV7pNUiNn4SG3otcn1uAYOGgL64tGy4sH7y+9d8pXyebrk2YTfgfJj2QFi4CPrN66/p7z/sm+Wf15xVdm6s31KOO+li1z/XAaUNtMyH0ZWtwFYZwZfrpVoVSBB1aYiiZ8ycVEWxMQpZKGM7qJIwAC5IjVQ0glXkwqOM+Td394EGjRoQsD3nlE2FuD60oaPdeDnZfrb7rL7EX33AokKFokEfJ1y5tSpZeaUaWUWtqmygUMv306TEqNutMeCXe5xEsvVNhhIDB5SqOlUwAJYuXlj+V9Xf7+8/VufKd+4c8XIj6EjPn5Y4E8uv6i867tfLN9de0fZSjfmGtqBiA6atdHVDRLXtamUOwXQ4aaBwHbViVgTgRdJbuFEyNz7T1r83l82Kh1Pqbv+MtE9ceh9biXo2NU9uVYexfRk2/uYoXm0D2pmn1LufMcfqjQEPtn6C5/5cLmBLhPqouaiGgC/8n3yfgeW/ectdHtTkA8G7Nb168qKjQ/4nqxB+GnMKfseWF523CntEaUFkvL3btlUPnDlxXSExZMYNVImPSb8ujf8Duc9bN21s7zxwo+VFevpZljrkH9epfdEKOjYPXLJqA2TJ5cLnnR0edfp53a/Wop7grs2Plje+K1Pls31rKDl/U8UhCrogLVZQdzZuS7enzBoA7v4Qv05YzonqKkmXiSoQJmzMvSfLgoBeN0FPjHEyyfNK5iLsomywusmicDPu4oWXYxWbkIY/RENHCkvu2d1+dKt15cvpg26L992A/+/h8f4w28OTOQNv/3mLihnP+mo8pzlR5dzsC2r21HlbNpOO/BQOovUjz1oFAs2wVaM48ZH2gR3XOXymdcMZbsPTBzgx7844gsyms5ZZcBo04xAFjNCdEQxaEMsAodYjkWnCc4VokSK8LILddRMrSzRPFEirwYlbe001Btrj+FZQypqMZmEPRB6XHWcOTuJYY/OdU8hoSnV+mAg+LdUKfcbjozYbDcs+522NyNxcMMRbtQGRyquEGFPLp/YL7gRAfe6tgNBolLEtSFmewCU4GBuTITzxggkjl1FM49Gp00hMglhjqqBfcxRlQQMhUB0OXycxWaEQJu8RJ1LJgwWCRdEgFxOh4PtVXCiCqIFmtTErnUMyG8n+bpAymX5COV8eEFkT7hIpr7ONgG48IbuZOmCCmt5lMl1Y5Z2AB40SlIpEccBe1ISdtEpyn4i1ooqYmFemhxQFYQ8BkBu08DOfw5sF00qmYqqj+lwU01EFEhARBI0wllzZtgiaKrhwiCEBkmgVkS5CgGDutHWu9EeD3VSsKsJirYThjcxSBHGlAEv9eRsUKqD7KMxJlLUIQ291CvFGEyggYPLkGT3kciOUjiOCW3BTQlVtPYhv0+hkAN2KCBRBm3IcHYWZVlwWVCGSqysFvKhLIevXC+ZatoAbhY1mk55Q5wuwGBR8J9Cg8R4cvlh3BrQMkFnACaAeqaUelAZLRZCKepg2KAgI9laxFwyhgnjQRwRtoZmTKQ8ylQxBZCznxJFmFDsTq0OOsgyBhOFvzRBcR+OL/+Mw8gvBSRhrQ+bD28+mMLrav2txpQ5xrwSrqdx8WKq9grmkhgPl0yqFoE23wFqbHDR0ci8AAZg90EQ3ZA5OYEtydQ6f4LohVcuJvpzO+kN0KASUkrlscFelkgZCdf42Ig+uYRdEjpDrw29+kLTa66H+XQd2cBSmwXE5aUWmk2DKSIWQ6o/MGiDp8nEIH+oeyYGG5o1S7ogiIBrVkmtn+0CGUO71VUWgfKiGFw+xRBGgo4S+WvcPEwUYU8WhV1vW5nMMWQ0aI4DfFRy7fSn++qbivRBThPyGwH8sgUeEU/DRjJvzCcZZ58p8sPLdcMPLXuOGKYjGT98PHXyJNaNh1Z/SMJ8d7COXvlMIZkKfCrhl6wPVTdRiULGJOp4TFSGLXBGi8RF2SgeTTSDC/9YmbToPW8xaucEylr3CGmc4DqPJcf5A4DBWVcddb6B/GO8mplQEyeqjdB2J8Kq33g/5z3gfYhXffpvy/UP3EsNr4uTymkMyRoH+KlQAmtUL+1RmfIXHX58+b2zX8Q/lJaBBXTHhgfKKz//Ef7nJxW5DTe+6b9x3gPeOPzXW6/jN8d4cXbqV9Gre0b2AVu2YEk586DDeKFkoA13blxfXs+/QC5t4AgcB9NH4klYkQc/8KH79Ck6su2NdKrWjATnneos7uPoWHSaEdyLkxa+WxZE2x+0Jlna1MFYMxJM6jyC7evCwPjGAyrERQKoH2V4Iwy/L7riV97Luh620YL4xc//fblm3d1lx6O7a2kXD6ISr/N1I/QmGhYD3sj6T0c8ufzOMy+YwILYQZoWR0IKH2tBAPh0qjtyPeFAXUb9X722IP5ZfpKfYK1wbWhdpAJloyd8MDLQnx69Ph9zzgCky5wzSwDVZU4bVUm6GQceAQmQNatpU0vKmUgiKmfgSNy5fMoIJzpUgLYczzzMIMAve59+wCHlzy/4WdX0gUn6rmc8vzz30KP4G2ESglIXD3vlPStnODvgL5sAvM02f/qs8jO0GF514ull2gR+BkfixTgTBV8O/RtuE/knk/j5+0HHOHAXmY9kbdSJNLWkMKoD713nQEXu8wF0hzJrFKQTrUJjcNqUsmlWDUi1F1QhGUGFwGkzrnDcTyjXzoDBolD/GDYEpa01GNe5+Mcnp+53UPmT5760fOCFryznLD+GbaOAiXT8vgeU9z3nxeWvX/CKcj4tDPzqdj4aCWg/uvvUrQwMED6qsHDGrPLSo08sf0P7/61nPK8ctmjvEfEqagsqhEl/D/fz7xVWXc60TZaIQc0ElSgL93pNbSkQZkbHv2KwSJRGLZjXiMypU5voBLpkerNz0VMHZzrAIWtEJUIgIrrJISuOUuczuHziEIMgpsERbPa0aeVkWgivoKPx0w46tOw1cyZN9on/4xMAlx3b6Br42ntXl09e96PyozUr+bM5/ge4JB6lLjAWQf3HJ89ZdlT52SefUo5YtA//6nXvUtADlxv4LNSrvvAP8t92VF8FbiW9bnzTfxfFv0OgDfhfF2/4+if5HoKr3hIvElSXOLLWU0SaWlLXjSI2H6D2U8XgcorNWZc0yjHhWd8Sq++kBf9dFkSMT0ReIiuaj7cDKoWsOXAD08TJEwkNtIoq8D/c8P+jT97/oPJKXgjL9R8cxrJ7CiwA/HbpjfetLZ+49kflB6vv4P/Og/+ZVlEHAJdm+KeE5yw7srz0+FPLkxYs5v81MfYZoQH/7OT7K28pv/GtL/A31gAryYKwm97873dB4GMtP1hzW/nv37+wbNOvn7aqW2vi/FDkOdNGTgyDMuogmZRRSZD6fbgw8iKQpJUPzOw1bQvCEkAdxuImm9V0mQMTutHWxmDC4/eBTj3gSeXnTzytPO2QQ8tcOjpPdBJOFDj94ptf19y9qnzuxivLd1bexmeQXbRgZtDZZ/b0Gfx7RC89/uRy+JJ9+dFm70ZvLGzcvq384XcvLF+9YwX/nwfAYlioSf9uFwQmB74v8SeXfrN8a/VtZfdj2oZaec5EdiJBdYkjs8mumbkA7vGU/0QvMj5gdvo/6LhI8iF70CjJbUBGC+JNvCBYYaVMcDqAiLwUjZjOFeBdNEoNpK5wvKIuDDQMlyGn0c3y6095Zjlr+VE8Cf9PAOeG6+5ZVT764x/wv9x9zrKjy6tOOr0cRGeEiTyjz8Biw+L6xPWXlT+/7Dv8YUEGh5J4PupNb3m3Sn2Me4P5bwDsEW34zIqrygev/SFfOjG0DVb/JEh3mXI4hwj54/zImhtJOuz28fJm5HniwSyPEVFXw+rUNOrfuGZhQUhWE0PbFwnyUqjkM1cxkShtKkY+M+AJxxw6Gj957/3La04+s5xxyGFl/iz597Z7AkwaPgpTi/BL4Ht6RsE9Bq6RN27bWpbMnbdHl0YVmDS4HLvp/rvLJ6+/vFy86rayhS7HtHNqVhNNx14QuGS56p67yhb+uuaIhUGBYkQBmC9h3LmFiaPAfh7ctqVcRgeJK9atcu8/qK+fUFZ8DF3iyPQwyGnKbMWYjxkEflGw1BmnfObQxImZU7bgv+mC8DswsXqZRMh+HR8fS3OvA+rZAtoD91pY3vWM88u5hx9X5szAzbIdFyYETEL8tMrqjQ+WL914ddm8fXt58fFPLUfsve/jmtRYWPkoNB7qDfuKB+4pn6aF8D26LwEP30LjmPgOBeUWXqbYWAtiG92Mv+krHy8/efB+PUpLYYSzMIrhJNAstafXvqzDnh59FB+F1zaQGbW1GrQkcGTNR+2UoeptFySonCe9ZJLiAgF795dPFbm+zJIOPGiIBI36V82kebog7FjMFi1i5bRQ4sjUwmnMzMjgiI7XBYFHoO8/7yXlRcc9hd9k2xNgcuBXqe/c8ED54g1Xly/85Mflfjq6owMX0sI679Bj+InQ0XvvV2ZOw8KQrn8iIWeVHfzk6lO0EH609i6awLvsO8qDxdgZICQrxlgQiP+6L3203PTAfTTReLgIEmXcS49GSIx8IpMMyIsstQAOknFKcEIr2soEHb3aqAhXSREcBnWeyMKWIqFQY0mIC8IZRxYYyQEi8hI5Z6miuFQ6ZvF+5bOvfmtZOGuOaicG/FrE3Zs2ls/ccEX5+LWXlQfo5hWTs+4PAj6jg/cMnrv86PLqk5/ON8Z4hPtEAJ22mxbjdfetpf1fWi7SG/Le2SUsCukIX03Gire0/32Z0RYE/rWvHq0ZUnjMReH2zVKuG5KkAw8aInlCccYpYcAt8SJBdYkjk1FpvGVmZOT6mk9TMfIYTHRRU3wMrRx1HjFRjkOirRDWdJkDxORFm1q8A86ZnhMOX7KE/5PlRIDJhseYd9EZ4c8v+UZ56Sf/uvzVFReXdXRWsEsTF383ne4f2P5w+czN15RXfebD5fe++YVy3brVZefuXRzr8QBnpYd37yyXrbq9vPPrnym/+C//WL5220/4IyI1Zo6NMvbBC2TEzSO6jgb7UTkuDxkQIbzxBRA3N1cX4VWooImQ6jsJ9fM6El2N1d+3QSTnMfRhqJ8pVaBMRq9xbMJgVD2B/RoVEXPZ6cYF+aJ9oYhWyr5TLb+8hrxCuLarUs5Dg+QVoQrbpfoIU50C/+E/L9YMVH47TcLb199f/vS7Xyuv/fSHeSGsfWgz/0gWf2iPG6h7tIQ46XfufqTc//DW8smbripv+MI/lvdd9KVy43138ySWa/LxgetofFDwKrok+q/f/Fx5+1c/Vb52+wq+Ycb9Sw6TF8UAXF/FhKoAJ9l67jJnhhZRN72Upk1VbaF6nw6yEty3kWVEp7/kqyaF+gUuWa8NxvyJEVq3E+trX9TLBK2ZMgWVCzri7mQEiNGfKVoKmCE2SF4KSFCIxnboMm5ACzAm8LjyDrqZ/MD3v1Fe9am/Kf/7yu+VWzeu54WAj4KMiuLrJ/ss/JP4927ZXD5xw1Xl1Z/9SPm9b3+xXHvPav406Vh4mC6FfkRnhN/+xmfLm7/8T+Urt95UHqQF5v/n2qCzM7rmNCDjwbn69tWtTSja4KAioxVQldoJaIUceZsPkBd1b5FDY9psZqN4sElEQwvXDLENLeNUu9t6HQHESFnsS2bOzrmjHl4nv/4NaIFgNi67ig1IHC/JFDgVi6SlvVFEPrIz7QJH7zU0+V/1qQ+Vv7r8u2X15o38K9bxiDAIyhmfdMwkAoqhw3fSZdcDNKE/fdOPyxvokufyNbe3mAm4FPuXm64ub/3XT5Sv3nZT2bDjYb5X0YhuH4gfY2Qul04OapYaTxDsigQDTmko2v+OiKm4gIq8NQ7IomDRMF6bagVMSwL6HtfsuHfia3c22izwiVRJREPro2YwCUbaNCMgAAuMQX3ZHhy8u5R1dr6HCA7jIFe+QQ2UiRQdTRfVmQ6w45FdZQP+M6ZOwuGA4JXb4FhyZ7BuEp998K+m8HOMo/FY2UT7x8cu+PIKZTWmhTaB4GVCbwKFy7RkHgW44YFtzz3vgicL66JBGKVBrdx0wcjoLYqgIY55z+8nTZ1WFs+aXZYvWFQOo23p7NllzrRpZeqk3vtCLYrsQjll/QkPoW4C8/EYm5KiM2O0TXIPwWZ1QEZG3FPwhQTzIASOhkhjgGYXKRgVZqzZmEBxvoRzGEwyhrZATbVFzVOkyBsbD/Dsdn7ivNdav5oRz3V+PIuiOraiEHJh4qqyRYGX6gzKJWtGWUwoIHw0pIcxyRdMn1mevt/y8rtnnFf+9nk/Xz71oteVD5//8+VDtH38ha8r//C8XyjvOfP88rwnHVX2mTObF05sg4dyzfyiCJ5iYLDojGEMFIM5ozRoyUfuIViLow+HErCgiwJwJSHmBoGLTg3gIomgXHRmmSBwVI1fR60rmtECS2Zchcq10iYyFd24UH+eMBBcLE6VA5B4ANIBccxFMR44aBUQy0QC9QUpWjgVaP82obDJi7bGAcnAVUFAG339JL5soij8U51n7r+s/NE5Ly7ve9YLyvnLjy2HLlzC/7wRH8rEP17Bv+Y6eP7CcvYhR5Z3nXZu+fNn/2x54fJjynxaRPL9CgCC1F/CC8cLE9TaIC/eOMWK1ykhYyJqgMUWkBHqT8h2wN1DwKhyBfO8KJB0HR0aF0m5d+vtb09BMUKI3EAVkbGICcp2Mah5XARvX0j3hZSluu+a5foQ/IAA9W5kfMCv+krOmpHFycAOwgQdZ1WZJQfs7YB0mOivOfaU8u6znl9O3OdAfoMV7/EML4uo20kHGz41cOiCxeVXTzm7/NrJzyxL58yD1e18iME9kfKg9osCmzOyGJwJ6lbhx8SfuwTEq4ZzTYbPYciAV3VWNC523hgqBHWTJorhl4xQ3xgjaFgQFusKQlvQjYfmbLVAUFVzljpEdCwawqIgceJnCjqLm2sOKglXJ5n4QMo6TD44iLv0khKRBCZoO1NALIZfOeXZ5TVPPq0smDmruwhGAYtjFt1TnLf86PLbdMbA91r4QMXAfqQNUgfdL2Woh/VTyJCqA0EydVBwO52KeaoyxgR/fMnEDh5qjMj3FJY5QdD6TwRwlTgN/l5+vMgxmLs2dO0CGXAWx4DvDZKU6BgQxg4w7Ms9BIr7iiJjUQVVDxEN4WykomlGcEB2LQp8GvnlRz+lXECXPb3vkE8UuMk+cemB5ddOegbfg/j9AY2qZAoItGU10Aakg+BJlEalTVSD3UPU6WMuKnBmBiwK8yCIzGae9SyJTjKCCjBXQbMx6+8gsclbi+b7CUBWuIMjLGrdajslAZzjWCC30CaVrRbKkfEeRDAMOj/zCUBKSP196colpLAaPuyXRKmv+HDG0pCLrgHlMFlOpkn88mNP/qkWQwXuQc455KhywbJj+P9h8y55tyK0qre6tFEnnaolSz4o7NoOyfdFkxxIKQsCkBLxTMIBXFEVcabIb94BWWr7V4EytRgRPg6oUq0jxgDtMAwkx4+8AmJu3tgQx+CuxCYZuOpkv6pT5AEZLJIxwJ5cyFjiOnZqAmL/O4OHqoNrBQK4Os6eOr288rhTy4IZs1Xz0wNnnJ896sSyz5y5qiG4OrQqqJKywaKwrBnNR+0G1x4AY+DHYXIelMEgEYXGtM5sl1BemYBwwZr5HoDOC+HM0DtTSHy3B4hotDDdubMzMh8b0iaUYcEVD0Slxhlc2Pmgbo6PhvNhMXNkJtQkgXSqtkeyTpe5Mk5wn3DskqXl2MX77dE9w0SwZM5e5RkHLC9TJuf3WSJzNWLIyHd8YKBNMi2jbpyp3MOk2b/9+sdwowOf0EzSRY6X07A4KX1K1vk4HWvV30Aivon2suNOLn/8wlfyE4gM3ETd+sC95fkf/UDZvONh1QryR7lHfR3VoPs3nQo46v3F819ennvE8XzDl4EPE374sovLH196kX59svk0dxU0k5oQMXWTPfz+bn37+1T6jwtMvjs3rC8fu/5H5ZK1d/BHYp669KDy88efyk+iRn0XHuN87X1ry69f9IWyZffoH3MDRKecshax6VrWHDjTgOoicGMAsB8foQZHqcThknXE21lCkD0iYFUPcxy7BGMCR9DBmYIQSoFQnLzbYZsiMJkPXrikHDBvL/5hNOk+KROrRSRzBe8j2P7fBBbD+y75Svn6ypvLxu3b+Vt2P7xnZfn9H3ytXHXvKplnHeCMc/BeC8teM2YQcz7j9RnZ9WTQkMt4o9qQmVvy7y9ZgBwxkHHCyJmENSa4Syc1sEiJb3/kInCKxPR9iB+lzq93uRS426EV04OBcQhG+sBRDd/k+/uXvK686alnlUPmL+TfhqpH97SHCKe2ReF1qU3/0fGx637E3+rjT//yn/wM59otm8rHbris7CD9KOCNvP3nzCuTHkO/Skdx11jCgg5p5bTRSyZx1Xk0LgtH/CukBP3pPAHCgoAhrGIW3XUdD6CzA8zlTBHvKcRPzCIDTSShqceGuUJI5TqLwi8MtMdOiijH5X0AUY8F/BzOskVLytvPfE752EtfX9508jPK8vmLaGHQGQPhyEdiCJHOHw6AeTodD3vw+Y+L76+5nb/BGOYQAR+GvIEufTdvf3hgq8CZeMGMOcWtB05YdJx1LFfIBxrdiNcXb5y6d/eGYxIxedSbQlZx5AMfqaiBCZLsJxBttDfdxJFLA9wRaVFkwDvVOHD8u9loHQJnBPxc5UELFpW3n/Gc8uGXvKa87sTTy17153EsAAkhGLgokJokAiPX7T8qsBgq8sTHd7PrBzRHoXcPV5HLxfBEBg6aV9SjFGfwjw5cX9r4DJEXRW8VBx1E4mEgVYyXTw7e1dmzWx/Ny4q6gr1FMbh84swVIhH1xyBdf/cq+frpBIH/2nnIgiXlbWeeWz7/yjeXt9Cl1EF7zeePJ8iQcnDeEFXqh0QgJqf4fwRPXXpwuHGu/Y0DxjI6kCyYNVsOHh2gP/D7TzKvFCxIb7FkouMGf6ZQR7wko011HtXoMPoegtBbGBlhNyrY5ZOzmo/T7REGxYiMU7+4KDT3IB1+tgbfc/jx2pX8P6knCgzsLLruXb5o7/LLZ5xT/u7FryuvP+nMcuC8BXwmGX2sc+gMyH9kvOqEp9F9wF789LAC/YTvtf/cMU/tPkmswP3FvVs32ZyzbhmnfwZTIPBoZKZTos2M5gNpytSnP4W/3Q6CjZuSVnE4lalsGhXCQ0714dUGkQM3u4goMakct3T/8twjn8y/o5SBYvhtoH+65kd0oyY/A8kBNZSEESL1lz9f354un5rxfxsuXXV72Wf23LJ03ny+Z5g0aWI/hYNY+P2oRXT0O+XA5eW8w44t86ZNK3c/tJF/dKCefXFtLPFMYHC/0evtp52tmj4e3rWLb1Zxk9rdaGE/vu1R2ihuyHt+j/ABZqzfylo6ex7/8PMDDz/E3zHBU7kj6N7rDSeeVZ79pCOZ94BFcOuG+8sXbrmOvwBmoL61rmIBCe4JVWs6dlXoWwjGASLKOdPBkDmjOi0waca7XsfvQ3j0TmvZJ1QWYOIb0KzWDepTU1x6vPy4p5Y/edGr+GdiMur7EM/7uz8rm3fK+xBhryQaG7TBnfxIDqdCdfWxUHw6HcFO3feg8ktPe2Y545Aj+ENoewp0MH6C5u6NG8rvX/ylctHKW/lUzqB9yEHC7VfT237191nqAYvh3Rf9S1m58QG+FpdCKUajJCqxI5KiJ+a6pH4URhFJf8LeB5a3P+3ZfGYcBUxufFV383b5UtdCOlDgYx6jLpUA+P3j9T8qH7ruhyS7hyAAkTzmAtRJRQJ8eHKzTg2a2aEtZpgkKqgPXlgQUPgJn3/7hkH2ocppVIyVF3n0gphEC+LkMRfE6o3ry0v/8a/Kmoce5I7zMWoGiLoper/BNHzzDi8fZBJfA+NG+fQDDymvOOG0curBy8vskT+fPxrrt24pb/ziR8vV69bqZQDvjJEHCLj9V/9ApSHw4wav/fzflZvW38dH6VoQqRzsMldmckVTmN61S8TGAZkzols4c3b5y/NfVo5Zsh/5Rr8MtBmtnki/4Srg7d/+TLn5wQeojDsDALp/0zghhhbSdM3o2+DUiIDBYCBDz9oMqdduAO7C+VTfVHAIPkDgEFMRlMFWT4LyzTfxQJrCDYDOPHDB4vKJV725/PLTzqYb10V8fS6NQmx2Y7DoAvLE8fcQBOjwZ+AQPgjVlY5uG+jo9s07bi5v+dI/lzd//qPlG7dcz48M23epxwZ+oeP7K28uN96/To7oDFc3lmkbrwMcUHfsHwcFxMeGMxFybpeTTed8vU701FZs4Gp7hOrqOeYAjtjYD/gm6oOPX3c5/07UeMCCmchiQHu+fOv15c5NG6g70CfSUzYunAlTUYH5yJkzqI5hBqo7UjWYHSCC6UAbMiwGuoc4ie8hpOraAM1QtnckyGeGsKIBtZuWhHoi5BXIIlb42PcQADoVp10cqc874rgyb+r08gAdfe3X8biS4itheWdMJKPU1bd35oC9eRCIoBNx3bxm88Zy0Z03l2vvXsmXCrhXwE/ndOMo8Nuw7//uhWUV3UegDgyKKfsQQasooP3/ymnnKBkC9whfWHE1/yohpkYeE46VdL021T02MXNAdZ7TC/vAvu/ZsrksmT2nHLl46Zh9MBGgXVetW1X+5seXlI380RzbqWDQBmGmY8H5KK/wbcCZs/W5ps4OI3xsQVSwT/PUjoCq6cbtfCDrmNBRw2S4TCpHLN6nPO/oE/lGdhTghwWziAbi9GWHl+ccflzZiyYnfssV16vxI+kITzvQfUgnSIpXb0IBPR3aAH88Ablr84byTX0ahX/Ntc/cvfg/fuZJAf+v0xnlkzdexTfBvFNAdq8Qye/yV04fZ0HcdDX/Ukg9R+X6+ksnQ9axqBpTD3lF24UI4DvpxnsF3dctozP30rnzR94ojwe06eb168r7fvDVcvfWzXxkH4yB0tgGx1gQ5kSCCbEN8hJ5mHEnTpl85onv4V2YFmL21ImVKjwer7XhVE2I057fPFboWFteesKpY96oVSA+JiDOGKcdclh5wVEnljlTppfb6dp6++7dNlkAXxdXC84wafmPfJoXYcDxEg0GDGck/BQOfqDsmtV3loWz55b95y/gf29b94ffcHr3t75YVj+0iblAo3I8FQj+qDWRBYEfW8sXbb6dHMtxBtHQKmc3yeuaUlLHZdHJTf4P19xRltA4LFu4ZMwnTz3gMgmfbXrvJV+lfnJnUUVoA4vDceLMEsD5JEHcvVxBxHFEmDLlzJNoQQjNRs+BQWcTxq980pCIy6d6pti6e1c5bNGScvje+438NGQP2O/cmTPLyQcvK+cedmyZP3UGXd5s4Hed66PO2nowLIBhm2Rh+DYM2shFog7x76Gj2sUrbynXrpFLqSX4fjDt6Fu33lA+RZN3O03iGEoJx6sQgvr96jgL4vM3XaWXTBG5vrCP2QYzuVZ5ncnAkEt8OlPQ2e+adavLhm3bysHzF5VZ06fDe7hvBfoM9yz418KfobbgMknODJ0zNlFXO+ZBo4Jp1J5EguqMo3/awjZHZ+cFwY0UHkqzlDnSplLqFJkDTGOD6qLA2/349Tx8QQQ30Lg0QgelCF3AD0enxVT21IMPLecdfmyZPXVauWfTprKdTu34iUteGxosT/6K4YCk/TOJOtyEPUyLbxUtwm/TGeO6tXi3+5HysWsuLWvp7IAjOXc++bXwLULQ0Wu8BfGFm37Mv2HbnUAErxssChaFm1Z1mUdRuWQKaRMmFS4lf0Jn5++tuqWsoyP9TDowzKDxw30fbs7rQ4CtO3eWWzesK1+hm+e/uuri8m3y37RjO8fxiHUeZwxUMI0zqKtChEEbiMvUUEPNpv3mf5F6kcKOz7E0w1e29/RgMEhE485ENi/1x8kWfnNnzCgnLT2ovO5pzyhnLjuyLJj9+P5hyk66dFpHE/JT115WPnvDVTRh1/ORiRHaMDwbBZ3WudXXEic2O96dnUY327tp8u7mSasG80B8FVTnu+zOd/yhSkPgsesvfObD5YYH1tFCw1Ksu3cBCHkMBuNEPGgkSNMpTyKBfEwGlFCGHkMEfGwF7+PMnz6DP8ayaOZctm/a+XC5m8Zjw/btdNbcrU+7ZDzy4/3BHCLERYJX5JKZoBChFe3zmrVLeFJN+83X6oKQI7Y8fooFgMGCQKOcDphI5YPW+fPCoBmDrxQ+/cBDyxvPOLs887BjHtdNGxqEL/ZctXpl+ZUvfbzcuekBMYQ2DBcEEBdFaAGqXhMnNg+hjic7xBadiJqQjb8g/pb/PwTulAAu6vYF9CbURBbFcJz8GFnCaOFEyIsc4H2yo8yR+nieoza3wYIABm1gF6fr8KRpOlMGq+pVR5kfkyZTne2ROU8p2owTnIwVzsPi7RlcXP4qr2JDVD5GFcC/o7r4rlvK6z/3D+W/fPyD5asrri2btm+zo8pEgKZiIZ10wMHlN57xXP5Pohn1WbvHcJFY7QVc3VyPHlcdZ85OYtijc91TSGhKXX3qxBsT5BNbpZdAQhTi0XROMlEEzBlpU/PB5WJ9H2NQp0CJgHvdmP4ELuLaEDMH7JtSNiARj7Y0VEevNiaDX/8mqEOcKlBLwLHQbTxtUTtsDGAfCCQdrjvxJtDX71xR3vwvHytv+PRHytdoYWykGzJcl04U+MjAs5YfXRbNwumbuiLXL2GwSODeetVBW8D2KjhRBdECTWpi1zoGJvFE83WBlMvyGDgfOXglT7hIpr5iE+4FSiUjmODDG6TXOgaoVC09QptymWfOgcAs7QA8aJSkUo0LrYll1Qfhwy6cLL/tygoTDHkAIPvKypFA39VWcOUdZ3gOkTbTMFdlhYq7H8HC2MZvjL2JF8bflQt/cg1/LAI3mqmbusDTj6W0IOhWT7yxL1cfWwQuVF4YMIU2sZgGQLwgBLTdVTv6CxxQwfho1EnBriYo2k4Y3sQghUw+D3ipJ4vCVaMmYWqqiYMaVG0TnOsjOhOMQ3SEwPWKKgqRFAMHlyFRwcQM5xMhhjomdIboOIhPg3JThQb3kRskA+p0zHOYx+xjHrwP9cBZYQvdnF208iflTZ//aHn1Jz5Yvkw3zOu3PMQLYzzwpZDuyPapvCFOFyCcLQihBRokxnOXHywYs0yQF0UwjkQ93Us9qIwWC6EUtf9tHJCRbC1iLlmG6VgQx+YnEsLW0Axxi4APZ2pUDnC9XABZSEoUYQ6xO0UKOsiubizg2Z5CufwpdUBxHw5jopdMsIgkABGFdGDjDcSdqneN76oqGIRADPUyW3YSDVyxDzzqvHTNHeWtdLP8xs/+ffn6T64Vp/GAXsqhXZ3RzrwABmD3QRDdkDk5gS3J1BbFBNELr1xM9Od2EiZPxUDHpfgPL000jWjNM0HDNV6zwE0XkdXDswvosDDXNQEa1lKiremDHXtWNuB3mYSyQnQNKvNkgaCVrW6tEwW8KBxnc9r5GFW1suGn+BkqUFbD4f9GfH/VbXyPMR5QhP/tFgdgFUFr4uqHo0NeFPnyKYUwEnSUyF/j5mGiCBNdFHjTEr9bhH9kP23SFH5owHLgU8r0yVMDx4Z30rFVjp+jxyNtxJQv9QOac7WkbtwCq58IRrsQazz7Cax0Z474MeCetkO8YLAoEKLqrHw6M5DOmWqiKWAG8VFMmvrrr8EnGBQqpAqxgl5yOhG5YkKP+gjmZ6bhozLTOB9+PpQcc30ffM9fcd7Dlh3by0s++hf830LxDFxA5VxM3q/j9V8Ge0Sd+AcXJbENIjdRbYTchlW/8X7Oe8Cbl/gvRg/qG3OMFkohCk4Htgr1oQyXoevokvOyu1fyxyfwIKNWyoqz4MZJeUVuQ+btkSxARLlkgVDW7HxgQt4CVhMJSec4g3jzlSTzCqFI0aei5wXBQvMjKDEdCSrnRYFMwo32AXoLJ+hUdNVXnfApphbBmWhB/LUIHfgFgc8iudI5I8GkziPYvi62QeQWr2YmKNSPM5HHWhAAJrCec54w4KPp9zy0qXzgsm+Vi1feWrbxtxLzBALGmFSO+66out6iEJUJhjxHJvo+BRLTchHno/YoOg44HY0wOpm6OvR17njiqpJjLLgommf0yTdJ9cjmVKwzDoE2zRyUJUP0GQfVmXIJIylnIomonIGzib9UIvTuMcIkRRu1TT6eeZhBYU5e2Qcub3CZ80Ru+Bj7wQsXl3c/+4Xl+Ycfx5dVqEu4HGGkcWosQJsfMLgkhI8JRhi8XxeA51CC1a0C1OtIRG2txpxFuyRO5xAOeXFfRMbkBMdFzD7gTYHG2Kp0cN0d/FnNtPf0SbJY5zFQy2V/x7keymVRDzFYFOofw4agtLkBYohsGm/6PwyMx17TZ5W3Pe3s8oJDjy3T6f4DiBMKiC2oBul/JHWraByLIvQace85gB9UyMl5sCgIQQfRF2NBxkBFRuRI8MacGqvXYF+BE6FXmyzCK0Rsiuo35vsUkB1lwGeo5EXRHrKKR2+B9dAfEKRGGBzV1Y8XAG+qIORFIe0JQThxGoa1yhLi2en/AnAZsveceeXXz3xuef6hx9h3U6xqro6u6k1guSG2yRP1V1EkFZpaoEF4/pC29xRzfLgyWRzB+V9qtX0xYy464TUTKCfItIh2zjgA04bUoLzKwcIUUpEzUzulGsw0BqpPblPVG1EFZ64N0s64CMY9U0DwbXQGFjP/vwwsisVz55VfO/Pc8uLDjy+zp0zj+lvtkGl7XNUta01VH8qCjl6Dp08cnwVOfcZiC8AY88BKYF0NApAYNBC0DKctMZPeQwjJaKrRRlsU2FQnmZKJwldUUZvCKRI1tssnS8bBaJ8Wduw4afoz+meKiOGANLEZ/n0A1897z51ffvOs88sLDqNFMRWLIlUTbRy0U3hTQ+jpZFG0XpPzu3rKJqRhwKNi0Oc5BJPkw1x1ya73EK6Ad6CsWTyBoJw2NNAWBnQiUdI4+3QaExoEETphxiNYmRbFOGAfKYdwUgSCkagTiTZwpgy5fFKigC4sDF9/gAMlnTJO1T4eal89EdtYwBSdN2MWL4oXHnacXD6hnGsBPpXMj5Ro4yc6rg0tPCJlnQqUyQ0zbTEb6EQQCeCebpQxaBPxoOMQrgUqRI6E7nGnvOMX5P18Whr2uEqzKsQnXURGcFld0c5iDBCeL1fEx5eSBC8iuX74cXosjM3v/d+i6ACPXV/89x8o1963Rt+H4EA1BCHG5MzVRSRKm4qRH8EOHslSjFSk6czQfFa/849UGgLvEVyx+o7yEH+pxoYxotOnHtWKL2CdsO9BZdHsua0aHWAv92/ZVP70B98sX7nzJv4k8iw6Y+CnaA6ev4D/ixB6c+OOrWX1pk1l0079vgM/HvbVESFzYPDRccqaVUjmFePOIUL/ES2yKkjOaVVN+VVaEICNJ7mrUby4ecKCvmUMt3OurBZr2kAYuVF5UYQpBVF72rQsTJrQgriGFkQ7kre4skvllJnF1aWnA/IbeHlRjBoQCCy2pKwZY0Hw7zJ95iNlxfp1bVFXkChMdZS1ofQWTSnDfwB951nPpcujvUgr+h6w+PALJx+64nt01phRTj/4MP5lPnwzrpbCkGyj+t21aX256PYV5Tt33VLWbnmo7HxUzuFShbaP1iUqUCb1zT7NblkrzJjIokDBPI/AbVa3hNMpk0978ntYhEf0SvsnIi+FSqZoRsmi3XTKgUHlAdJVbX9CpSEk8tvPfoGSIfDd309d86Ny79aH+JKthVSBMpEab5kZGbznMTgmUK7zsA3CTavCO848T4QO8AHGT19/RVn70Gb5lZHHHuEvQOHMgTcbOXdcfo5Sv8JpXMrsIn7HhgfK/Q9tojPFwWUOTfRUQwPaN3v6jPK0g5aVUw9cXg7YayH/M3b+OIhukKHDL3CcctDycs6TjuLPA+Grtfh++6ChhDwGo8cECITExmW6RjvQm1dBx0UGhTjTgwlCE8D4ICrcX4YxAu8YVVWPw17XBXaQd+J4vQ40DQTSccYKggmjIWHEsYVXIXDajCsCj0a6e1CpYdwbbeaiS5bHAYogL0UgBCU+owRH76/ccVP5i0u/VR7aHv9VWQamyYwp03ji947IFbDhP4keMH9hedtp55R3nn5uWTRrFllqmVAxheiGT5+8d5MEkcsbwFEX7hcUQYMikg0Qz/HD8XWlRMC+Q6BM1KG9yygcjCvlAvR2B/hJxLLjDOLo5qQdG+wsJVq5zAFi8qJNLd7B1R/ICwDIN9o8QL4NHELb4GOPBXaUrU0ggIOxRaCENq5B3YE5wP4Y/6gwfjHvj75/od6bPHHA14DPPeyY8j/PeXHZj/8rECl5ByJYUxgixDYRiJub6yThVaignnQ+wCTivT43aCVMo76Tudd4EweG9CSLrKVE/NWumVoddyCdmxKaD11l18MAoTEEVN03qMrDkmOgOlPewoM0k0EVtk/1EaY6BU/+zsLIaOUJJCA2Hz9juAmhtygGIJ3USo3qxoySbXRJ86Vbbijvv/gr/KsZvn9/WuCn7089YFl52ynPLPNnzEyR+3uSNg0tom56KU2bquzgG3w6yEpwP89I5jfmuuCe5BIQHIQjTrMEQgARhU2T3CBfEcK470TCjGLClI9TxqF5ckGRTEmCvBSQoBCNDZ/L8pnLusthePZIDgjBf+MDPqG+hLwouEoqVwlZXhSSkUAF8JOgX7j1uvKnl3yzPEA3w08kcI9x7qHHlvPovgK/ysH11/0DsT2ytUVBW20Q65BXoarUTkAbZQyaDzA4sCYOQFO1dMnkBiSPatsLEtkXiyqIWpE5QTmHAMBVxxkCKgfGfZ+ih/HsDPhIO5u7CIHjJZkCp2KRtLQ3iuj2z/cUzg5AZwsDtlxfCcLiRMDFrcwELp9cJkK24qd7Hin/evsN5UOXf6/swI3wBDChsSHgUe0rTnhaWTwT9xM61yxBDMQCr8htEpiKC6jIW+OAm66GXM9BvZUjrV80RiKw2ZvRCjVIgwIyB0gnYWFsDsJSgegyBO1wLPNEMKizQQ2UiSQpLmv4pnHKVDrStUVicAEHN9rZlzAcEM33BFyGL7iGE4h43gVqZTWDTe3VDe8zzJ45nf9nx1jAQWvbzp1l7aaNfJmFbzCOtTDwdOegvRaV0w9YbjflPe9ufVkXDcIoDWrlpgtGRm9RBA3b669ukBwKcE3qRgg9CV/ODI2rAAWLyM2YwzC4i8BVh+tB3ly54QRKfCLgIki0rONcXVVXOx7L4TQ/a9rUcvjCvctrTjit/M3PvKa8/iln8a/ThTAJck+huSJfPo01ifqAv5RpJZuuLYqmk10oF5WOgRLDY/wLJU8/5HD+Nt0o4OzxlVuuK6/9/EfKz3zqr8uLPvXB8ravfLz8aM2d/Ih3FPBu95kHY0Egtuw79vewPlVliwIv1RmUS9aMqAnPn+w/ABaFcyKxtZ4PfM7MUUVkmCweXDkWReD9G5cjQYMa6SVhRW6ZIyPAK1p2wKh8jCIMHJX2n7cgTGIAYgunwmP4iuaUMo9uAo9evG95NZ3qP0SL4LOvelt57/kvLecf9eTyn45/Kk0e/DBzCyaxKG0qauOjrnMFWBR+YUyk/gbeCTYpYSJTEdqiaAhtFDc3BmJEuoguaQ5dtI8dxTMwwb5x243l/d//Wrke/2J3546ycfvD5YerV5bf+86Xy9X3rFLPIfCrhsfufUCZMXmq7EwSV39Ax9NxBlVHekyd5UVb44Bk4Kog9A6sdROFbM2D5osEJqgRiYmMJmnNCNHDQ7RqH7g0BQ+IgzBXWUJvlXs7I/ME/BDxH73w58obT3lmWYyfo7GjlJTDBJhBl0Jzpk8vyxcuKa898XQ6E7y6fO7Vv1z+4IKfK+fRIthvwUKOgzPGkXvvW45YtDcPMu/b7Z57jkOLkideOjMMQL4uxEggCvthvnJ8KTUoa4qBhaA6b6JYuKzBxzFwvT8K+AG5f7zm0rL+4a38BmAF3vhbs2VD+furv6+aIRB/8ey5/L/32htkUgmk2l0dkIEdhAk6zqoySw7Y2UGYRyRXZt+HMDMLwjjltkNSDze+rDWT2jUzDCqnG8GOUsqRcXe5MnnhAINFMQYwAPvOX1h++9yfKR98yavLcfvsz9fJ0GOCL5u/pPzc8aeWj7z4teWbb3hn+YMX0CI48viyj/7zRSygOoTArGkzyrOWHUkxpmjNKA3VAcFiEQbkRTFYJHvQnugKQptmSBA5Xj5RCpekA6wWZJxPZ4g2WSNwYHqQFsIdG9vv5PoxwO9nXb529BkCwIEHj1+BXl0YTHFQ9D4CtEnahb6Fg7jLVFYiksAEbWcOmEF2tInP6sOjLrYxAnCviwg0T5FaURVCqEB8GIZY48D4016F12x6eBvxoY8HJvczDzu6fORlv1jefPIz+EzwkZe8tnzuNW8vv//8l5WzjziOJwWO/KMmBoCBPXP5EWX2FP//LPK+iecQY1dvfHR2UQGxF176tlmbD0lKav/3Lrcq0JSplIy6nIIHvo46HsI+IDNXwdsCoiEcIFU0zQgOcDvTPOodWNtlLhnrnwdzRJOIulVUTl6USXyxD/YVOJxVZPR4UPCiCAuD5Nqg792+ouza3b5LNwr4/3TLFy8t/+25Lyn/4/k/Vy449qRy0IJFZQ4uh2jBjLUQKjApjl16YFlGl1G48UYNuBZal8BdffnpE84Mqsr3ExMCx5Mxkn0gAUSQ3YkPTz7a8iRsVQIRCbXAz4T2JgiAfplPlzzH09lVvnetUH8cbJ5NN+RjAZ+lwv/uk31I/f3eKvdtqNUJ9SJRek18OGNpyEXXwOV8rA6odW4ikW8dZIYWNp7HD5x1vcNha5BFMA4QEbfWQLc/lsBFFeEahc7604u/Vm69/94J/YofBhdPVPBfT/HG0UQWQQY+EPfs5cfQ2YSIVRZ5q6+pq42Qu2/P4AIreB+cVJa56GRRNC6pggj6cNWmjfw4dRRm0sHkDXRmPWivBWU6LjlZS31JfXj04n3K6576dNb0gAPZvVs2l627dvK+pAJaC2TGh+/cc3sY5jiEqoNrBe+vKXgMnB318QvOfadaAGOYImx3a603qv4wNIgnmxlYIaITOKxVtrq6tILPEmkSX3nvqvL2z3+0XLnqdrH/GwP3FSceeHC4hGh7zfsn7lQ4U/gzw0TOFCiOzbw4ngsK9HQO4UxBkGGAkgU6ej9c7sT/wR7RfzhwnHLAsvIH57y4POPgQ+kGeUZZPGt2edHhx5f/ce5LyrJFe6vnEGjfivvuLjvoLGHg3bh9qWgzLdsNpFN1WOiqy1yZcUDuXZVUQEVtnzTprS+nFI8kqbL6iwsMHmv3IdnM+cypzJ1Fqy7OWVyXq8ggEjggOgvlCvBek3/+zR4MGJ6S/PLTnlXecua5ZdG8vfinW35aoN/wq384++CfPP7wzlvKv950Tblk9R00wLtcFVp9JEs8dgCDb9hpw8Ja81t/rNohtuzcUV7+8b8u199/D9/UWiSL73cEqCY7EuRLOY3XauFs+Tq6r3rHWefLI+onEA/teLi88xufLRfTAavOw1g1X1+zuC4bQ0eZjHLjLaN0BK/I82jKpFOPe48MO8FfHwK091Cey6qGZwptoO3/E9VEKu50rSGAkqyjVwsrHJCscYDFGJSvU6+5Z035wR23lAPnLyz70ukdT5Iez2URjpT4nM+ajevLhTf+uHzge18v/+uH3y7/esu1dCS9P30BpoKIcs6csXK8OYV3u2dPnc6XHy888rjy1tPPLkfsvR/79YDF+Jnrrij3bd3CRzHEschOkH0wIQw5p8aBpkNYPEk679Cjy/yZs1n/RAD9eP26teUjP75Uvh8B0P6sBZxpPTgleJ3JOiuiEwPTz/UImxoTknkFi65T5AxR4c8QDjahrJzbfTukS5b4oAGUqYXTmgnMOFj1zS2QcNkCoK7Q4XT+2pPOLL90xtllH10YEwUG8c7195U/u/ir5eKVN5cH6WYQX7LBL93hL7RJ5aZq9WGJOJ5c4WyF7xUcMHd+efqTDitPX3ZEeeoBTyoL6GYVR+ex6odvzL3sn/QMwRdOso+2J4LuV/ZpSfNxulFf3cT7Ma854Wnl157+XP606hOBjQ9vK7/77S+Ui+66lfuVQXW1KlSwQrStC5XHxHcxgQi9Yu+Jrrk1wlkMwKjzaMqkU459T3NAhWnjD7DrLiyQC0L+xrSI7snJQCsju1BOmbOErAqy6oFsV1HrzLuz+gtwFMVHm6+6e2W59M5bywHzFpS9583jzyJN5GwBH3xTbO6MWeWGe9bSkXkz/++6UAeTVaCsmal/aNZhf3OnzeQ3/F5wxPHlbWc8p/zaWeeV8488oRyxz35lHh2Jx/viDYDvLnz6usvL/dv0DKEIbTFRhFw/TjWxIfM+9MKbbHdtWF+WztmL6rw3P3n7aYCPevzTtZeWz998Hf+DxkHf826djkWnUZ5Eguoc5zYRNxUkJZJ5rgLgdfSaUmhBVBJBu/CXULT34KK1MZ0XuLeFCajs0FF1ypM/0K7Ehj6+c2VwnZEAjndU8dulX/nJtWXH9h3lyQccLN8HTr494Kj9pMVLyjmHHlO279hZbrr/7oL/MiqQ9rRmakoZYk+jxbDP7L3Ki44+obzj6eeVXznzvHLBMSeWw/ZeWuZMn8lnCyyC8WshwGL82NU/KOu3b1WNAvvzUVgU7kSC8/I+piRog/BDAVfefRc/YsVXRsf7sN8o7KDLzQtvu678xeXf5XsgoNvvuR+YiKaJyiUjmBB0OPMNzp+WQaAGujqwTinGEhsvCCi80TDePQVQdW12EEjIHGnigOiUNzWh6UQygcGiaxzvznED6XANfs29q/mG+MD5i8r+NNBT8L6DuowCWjZnxkz+J/HH7XNAufW+dWXjjm32bi2AiY2fqcfl0KF0Jjj/8GPL2884r/z2sy4oFxx9Ylm+eB9+TMvvjo+7xyFwmXHH+vvLh668hI+yaGhoJ4susvKWEpx/E/WL9o4DOAjtoAV42Zo7yiI6gx2yaDGfxSZyEAFQ3010E40zw19cfnH4Nl4dozZpCSwIy7qRPs7gq1UfN+Q2NX8uMVS7IJPKW17G9bXdN5sgPHlylQRaxCbyGnJetqZi5avPoPJA0sk1ryqdG+AbOOrSow4mbmj3nTOvvOYpZ5TXn/7sspjkiV4WYFHdu3lD+fBl3yn/fN2VNNDbyswp08t+8+aX0w9ZXs497LhyAp2BFs6aW6ZN1Y98jKjPRIHJtWHb1vJHF3+lfPz6K+wafBBXOadmGkOXuPQvYAJf8i2ks9n5hx1TXv2UM8shC2hh0CVg75181AuPVh/etbOsuP/e8g8/vqT8cM2dZSudJWxm+CIk89MdhxDTimSd8CYql0xBRHk7nDedny8VXjepvJkWRHZIDR7cbHN558Oi07hFYOBe52NEda8JZyIpB5IdkLBR12ugrMmorG1COoMum05aekD5dTqKn3XoUfyrEYM2d4Drd1wXf++Om8vld91WTjn40PKUAw4pe9ENPC6x5Czw0wGTi39BgxbgXRseLB+98rvl0zf9uGyjyeZ/5mY4RpKYVnkSCVknvLcoIOIfsiyZOac8nc6SZz3p8HLc0gPLkjn1Q5JyoLh7y6ayYt3d5Ru331CuumcNXyLxz+W4OvbqO+gt8gkaJn6+CKCRmdSSGJ6IcusxdfBpzCjl15t/lmILqWCx0wBcYRnEyRezMpy2mmhOYF3j0km6SJwb+wQOiC50ohdTfXtnC+8DGR82e+PJzyxvevpz6KZ7L7WMD0xaeRNHnmg9UcA9yppNG8r37/hJ+frN15craHJt3rmdj764fLUuBXS3YQS6uiazlH2cMpyJFbU4FqM8KZtaFkyfwZ/7wqUjPo6xlQ4SWBjg9sYagffhwvXGCJdPw3a5FnAIH0TzqvWOSKOSEdrls9w3lOqCgNyMQG4MY3CmCFVVf6fLi2KwIFRQXawCkcwJ4UgW7ERdAF44yZ7rCzZn+rRy2gHLyzue/bxyKh3xcfbIxf4tgImDhbWLrtdxWXTR7TeV791+c/kx3es88PAWvl/AO7Ftegn8WYLBzXQ11j4wDQtOpwYro1kVWv8K4iSmUqCU1DswfvBB7ajguK5IXgSZM0gXF4X4cKrusY2SmMY5tvAmxDkTMhKaG6MtCEYsAAwasKeXT4Dv5XQ4UPeaMEKjvFyhYm/S5/pOxAcfTptL18uvp2vl159+dlk6f8/et5goMHFwKcGXGZs3lh+uvKVcfOuKctndd/GZAJdKj+L9Dlc9OYYMF0E4X3ATB41sGhV64xRF4XFRqE/Vub6zGqT+5P04VeZAGAMSe2d+q28wedLkJoqQOTKpLwlmq2LTTSpvogXhHBhhR9lIYJW/fBIf83SCiTKyLLqeFI05AUIkpDOYqIJmfsJLFu3AeJdPEgIf+ptanrr0oPIbZ19Qzlh25ITvLcYCFgEm+sO7d5Z7Nm8ql955S/n2rTeW6+nmE1+22fUofg+Vjkm6G86wTxymVCddZ51G7WmygcqEmkqg0ToziNCaqYJmeaIKM8ENZfPjPTQqYurHXr8Oxol40EigJGYOqM5zlaW+SiyDgDGAhAVRoQ65AJAn0Pj3E5ZIKqOKRKAcGh57Z7JypiMh2AmuQO5IZkkHeL/BgBCHBj6L6CbydU+Vs8WSeXPpxnL8z/p78I0xnQXwM5p3b9pI9wQrynfpcuiKe+7if0S/m+xYKLjcADhL9eHaOJUMJKWq6y2K7uLVdjFYEOZEAvlAzgNBouxFdZQ1q0jhbOLKspTqk+s3HAPsb6hzLWBuGlMPeUXbhQi9yydTkUQL4qW6ILwFgqwYj36HxzNF8HD+JulCYNiYCudUTRxJZad0iLp8aWQ1cTpgsHhGcFwyHbV43/K+819Szjr0aD57jAcsBHzZfvXG9eUHd9wsHwJce4f8tAt1J3c0hZc96H5DZkaGr5t0lXaY8xnebOcxwMsH1dxrWRDWdinC6AnUONCGUhUElgInuVFDHoPhmULLVuR9AF7XlJJ6Tq/WX2pwWVwQLhMQcdxEX+HH9UjW2QGny41BphZOayZoOmkkCc7eG4BBZxPCgLAo9cVReOmceeW1J51efvH0Z/OTKH9klnsC/Czk7rLuoU3l+7f/pHzn1pvKdevWlnXbHmI93i3PA2LUEcmCUcRUX57+UcXw9coTTMJmndM4gUXHe/cTyJq6kTwG5pPqk+s3qC9hzEVhphFtMBkYcqC30CWzBVFBFnMGMic6qGxeFK6igBHV29ipwXHWOP8K2aXybNeshTEHMTmeB43B1CkcR4oPuj11v4PLO551QTnl4GXMMdHXbHqw/IAuhb5PZ4PL1q7kd2jxiVt+LCvnA4LG5ZgqIFW1t0sGgcqqg6VqB3qXSwMdlXdFtHzWCTOd503J6WACEUIb6NVqoAafNWdGbxFkXVgUEqSJgOoyj6JyyRRKKMvzYVJ5oy4IX6BTWa/rNWawKAjBT0WrPtckxVGdaVkQNmhQ5prZoHTq6Osz7pkCIFprM5lmxNzpM8pRi/Yth8xfVO7ftrmsWH9f2bxjOz8Zkjei2JVApUIoIU2XOcERtVaBYaLzG3dhsOv4E8bsgPcxQ/PIC2NUG+xeIGQdXQgAGvnwTNGvr+mUJ5HQHxNk0mPCaUH853bJlAt47qJh9zgCDifQxM4UptUFYHA8h+ZSQafE68gBIeTNnqF9sCDoSJ53FNpEYmiB8urDz9+dP7eeqehSaIJvAwkqqzenVY1B4X2rGmDRBe0tCCAuitCCGiSJzUOo48kOsUUnoibJGpH+j/1jPqrizNmBwZwiTGRRBA2LTqO8ooUTwS/y2KMYBWwMEkwmYPCV18sBnhAe+NadBy4dsClt5RWYuY05jnIqMqTGXAXTmdBAqvZVSQi0eTcn47Im734ALi5/xlGOttZ25FUmsCi6VlfAtUGk6ta4EuEKJTZmDr2vnw4XidVeABIrRuhx1XHm7CSGPTpXT/A1TTecXbCaO6Q5DOZUD+QTW9U+0t4gHk3nJBNFwJyRNtWfsjS0QgLiWZXBDVIZyIuC4arPgiuQZ6X1turMv24JHRV0CGOhFGlqdDFc5LJFrRsQZ0DLufXRWeGUJg5jMIKdNnmJepwJM1gkXFADBGgL2F4FJ6ogWqBJTexaBcFHiEiUujY0awOPgfORg1fygotk6it24V6gVDKCCT68Ab0mPzLAxo4HQ/XVJ0UC893GGJwpNK9AGF+KZ69z0vGsPrny4KJSAzsFwSBfKHc6kv2k5yMZcWwVsA8Xho8hm2mYq7JCRaibyQTnqZwy2QUSEJEEjXDWnBm2CJqq6RTcl66MBmpFlKsQMKgbbfFMLFm1hrppLkFUrElzU3tTeBODFHbWMcBLPVkUrho1CVNTTRzUoGo6Q6hkfmo0TqgVrTquPHKhXWBR+IVBZfoDojo+V7mgaDm33pVhqI+plQeo3auVm6q2YQzkRcELxRdinsP4fxlcrdGDOcqauvl0PJtFjaZT3hCnCxDOFoTQAg0S47nLDxaMWSbIi4I2+HqdyjaUDlKP5uOLVdT+t3FARrLFYi5ZhulYEMfmJxJXtylZrZdMqjUjBO8J9HjT5ckzCsFLQ7Cu12sGakwnfGxQDVQBIgoJ23gDcafyZ4kK342MQQjEUC+zZSfRdMJ3PKuOUi6U7h9yAReUuzAtgAHYfRBEN2ROTmBLMvkTe0VTkcSF6kRrPEC5mDDWzaE7rwY6LsV/eGmiaURrngkaTrj7XSYVjBO8zCBF1jmOyg8a0DtTqNggOtbLqEIS2PgiNhdXNJ+gg9xMJnNYCBykubVOFPCicJzNbQeMXgsManqEBG61uapAWa5vr/6iElKrZL2EjKE1cfXDxMuLIl8+pRBGgo4S+WvcPEwUYbAoiDeVSLX/5V7AO2SOAwAdAhwH8twKBy8T9dABznZtgdlFMNqBLVyBCp4jsHEgEEFWdVwC0DjvBNE3kOG4jWXPJ+syyD5oQ0J6hDO4gSP0FkXQ+DaZYbgoUqkOmj14ZiKvygwju6qD4MKkXz81GSBmr949RQMR8KATNHUzSi06zmOBA0mpXJK5KUXgKeEMleslE0H0BBWMA/BWEeDSyJnIxrKAmyN7G41YROG6gUfWedhIkxZlU+HGIcBBxQQJo/YKKsz1TbpeeQb0vA0drAXVhxIsikeSKxdVOzbenfmAmGSpUws8iQGona7DFPEsIf5hnFiUewhOojDgviiARSELQ3x4F8pqiqw3Biwi8bq8g4T6MCQewHwAzUlgEYkJAtlF47QgzMtBeVATyTwA9qiTSaa6etk0uHzSygIsOA33nFkddzqG6OLuOz6qagMiiuYZfbijm1Hag5xTAXTGIdCmmYOyZOj5tDaQAFmzmja1pJyJJKJyBhZA5/Ipw7WACMnaJh/PPMygMKdsAIhnFUC6NgaSCZO/yhnODnQXCamsVWymKNXP3KVNDPXpIf62K+RYahx0fFKFA/OLwcOXySG5pU7pWo5iuX8ih4OKjMwJjouYfcCbAh3de5PMdXfwZzXT3tMnyZq7CJnXTATajCsc9xMKXWXd5TBYFOofw4agtCGy9xDZNENTA/HkPQ6sAGUQYjk+CLVOEngeyrKgiC2oBimKJLwx51xNJEH8FOBGBOBJlfmw8v4s0TLzIgFVN84ja2w40r4gUufKCJwIvVoI4RUiNkX18zdxgwGB7CgDPkOlXD4JIYhHXGBSxocHQIOKiHp6wuCoLgAvAN5UQciLQtoTgnDiNAxrlSXEkxO/X0C6dvnUsloGL/ZxvELEpkPG9VM+CrFFAiviyrKIxAssd2+qlQRdyxjOTUAk9ErmoEk3OFuI3TxUcCW0h51GOaemVh1lohNeM4FygnRitHPGAZg2tJ0wwqIggLkWWHnOTO2UamCRkhZOjFIFkS1D7nRMGUpUwZkEYEg745QZ90wBoVUqGFjscfZvS9wvilodZSa1MRAOiBU64YDuxZD7H+UHT5+IWznlVWQkk95DVI1uXscwQZHtisyBnq6ic6aA0ERIuRuArBHu+6KiqUYbbUCwqU4yJRNF7mxCrT2nSNRoLTeDwokM49nQAItYR/sAafoz+meKCDel/M4kc+5NrE7OWOURaqtFticMDkKd+g6eEhINGpQZlBOul0zZCKjOTCRA9ryn8ztiuXFnachnCnZKA+B5HtXQkwotw6CsWTyBoJw2hJFQqhOJksbZJ3UkBiQMCkTohBmPYGVnUbhyDq24+lAmKghGok4k2sCZMuTySYkCurAwqHxw4UC5bsI4VXsVkyPFls0b1F0AGT6UDS+hIHtOCIVBI4dvHieUCS2gkxgYa6pAPhP4LJPHGD5m6t1yNnDlB5XtLwqDctPw2KUYVRfUSrKu5zMCYo0+g84mDI9UeVK5ATGDCKn1zt7Q2WVEDh1AWmfAI9nB5VIG1zdhoMse4J1yAb0yEb5mElGhAmfoEDOAOqLonym0fi3RVOBuqgGYaNNsyAFw1TGCkaC2oIKuKdicG9BZFOwnTIk1py0AbK4HnYcD6UjZdgkimaAZEco60uwEDqAyAYuid7YwsBjtAHzMRBve0WYoN5FlpyQECS/dzKIZw9XFJKcD8tlisEiSv0B6mE1slvaoaIBdipuV4nNGEKH6WATNBOBGCCqHDD4sMIZzSsYpQCnvk2UkUgNA7yHUWLUDqCHbe5x1KhhX9CoX7LQo8sIgpFKtmMzeygLnjma12jSvzKSmSHKzQxKmZAzYhAeyL3g+gbKPe/pkFZc2VDtveDEHTFBJOXwq41gQkGm9lI9CXhS9SRYaYUFd/FZxy6oQL5/MqGg8D614xzIiNQ4M6kvoXT5ZGyCyWaKnMwRBjQzN+shG8AnoHJVBIkWnEQzr2FBIE6djKEeLXE8OQgfeMaqqTYum6wI7yDtxvA6QaSCQjjNWEExQdBcNIEILr0LgtBlXBB6N476jTRguCnDRJUvi0s6xQR7yUgRCUOIzZ4eY6weedcPL3F7dwof7HExHAmTmKhgHlAd0dIF37Pkrgv4sAd9uPPka6wDD8XXlRUDfhJKZqEO7BhUOxvt0AXq7A/yAsOw4gzha7bx0ozOFidJC0VYIa7rMAWLyok0t3sHVH+jdT0Dn9YNJxiG0DT52hXeFL3MksrXLJwAOYhEooY1rUHdgDrAb0To0XpF1fJlbgyAjbh4qyBlCjaYF8g4SbSDDwJZ12SHaZcIoqUiXTsMBgayfu0Gv8QamPtKTLLKWEimuds3U6rgD6dyU0HzoKrseBsgDgu53Q2Ayp0hoq/cUrfXqo3alnLfwIM1kUIXtU32EqU7Bk7+zMDJaeQIJiM2HMzZAIW1kH0tYsKyitygGIJ3USo3qxqypJOf9K1HkMRiA66sgIV4ysQWJumTOcDZTkxA4EAhR9TFE7qoVkRdGKAR5ZEntSfGJEB6rFAgBRBQ2TVzn8l4dB3qLIgBmFBOmvFdGdP5M0VLADK44CfJSQIJCNNZLLpMJpAqCdZfD8OyRHBCC//rw9YMY6kvIi4KrpHKVkOVFIRkJrQBjdE0UXTNKiUFvqh1yAeMkQGZugsB0LWOkyjIZ8KbIA9S7wa4hzIsF1w15VMGdjsNrGd5ErcicoNymBbjqOEttzIsCbdrTo5QGRiIwLn4tnAiB4yWZgo7fSrS0N4ro6sf3FM4OhMe0sDl/hgRhkaEcmZ09GCJwcfXBNu7lk8tEyFZKm4riO0LIXC6dHNSMGuv7ELHAxEHlQlEOlnSE7JPtDmxCfbzPYGGkAFKIRUZorYf4xNLUDSlcchCQTsLC2ByEpQLRZQja4dDc043G6CFTA2UiRUfTRTXxphjcaGdfwmCRc8jcBsc6MUTHSyYtCgLxvAvUymoGm9rNzfunssP6psfmKrZLpmxkrjozOW46ReBEjKsw0k7Avtz+IY05PdiU7ERDo+1+QnWhJ+HLmaFxFbhOLHhjDsNo19AQ4CM3b77DewMSwNRNKWTkE755pz4qBI5wLWSzi2SCQ9MNTAS5p9BckS+fBm1iaAsstvDmKVLkwtqiaDrZhXJR6RgoMUTOe631qxnxXOe8KNI9BIzRwbiZkt2XcSYmxtUn2AkDnnwgV46zhD9TwJX8pbsVfHXgNOg5P4Ymi0erugi8e+Ny5GpQI70krMgtc2QE8oBUbhoW5OlZ1OWPeQggtnAigItODeBeaJmlAOu4sHAAZ4o4QUhHi8IvjEH9lXBmXIXKtdImMhVhcKYgqDuBBHFzYyBGS5uzuIKnoWSdg18UdMkUjQKnY7HHnc4jqwP3RGNkf6eQiZEc8uUTh1AfZCyKRrWEJnFPMqKHh2jVPnBpCnuEpxBG+3Z9yp0d3QYDgjEwTcdfeP+zTxET5F6d9sc1Adc68sRLZ4YBfP0Bjuk0KiJjEROU7WJQc4MpBhaC6rxJ94WUpbrvmuX6EAaLQp3dAaCWbqITCE4OPgSWsxLo6AYqIsllvMr3zhYuU0EYpzyekNTDjS9rzaR2zQyD/etGsKOUcmRyCaUKQl44QG9RBBCvGs41SYcDAhnwqs6KxrNdBVErU2IA4dOtIS+KwSLh+oYgzE3DgrBYVxDaNEOCyPHyiVK4JB1gtWAHFTlpPoDoWDSEMSARBy9ZEKkwIznnYIKucqgO5VXo+XhkPg6GEwzbGEG410UEmqdIragKIVQgPgxDrPE8Ha5VFVmTJxQqMdAR50UBtZrMY1hcIQK4SpxG/0AIxNOlxsAloxMCibWhaxdAzGZA+rZZmw9JSlr/N2sPw74cwt1UY8NOciHHs51FJNB7jkxzRtVJNpIHkM6pMeF50of9p+MlfPTPg7ktANi8vXLyokzCi93vihE4nFVk9HhQ8KIIC4PkfJSqtTetCpyZAYvCPAgisxnxOKbqJCOoAHMVNIPETJ0DbwGo+6gDcWZQVb6fAHicVGY4wiLHk1YKRwKIILsTn/pcJNxXkNyqBCKS1UI5Mt6DCIbQ30Dgpfz/plYkIqNWct8AAAAASUVORK5CYII=;" parent="1" vertex="1">
          <mxGeometry x="1459.45" y="1159" width="71.09" height="70" as="geometry" />
        </mxCell>
        <mxCell id="iztJvjO-frAtPUYrZVRu-3" value="Amazon &lt;br&gt;Bedrock" style="text;html=1;align=center;verticalAlign=middle;resizable=0;points=[];autosize=1;" parent="1" vertex="1">
          <mxGeometry x="1459.45" y="1222.7480230168517" width="70" height="40" as="geometry" />
        </mxCell>
        <mxCell id="_6m6SjeBcuUdVjYHcMyG-1" value="" style="shape=image;verticalLabelPosition=bottom;labelBackgroundColor=default;verticalAlign=top;aspect=fixed;imageAspect=0;image=data:image/png,iVBORw0KGgoAAAANSUhEUgAAAMQAAADBCAYAAACQax/YAAAAAXNSR0IArs4c6QAAAARnQU1BAACxjwv8YQUAAAAJcEhZcwAADsMAAA7DAcdvqGQAAHpASURBVHhe3b0JoKZVcSZ8et/pFZodu9k3AQVkERcQRFwmOkajMeoY4xpNYhJNJpnRaDJx8mczk2SM0STGGHeNGnFHVBRZZW/Zm16ABppe6G56A/56qurUqar3fPfeRjKTzHO/95x6qurUe9Z3+5Y76bAP/O5jkyZNKh6TE2eQahISlTWpmqgz+THOWzgTWJyceGNCMq+YjCTVMbch8CASMS4Cpy0ZcKC1SaFivw1mlLo2A8N8vC7VX8zBQQUtponz8Abn3jxyG4KPypI1ErgDt9up85wZtIcwbKNw0zqBRU2Q8UwaOjod9bTKklHqudu3SVlHnMfrscewu4ZHiWOLaIW5dmx/TEToGCKJyWlNZIOIjMppk5eicdE1C/AotlS/3AZwqR2IbrUNxk0I3ETlLAVOG71ksledR+NcV/WvkBL05+rMsm8DU88hP9ZGgam0EX+m87Jx1TEab1qSVB0spnb7UEibdAOn3I8J9z825UDmtTx0rDfBcUqqB9wFJkSIm1pVqFz3xWLdakCYNJcxJVgDqhMhTLpql6KCGqVmjjdRDAjVwoEgPjq2QnT04s2ISM2gOoaXCb7uDKKxvlL/oCOAscYJLCZDDI8JME794aDIi6IHmHMbAucQWjfRGIyz0fk4Q64/v5zddIlXSNSG1nYHCtibNwbwQaQE9lef4IhYKrJBuOjk0MOArgpKhBNaAIavG/ZoC2LC8MEBJlJ5FWsiOhENjYuACoSOVXtzEwl7kL00YJKNd6ZIRSKHzDw7NWRzDE8kF83cjZMdVR24vrnOCXlRaCKAqDqnJQhTU/OhPO5OdAHwUdEkU0RnbhoHZVqbOsCwDT4SpFR/JgNHxqC+hKbr1UCM5uLqK2hksgyIsg7qhIu7kcpbMRZckJHc6RhylG1qFSzTTjI7QCT3SOJ5UWTOISQTsOAGRHn1MFq5ZAp/poCBNrwko011HtXo4TjqO2iD5gwQ+Ahz6LVhLDT7QKLMdFyX5hHlEYsgF3HX6wwf08Rhb2VeWeueaDWQGpbmJgrjDqzTgP0zBGyupCwKp2DqrmcNyUe5ExmtMYAQdGqeVD2odaR9FNDVsQgxXxEVTROdB4htIAQejcx01rTJ03xyqC4GOwRcq5A5kcFCnmQiIVwIGTgEKETKEF208NnPgc/eXkfBBwcmAjSmZcGXqQnKVg6okDh8RNLZBGI+gCfqrCoWKQAvCO5WjiZW5vQXQDQ3mo9kKrNA27CkGpCyKFx3pSCivDdhzO5VVUfg5iOgC8p18zuBCJ0wKxtqqzGijzDWQuSYqpOMIIK7ZSAQyVwbp8PlA5AV/qlM4t02tUzA9hFtqEr1aWjch2edcs4a1bwygYyBkhFAzcwFQq4Li9lHRKDVTyJ57jOBdHhoE8mgolJJCB/gJ1cCsOh5iERQquMqIB/5U/ggyEw0D4U0JlcWm00s5ZIpUYikRkWeZMCwDZnjlWpHPqZBpmWiHxvkxUqx1Msn6yNRawajKghSXxYZ5qM6ZKlmjDEXOpB1LLCS62p65srMh9LmwGguJLgAyNKeqU3NDmCR1MtuBhdKpbiI07EgmubXGIdzzi18826QkWgWkkCcq8WlbTKTjrEiT6h6JLYBB9TFe4Y4McSQM3pK1fnMuUGU+jclT8ZU59wG8MGk8oEVQ80QKXLLWHRcMxZT5/kjq/iAq4LAdfX1JYifB0pFDWCaockQQwsZ7LLjExGdfZuAPCa5PdXXtMk8Hlo4jK0UD1Xwslg1VTBxl0zNAv2QhwnE6HHVWSZ/SmgTpmKVWPYciDeqDRyBC6iiIunGWxRA0GjxUF9lKiqkvtGgOoYZuA1VrpmACK9cyexGzvlI0aYIxYHcHlBVmUV9nIkgzIpzrq1uTgQhrgeiHQFM7Q2tTfkSe0AHbQB3OhaVm0k471NNpvO8ypxrZzs1w7VBBH1jro9QdAgyh0kHkTbTKE8ioUlNFCE0SIGmMIdK1c1NJOP5Lt8MigFHtzqldpBpIPA+1EvExgETSCRZq0QQQYYCMoySCVQgB2tjM3bRm0BZx9zrWFbuRIBNrs/YbAlAeRW1MEymqnbTNYu0idBU3A+9A5XrTYnldR1e68epqqvQwpvgQLUiNSzNKlJN3cEJntGt29kJw6OAqzzAYi43jFMRGgTZc5dljozrZ3atm6tzqFdFRyWeztD1yerGBm1IgErUKumi4M21ga2u/kBvDHrt4rIiKpyXM8RwSvITUt0MRAY6Q7T0FkHmIwINMKqdA7VxEQZdpjy40YaMbqpNLQ7jVBYDEgaFxF4DexMKGbuqULkUr4bKARHsaKMcGSRhShQc1fFWVjCoP6HXJpcJ4IOM5ZqITkUvwL3BZLUrVyYIFW0+QK++3i7u8tfgZIhMva4qqRRn1Va5MEbg3gCoES/J+rD4gv6ZwpUnIbRHjaZjLjKnlmgcMRFEaFw7WrlaTZIzhDkrXGURPg9ID6MWhY8km8conQdxerWHMyrELIG0zsB1S/XrtcnXVsSgIYCpJruOhJRp90SKUH7sCIxc/1wGlDbTMh9GVrcBWGcGX66VaFUgQdWmcpIgcm57chnOmczxSjoCNE3r7Ml1dPi4KAzkoJdMZIGxZZRwaugdpbJu0ECFxGuCeTl3Lpq5QcioG23mtQBEzlRQyIA4BWHQhlhEybC+plG7aVRdhUEb6IV62GVmtuuqtza6AJC4rk2l3CmADjcNBLa7+pqg8CLJLZwImXt/BnGoRB2N+RKW0eGuxhwi81qGU01Y7bgK4iqJcZFkJECECyarWioL+KyWrjrmShRhQhHCooCY7Bq4hjQeRSTkI2qFEsrahAkZJZwy5DIYxqbjdoI31RBkz4skFFDRWmAmHRTHOTWuUB762/uERUFI9eW9BA4XpyCAW/2AAZfENMZV1xJBdHRVcpxFJCCQLQvgdokzQzia7bxJzGMQ6g+onVNLXP2bQVNADXiZkmogKt7kjTkzAo2IFIwTQu9UONyF03S5AKFaOBV63HQE3Z+pva2DPKGAUGMSM3eZCEycj0Nrg9rNDYKQJhF45VpGIIsZITqiGLQhFlHuNCw6TXCuECXSPWuDGimTPSj3cPW1g0NC0BKRhe6Q28zIvaOs4xqKq0yXTJCEoWI8AE01AKsRyUXrTagByCdWdVJnN7n7nGSiCL3LJ0h5L4agJCLODbkNiUoRFz1mDuQBXzYgEY/24EZ19JL6A8J5YwTi/ByaeTQ6bQqRSQgPlNTAPuaoSkL7fJ7ocngpKKILEFIA7em3qfkIXH9XkE/UKEPmDCw6nXFGM0iqNSIS34cYUYCr4CrbrA28KJwPzhKywJwnXCRTX7EJ9wKlkhFM8OEN0rEdA1Sqli6kTbk03zkQmKUdDI9IISNwqcaF1sSy6oPwYRdeVrCfiLWiilgYEaXPVUHIYwDkNg3s/OfAdtGkkqmo+pgueg/KutSAwi4oN9fvRMVUiuDqTAJkz6vGdCo17kDKpn8UH91QRaoYgyusYk2am9qbwpsYqrB4DCjVwKJw1ahJmJpq4qAGVcu8AW86E4xDdITA9YoqCpEUAweXIVHBxAznEyEGvWUgqGNwU0IVrX3oJ4zdJzmADduQ4ewsov65DSqxslrIh7IcvvHmY6gy5U0tkrSJWuH9CXwwrUGQDXaoeQXbpf4MJ7Boiat/M3CmEu4hHHMWmWQRCM+7UB9frKIOhg0KMpItFnPJMkzHgjg2P5G4uk1Z3SLgw5kalQNcLxdAFpISRZhQ7E6Rgg6yqxsL6eudbLcaBKC4D8eXf8Zh9GUgCWt92Hx488EUXlfrL7WBAi9jzCvhNhgXL6Zqr2AuifHgA25CM7T9SlqvIsKZoYPWBoXKjWPzds0JLLIdgoCpGSQDd+9UV8Aimb1JoTxAuZikshVeNgx0XIr/8NJE0wguaj7ql3jNAjddRFYPzy6gw8Jc1wRoWEuJtqYPduxZ2cBSOwARl5daaJrmo5NaDKn+wKANniYTg/yh7pkYbGjW0ZJyyiCZ1YSKpBjYCYM2OJ5tDDcGPTMrs6Hxdg9BuqYWCWMgG7h3yBxDNjz18Yp2le5dH9YTv4TkhP+aXQSjXYg1Xn4IrDRiN7XIvm5I7BAv6E0o01n53hf/zVQTTQEziI+BCL3ymUIyFfhUInXl+qq6iUoUMiZRx2OiMtfVc0aLxEXZKB5NNIMLb0K1cNrUkZvawQ5MCp4v+Zt2hFBjrr/nkphOGyFpTSqI4OUMuiBAmlFMKghRiK6plbDkKpEw5qIgzhkrCCpwZgZRct2coXFABJ0zBPHRl1obsdqKgYG65VM3T5iOzkBif1IpWBSOlIuaObdBIPUHmnNwMQe53PBGrpsGtDYOkPTkbxpkLDqPLncwTgJkz1UnUuOAZoQmyUJvPr0xce4CdndtUiFyJOrDolglrXisTOYJZNpmDu7wESmgU0wGJCH/Hg830hcKckVuYPPp7EKhhmAnkv1dddxeGjqqjDAADMdYFLuKNWnoNkJ1lIX+bmpLgeoT+9J7CHjB+v2pGPyIZO4yhWsTQyROTam65kQgEnhD68XmIO1KBVJ/9eZZKMOiGyMnxJLKNKMzRDQzzyqAdFZR2NUH4XkXyhnODnQrTyobdDZTlOpn7q7y6tMDiuVdtEWugI8JRhi8XxcgTzBg0AZQryPR+kK5JgLjTufAocxHsrYoiDS1pDCqA5/mUxv6E8ZBd+h6mHWiVWgMTptSNs2qgamIBNVRZiqFWkRQY/YBuGktoDTXcSC0ESJtVccp61wLTXB2ReXhHiKAuKiyYRSsAGUQYjlUdDipHA9lWVC4BjGESVEkdatovF0+KYh7zwFCfYbOvUnWHRRhKqD+2gY1RI5EDGomqERZWNhNbSmQ22jwMmHY/yFTgHmNyJw6tYlZ6HCRTGjcITJBaJdisCg6JXsa6Fjfki63BYGjYrt8EoeaiUAbvWSSNV4hYtMh4wFQPgq9RlsRV5ZFJF5guSH2lSfqr6JIKjS1QIPwEYm0g+vXCcGVyeJILkLbXXOUPgKnTdWSUaodKPUFvA/9pTHoLwrvIJtpmDc7i0zdJNMUYJ3RphcQZ4dqMYHhI1Zw/+c6e7A52XMZFntcdOIqsn6WCUm7sPaLgmM3ZlLrfOGAWKETDkgjG3qVD5MOInErp7yKjKGJoD6UBR292lFWBY7PAqc+Y7EFYPj6of65DayrQQASgwaCluG0Jd5EUB1lomMrv3TeE4TzxlCjOuRFIQBvikEb2BxawP6xDcJslrBBrBzKeNOxHpzLVkCCjtUqs8CA5L0BbpMYGBgPWSjCgUH9CUMduGpipgLdVLcCkOpWofIItQ1StieEzidkDgyu24kGDXdALie8qSH0dOhEV18dVvWUTUjDgEfFoA05BJPkw1x12W6i03mQutVf0DwhNZb9gF7U4Tgk3jHLlFIDZ9lpBFCWy0cYhxCM2bMzRyaC2sYan7YqisCScbkfs6SBJ1AyhP6DDB/KhpdQkD0nhMKgkcM3nCkA4tb5AM1jMNZUQcu0opjsWacCZaGuLRvoRBAJ4ElGFNHx1Iz34uwM4kHHIVwLVIgcifh0winEB682JsLhwyrArXpuJwzOPlwABK+DL/HQ58pNw4J8MJPBgnpAVj6E6tTN+zRuRmVKCLYYmqq1sQJ1zfUlDNoUZABcfPQpU3Qfohcgwh+VJKJCBc6oYr5ob4Cs4RVcROvXEk0jJFzP4mBmFYJ7p6yqptAimDVtWjly0T7lnIMOKyfus39ZOHN2mTppcv/fBwRYC/q79WADEvHodFHo64rm5gsMC3cXRcYIl7yP7AbOumwwqIEykUyomUDr2O9VlGneg/nCGD0e7N0SgRMnHfg/f1MvDFuQNr4iTE6cQaIw1VFmd+gaINtbRqlyoPe/BAaTjDmq6svKkZrBgjGtQuaACpRJfbNPs9ds5tRp5eglS8vrnnx6OWHpgWXGlKnlERqUe7dsLlfeu7JcuXZVueb+NWXLrl1l96OP0oGahokKutpxIHD0PWtbEjiy5qN2yjAHQhtUtjYol0zSyWTE4sn/ywHIfc4s6cCDhkhsk8imYcF5KOc0KjkzFaMpLELwaRLA7Xb1HbQRMvdZLDdsU6zvpANoQXgFEs0UJsSFIS9FIIPKsegqljkw0UURNBKo6ZzQirYSWTdY6JSZiqQp5LCIzgI/c/iTy8uPfWpZPHteqBOO+o/SZcrORx8p67duKZfds7JctvaOsuLB+8qD27fx4sDCMXD8Vp6h8UzrhHHbQC87CClXSREchuPi2lIxnEB4hUKNJYHTljB8faNJhNAezUwFqEPTNSkvCqB3tg5tYnHYhqrhBSGKmgBkziUIbQIBROSlaMQqaoc6ZM1eMZEBCQ1kcdiYKogZqey4FVW7cUDIqEWBS6FlCxeXXz3l7HLKAU/is8J4wOUI7oPufmhTueLuO8tFd91arr5/bdlFCwaHeOlo2U/bbeaWeJGgusSRyZxvvGVmZOQJZD5NxchjkCeUGwHBBNuAcjwy0TFy861oOiDvu3f2G/9AOmgBqUQTFwTAQnOPsSeNvyg0y4NkPnXHtEnnmMUw0BHlhleQ3RgLwrIuckB1ySBtEhn7XjB9RnnJ0SeWVxx7alk4a06ZhmuPPQAWxSN0dtj1yCPl3q10WUVnjh+uXVluWn9v2bxzO1/34v63VUP3XRPuGCGxK9TPdCpQFvobINGYG7TuWcL2J8j93xsjVCJoPXcCi0MD3BUiZB4zSjN3yAtgYmcJZCZwH8Bn0gHv/w10hzoNG5A5kBfFoDEAiXlRSEaCcwO6utSAsCAAVF5FBhPRiNisPhSsvfqiTdPpLHD04n3KG55yVjl5v0PKzGnTncfjA84au+meYsfu3eW+rQ+Vq9bdVS5ZfWe5bcN9vDh20cp4hOxtR9qulnhRMboNxkNGqa5pW9q+fwZlSGjmqPdgN6dj0Wk8d26sS7xmIplQM0LWNQsw3qLoL+qaNVt3QfABw3xEyDwvCn0pVNLMJnPIKFUO5ApnPjwN1iwEkYxTAgtO57lkjCl0eTSHJv/L6Kzwcjor7DN3HuueaGBx4J4CC2TdQ5vL1etWlR+subNcv/7usm3nzrKLzh24JwnQOlt1R7Sh6tq4qECZqdTYWuaNJKY+5r16FdmDB5OhzjRmEIHTrEscmVo4bVnmLa3gdrk2jHumAFKb2oIA2OIckqBmxZ5ePhFcZUSitKkGle1VPkxTNYcmsdhvg5oUwvEoFY9Qf4nOCniCNH3qtObybwh0OhbIrkd2l010A/6DtXeWy++5q9xIl1UbdzwsN+S08eC4ijex1VK6STllvQkvmRJ1kKz5AOhz3pTzvY8fB29ThHEycdjflmbdOByZWjitGRD0BG6Trw9h3LMF0dqqSfu//9epz2PlQ5OdwbQu4OCIRBCzcs2s80PW4SpXDCpPCA1k0dW4ywERalEsrbnTp5efO/op5RdOOK0snj1XDBMA3zzTVMWZr1e/xwssgHtwQ37vqvLd1beWGx64p2zZtVOftWv9LQHavsfsc3k1uCNZnUDo08l0Vpw5ZUqZR/dQc6dOp0X5WNm46+Gyne6Fdj/6CN/38KMBjhcicgzTsCCsiY4DTmhdaELUycuhKSRr1t6CAMZcFCqiBbogKuVMIUKubM9ncKZA6n1U9gOkkqTKARZRuM0BRp54cVE0mSXmEkA4EkD4jKlTyzGLl/JZAU+QZuGskOL3gIg7du8ql9PR/Mf3rC4n7XdwOXbv/cq8GbP4ES0m1PhRxka9Icdl1VpaHJ9dcWW58M6by/ZHd5G1RW/VFSHzmvkDUfAhA2xTJ08pe8+aU5629ODytP2WlcMWLqYFMasWLztpMdy9bVNZsf6e8oO77yo3bVhXdtBZDX2Rhij2IYno7eCj9sY1V2F0mwAi8hI4o0iNA/nhQeZAd1Hs/4e6IEZUVqeUIFfCOY8+UwAqaOZXcXMxidGboGMuCgLscQBqJsJkquTes+aWFx95Qnnl8aeWBTQRpk7wCdJumhj3bd1cPnHDFeVfb7+xbKFr/ml0NF06Z245aelB5ekHH1qOWbJfWYB3r2mSTaG4sXZ7DpyJcPn0wau/V754x428WAR5oQNCWpfImMgbc8KrPzL03WJq/wXLji4vXH5sWThzLrUH77oP64394s3Grbt2lesfuLt86pZryooN95ZdtHCHkyrMGNNxagbnkwQfjv2yY8golZeOuxodBgsj7kDLN11bEIpeAzlFZrPN6RjU+ZIpsh1QQplNQefAErib0aZzyPULw6di6BgSwWdOobPCkn3KW055dnnq/k+ie4Wp3mtMPExnhUtX384T845ND/Lj1LozVAc34FhY+8+ZV07Y58ByBi2OE2mR7DVjpiwOcsqLeaLAorh9w/3ll77+CZ6QrdK6/5i47lKBsrbkidBrKjkt22tReetJZ5WT9jmoTKWFbcXGAR4KbHh4a/nEzVeXr626mS7pdgzaBu6GUQU3KuzvpnBLvEhQXeIty7ylFTIvm663ICQTYcrc55z+HldVdfCVt8SLDF8hfKiCm2j25hh07BusRiRrHOB9OA74AUAs3PSZhoXGkc/BvcIxTyn/9ZkvKIcvWVqm0SRtEcYGLl8uvPWG8nuXXFju2bKZOO1RC0s2ia/xcYmzccf2csuGB8pFd91SLrz9hrJ200Y+6s6bPlMWoK/nBIEyM+iS7lsrV5TNO3fgHld33CK57iDoPpwPPoqAcrXfDt5rYXn3Gc8rxy3ZnxeyaCcGTKjZ06bTWfGAMoli3vjgOn4AgCC+dX6MWM31Ho5TRXMnn6YmCIFOmq5GyppbI5I1S+su0WXugTpPmXcOLYhsVNp2Lrl5JUHMTcZp2lwgyUshxCoGhPhi98j1G9bXD4WCdNPpyHccXeP/zjMuKC866qQyn47YgyPEOMDlwqVrbuc31nC0tspZFjmAMtvpOvs2OrJfvOrW8t27bi13kIwbUtywyhGZ/iZYF9zQfv3Om8r6h7dxv/l9WQ1MJ0IL3ZxxCbV45qzyzlOeU45esu+ELxd7wFlx2fwlZcP2reXOzRv4oBBGQcWsM25qEXxXcL/ECWKZSCbUjCC6wBUSqhmZ0z4wTn4MIPOCUOZCELi8O/WZUf0c51S5flJQdwrJHM2HdfRqbRZeMew0ElthUTsO+A/TYdIvoBvdV9JZ4Z1PP58Gfz/+gJ6PMVGg0665d1W5/O5V5RFrHcA7rJKkzcjA5QVuSnEfcPOD95XvrLqtXLTyJ2XlxvWk313mTquLo3Mqd8BHPy687YZyP00+9FmFFJFyVtoJLaQIeMT8i8edVp550OET+ijKeMAbmcvp0uuadWvLgztksQ76mHjQqD1WzemcIXNOE0dmKiWNA8LaPG4cyPVtCwIgW6i+RGga5RWNii6aO5dQ8hJZM6uo07WMUuVArvyQ45Op08uxe+9bfhdnhaNP4hvnPT0reMiCWF0uv2eVHgUrVLIscwXtG23E4sDl1ya67Ll5w33le3RP8u2VN5e7Nj7Ai+bQhXuLfwdYEF+hS7AH+Awx6DEVxhgnEnGzfPyifctbnnIWX/I8EcAeZlF/46nd5dRH/I479Lm/ieb+cRoBE9INlU7X4SqbaqBrFum5ZgegY70GjedMsuhH0ATs7TQsODvQ0znkN14pHHlDyYIrGohKjTO4sPNB3RzHtfarjz+l/OUFryhnHHQoD7xr+08J7FskaROSpstcmXEACwr1xcLYTjfqax7aWP6F7k9+53tfVo/RsDA5KKC6qI0M903nLjuyzKYJ/EQCT9NOoRvzg+bupRrasxsTBlFoWOsEzgLQPyp2YYUZHAEF5NUsJgCB8BiMhcl4nBZA/sMirvIsIMle6hMdGTaBqir5wI5acE20gSxaIoDIW+o13BaeuM9+5e9e+Oryq2ecV5bMmVcmT+D6GFHwxGj7rp2iGAXbnXwoDwi9RjqoxaTEEDkGBGedqsZRlW9Kx8VwDOQvArx1jwqULZo5s5y23yFjni1xprpo1c3lrd/6TDn3s39dXvylj5S/vPq75YFtD6nHEIiGp2ln7b9cFIpcr/5MH9YfYFc2iLXyGqLmoSXVxgKcRSVqSQ0I0IwMHhMCz5rBoiCEEFzYVV4FGxBnyDwCXHS1UQIimSs4YrANcRzdIP7+OS8uJ+x74IQvjzAR76Wbwb+8/Dvl6nvXUH3G2UkGuedF0ZDrnDkwUEwA1uMBrGmJwIm4HDhw7oKyYObod+PxlOwbK1eUP6MFgHfIt+/aRQtha/mXO24sf3zld+jmuV6uDYGzBJ5YBfB8GfpDw9psSoZmzlyA4WpDlq2KEWqM26gzhR1Gw6Jwe7NiOs+MQ1DCmRkcd4Z86QSIqmMAnJo7FtzruI4iv+GUZ5RlC5fwDep4QLmtdB1/0R0ryq997dPlUzddVbbt3K7W0Yid7ypinDZ5KRoXXbMAPCgt6PiwQG4gmJsQuImUoMTB8xbwu+mjsJHuT/55xZXlQcqxOOqZ7OFHdpWr7l9Di+UndDYdHjgBnKGX7bVQx4R3KmDqOWR3H8ZUFo7WWHReNq46RuNNS5Kqg8XUbh8KXhSuzmhvuK7AovALA43Jla+FG9hg5sArlYRiy1Z99KVWIbJ6sanRABJ1vBd6nX7QcloM4z81weURnvD8f5d8rfzWt75Yrnvg3rJzt3wMYTRglS02H0TbpJqqoxdvRkRqBtUxvDwRUAXqn4eFdQKLlGAM8dQt3cYa4Lly84Nl3bYt0kbWiQUNxKXUZfeuspvmDJyB9qL4AJdtncSIiwIvrZtoDMbZ6HycIYYmgpezmy7xConakFs0uYxoZIWEjEECjybHReC0JQmqMxMJwQ1cFEhNEoGBuuCzRKOPfQIshh+uvq28g84Kn15xTdm6e6cN1HhlM+IAyGk29KLam5tIqGvuS7un2BN4d8jMR8eAZcxLSXLAfYzVLYeixuFTuWMBT7HGQl4UYScQVee0BGFqaj6Uxy4TXQB8VDTJFNGZx46DUjuExEUxuHzizAXhsq7yLKhfTczoRZHC5ZPKwQeENtRC6odEICanGAeo930PbSp/cem3yru+9Xl+P0DaJ1FEGhtstyR76422qVWwTGtrdoDIYARHA558xvRACMkELPTGRHQP4V1uUQ6AI/whdMmDm+Nahl+S8aXWk5fsN3JRoY8f2kGXnXBWQBfmDCEwEPgIc+i1YSw0+0CizHRcl+YRZZ1nhJHLOi4KzT1UF03Cmg6S6kwpQlsUKlAGH2FmHI3mPCbwOaT3fvfL5WPXX14e3P4w7VcLISN57ONaA5dy+2vtAYSgx6TXOHjw91DrSHtGnYaYKrEIMV8RFU1TOfmsemhja3sHi2fPKS859MllLh5V88QX3+mTp5TDFiwuLzj0WH502wMW66otG5WNge7+XauQOZHBgniYTiWECyEDhwCFSBmiixa0g+cDDyQtgLAICFmXV7zsXZsjYk28SFAdMmcYLAqARGEq0MZHRxQGVzhxTKDO67Y8VHbQJZPFcpj45Yr4SRs4kcxARLnrMc0BtXtV1U0UXN6mj5V1GrZnn8doDO+iewTcOI/C9MlTy38+8sTyuuNP4xtkfMRkEZ0xnnXA8vKuU84t+86dP/IMgc93XXffGqkH718NQOKDM4eKvgiXIY3pWBBmRdWnoXEfnnXKOWtU88oE8j/mHPKiKOnaENV0VdV4TodMY5rI1ATHsT/OIkzX/KVW2Zl4VnWAAbChVP/QytQHA6g5tJtBGlKF4pBps3Ypl0yJQiQ1jgE2e59cXw6Rakc+VQN3PEK9/oF7SE5lHeZMm1FeduRTyt+c94ry9899Zfno836h/M4Z55flC5dQ//UXA4D7sUvvvYtl3WMVOEs1YwwWBdfXIetYYCW3x/TMlZkPpc2B0VxIcAGQ+T3Lb7vm0h7pLKERQhAR5SMKDZH1IT4yeZD4raLJXAtnFtH79gEf78dnBdrS0h8beTfd3faUqvOZc4M4kTZkYBIMJlUnTtXgSdHX77iJP0M1FnAWwDv8OCMsmjV73E8G48nTjfffXW7ZeL/tDBm3ydWP6+rrSxA/jzhOFaYZmgwxtJDBLjs+EXrJxCZXkhdAOlPw5ZOfQuQeKq97Nw0LSFSjYm0y745NnOiiaNBwimaUS55gnBAkXi4z0Rjqh4xicCZilTR+4wDaJD0mvIIjcAFVTADcb7KDgKDRkFJD4ZXhvYUr160uF6++bdxFgQWAhVE/3zMWNtJ92aduvpofXzN014DsvimcSZDbA6oqs6iPMxGEWXHOtdXNiSBELGrwdgQwtQjDe0p14IFMi2Jydm/xHGpoAgT2cTqGsKYTqU4gv1ers6u82a1HHicQkmJMJAp8mp8rYaIIrUrNR+pLHCpVN7fmNyFkd66/UyKevAQQeB+PlW27d5W/vfaScsuG+/nzVD8tHt61q3zulmv4a6X4JLDujG2jMFjUqH/SMfc6lpU7EWCTW7dstgSgvIpaGCZTVbtmNsNZZ0EE3GV8tmAqZ46MVEYD1SIBrDOD8/DOPbuBdFAH/55fArnUPhsMyISRy42O03ZBAmTPXTbkY8BcO87d8vB0BhJxqbh686byZ1d8u6ze9CCfNR4PEHX7I7vKV++8sXzu9uvK9l10dqBQiMYbOkB3jaw74RN67eKyIiqclzPEcErSyQ3a7DbQEdI/boeYXRSq5ksnbEIZaOCwVAiqifqJKJxyFpvSMs9Npaid/3jA9Y29OD5aVbjOVahcwlVD5YAIra5qoAySMNVNEL36D3QqBi+yox7XP7CuvPeHF5Zb8J7MHp4pEA/vOXz8xivKB6/7Icl4f0MRQpHW7bxX31A5pvLX4GSITL2uKtH2yoHKhTEC9wZAjfQaXjIBFrhOvE6n6cIwuDIMju+aByG5CFQZHD2aXSSkRno1G4Drkeu3B2gldd8Bo3QexOnV7pNUiNn4SG3otcn1uAYOGgL64tGy4sH7y+9d8pXyebrk2YTfgfJj2QFi4CPrN66/p7z/sm+Wf15xVdm6s31KOO+li1z/XAaUNtMyH0ZWtwFYZwZfrpVoVSBB1aYiiZ8ycVEWxMQpZKGM7qJIwAC5IjVQ0glXkwqOM+Td394EGjRoQsD3nlE2FuD60oaPdeDnZfrb7rL7EX33AokKFokEfJ1y5tSpZeaUaWUWtqmygUMv306TEqNutMeCXe5xEsvVNhhIDB5SqOlUwAJYuXlj+V9Xf7+8/VufKd+4c8XIj6EjPn5Y4E8uv6i867tfLN9de0fZSjfmGtqBiA6atdHVDRLXtamUOwXQ4aaBwHbViVgTgRdJbuFEyNz7T1r83l82Kh1Pqbv+MtE9ceh9biXo2NU9uVYexfRk2/uYoXm0D2pmn1LufMcfqjQEPtn6C5/5cLmBLhPqouaiGgC/8n3yfgeW/ectdHtTkA8G7Nb168qKjQ/4nqxB+GnMKfseWF523CntEaUFkvL3btlUPnDlxXSExZMYNVImPSb8ujf8Duc9bN21s7zxwo+VFevpZljrkH9epfdEKOjYPXLJqA2TJ5cLnnR0edfp53a/Wop7grs2Plje+K1Pls31rKDl/U8UhCrogLVZQdzZuS7enzBoA7v4Qv05YzonqKkmXiSoQJmzMvSfLgoBeN0FPjHEyyfNK5iLsomywusmicDPu4oWXYxWbkIY/RENHCkvu2d1+dKt15cvpg26L992A/+/h8f4w28OTOQNv/3mLihnP+mo8pzlR5dzsC2r21HlbNpOO/BQOovUjz1oFAs2wVaM48ZH2gR3XOXymdcMZbsPTBzgx7844gsyms5ZZcBo04xAFjNCdEQxaEMsAodYjkWnCc4VokSK8LILddRMrSzRPFEirwYlbe001Btrj+FZQypqMZmEPRB6XHWcOTuJYY/OdU8hoSnV+mAg+LdUKfcbjozYbDcs+522NyNxcMMRbtQGRyquEGFPLp/YL7gRAfe6tgNBolLEtSFmewCU4GBuTITzxggkjl1FM49Gp00hMglhjqqBfcxRlQQMhUB0OXycxWaEQJu8RJ1LJgwWCRdEgFxOh4PtVXCiCqIFmtTErnUMyG8n+bpAymX5COV8eEFkT7hIpr7ONgG48IbuZOmCCmt5lMl1Y5Z2AB40SlIpEccBe1ISdtEpyn4i1ooqYmFemhxQFYQ8BkBu08DOfw5sF00qmYqqj+lwU01EFEhARBI0wllzZtgiaKrhwiCEBkmgVkS5CgGDutHWu9EeD3VSsKsJirYThjcxSBHGlAEv9eRsUKqD7KMxJlLUIQ291CvFGEyggYPLkGT3kciOUjiOCW3BTQlVtPYhv0+hkAN2KCBRBm3IcHYWZVlwWVCGSqysFvKhLIevXC+ZatoAbhY1mk55Q5wuwGBR8J9Cg8R4cvlh3BrQMkFnACaAeqaUelAZLRZCKepg2KAgI9laxFwyhgnjQRwRtoZmTKQ8ylQxBZCznxJFmFDsTq0OOsgyBhOFvzRBcR+OL/+Mw8gvBSRhrQ+bD28+mMLrav2txpQ5xrwSrqdx8WKq9grmkhgPl0yqFoE23wFqbHDR0ci8AAZg90EQ3ZA5OYEtydQ6f4LohVcuJvpzO+kN0KASUkrlscFelkgZCdf42Ig+uYRdEjpDrw29+kLTa66H+XQd2cBSmwXE5aUWmk2DKSIWQ6o/MGiDp8nEIH+oeyYGG5o1S7ogiIBrVkmtn+0CGUO71VUWgfKiGFw+xRBGgo4S+WvcPEwUYU8WhV1vW5nMMWQ0aI4DfFRy7fSn++qbivRBThPyGwH8sgUeEU/DRjJvzCcZZ58p8sPLdcMPLXuOGKYjGT98PHXyJNaNh1Z/SMJ8d7COXvlMIZkKfCrhl6wPVTdRiULGJOp4TFSGLXBGi8RF2SgeTTSDC/9YmbToPW8xaucEylr3CGmc4DqPJcf5A4DBWVcddb6B/GO8mplQEyeqjdB2J8Kq33g/5z3gfYhXffpvy/UP3EsNr4uTymkMyRoH+KlQAmtUL+1RmfIXHX58+b2zX8Q/lJaBBXTHhgfKKz//Ef7nJxW5DTe+6b9x3gPeOPzXW6/jN8d4cXbqV9Gre0b2AVu2YEk586DDeKFkoA13blxfXs+/QC5t4AgcB9NH4klYkQc/8KH79Ck6su2NdKrWjATnneos7uPoWHSaEdyLkxa+WxZE2x+0Jlna1MFYMxJM6jyC7evCwPjGAyrERQKoH2V4Iwy/L7riV97Luh620YL4xc//fblm3d1lx6O7a2kXD6ISr/N1I/QmGhYD3sj6T0c8ufzOMy+YwILYQZoWR0IKH2tBAPh0qjtyPeFAXUb9X722IP5ZfpKfYK1wbWhdpAJloyd8MDLQnx69Ph9zzgCky5wzSwDVZU4bVUm6GQceAQmQNatpU0vKmUgiKmfgSNy5fMoIJzpUgLYczzzMIMAve59+wCHlzy/4WdX0gUn6rmc8vzz30KP4G2ESglIXD3vlPStnODvgL5sAvM02f/qs8jO0GF514ull2gR+BkfixTgTBV8O/RtuE/knk/j5+0HHOHAXmY9kbdSJNLWkMKoD713nQEXu8wF0hzJrFKQTrUJjcNqUsmlWDUi1F1QhGUGFwGkzrnDcTyjXzoDBolD/GDYEpa01GNe5+Mcnp+53UPmT5760fOCFryznLD+GbaOAiXT8vgeU9z3nxeWvX/CKcj4tDPzqdj4aCWg/uvvUrQwMED6qsHDGrPLSo08sf0P7/61nPK8ctmjvEfEqagsqhEl/D/fz7xVWXc60TZaIQc0ElSgL93pNbSkQZkbHv2KwSJRGLZjXiMypU5voBLpkerNz0VMHZzrAIWtEJUIgIrrJISuOUuczuHziEIMgpsERbPa0aeVkWgivoKPx0w46tOw1cyZN9on/4xMAlx3b6Br42ntXl09e96PyozUr+bM5/ge4JB6lLjAWQf3HJ89ZdlT52SefUo5YtA//6nXvUtADlxv4LNSrvvAP8t92VF8FbiW9bnzTfxfFv0OgDfhfF2/4+if5HoKr3hIvElSXOLLWU0SaWlLXjSI2H6D2U8XgcorNWZc0yjHhWd8Sq++kBf9dFkSMT0ReIiuaj7cDKoWsOXAD08TJEwkNtIoq8D/c8P+jT97/oPJKXgjL9R8cxrJ7CiwA/HbpjfetLZ+49kflB6vv4P/Og/+ZVlEHAJdm+KeE5yw7srz0+FPLkxYs5v81MfYZoQH/7OT7K28pv/GtL/A31gAryYKwm97873dB4GMtP1hzW/nv37+wbNOvn7aqW2vi/FDkOdNGTgyDMuogmZRRSZD6fbgw8iKQpJUPzOw1bQvCEkAdxuImm9V0mQMTutHWxmDC4/eBTj3gSeXnTzytPO2QQ8tcOjpPdBJOFDj94ptf19y9qnzuxivLd1bexmeQXbRgZtDZZ/b0Gfx7RC89/uRy+JJ9+dFm70ZvLGzcvq384XcvLF+9YwX/nwfAYlioSf9uFwQmB74v8SeXfrN8a/VtZfdj2oZaec5EdiJBdYkjs8mumbkA7vGU/0QvMj5gdvo/6LhI8iF70CjJbUBGC+JNvCBYYaVMcDqAiLwUjZjOFeBdNEoNpK5wvKIuDDQMlyGn0c3y6095Zjlr+VE8Cf9PAOeG6+5ZVT764x/wv9x9zrKjy6tOOr0cRGeEiTyjz8Biw+L6xPWXlT+/7Dv8YUEGh5J4PupNb3m3Sn2Me4P5bwDsEW34zIqrygev/SFfOjG0DVb/JEh3mXI4hwj54/zImhtJOuz28fJm5HniwSyPEVFXw+rUNOrfuGZhQUhWE0PbFwnyUqjkM1cxkShtKkY+M+AJxxw6Gj957/3La04+s5xxyGFl/iz597Z7AkwaPgpTi/BL4Ht6RsE9Bq6RN27bWpbMnbdHl0YVmDS4HLvp/rvLJ6+/vFy86rayhS7HtHNqVhNNx14QuGS56p67yhb+uuaIhUGBYkQBmC9h3LmFiaPAfh7ctqVcRgeJK9atcu8/qK+fUFZ8DF3iyPQwyGnKbMWYjxkEflGw1BmnfObQxImZU7bgv+mC8DswsXqZRMh+HR8fS3OvA+rZAtoD91pY3vWM88u5hx9X5szAzbIdFyYETEL8tMrqjQ+WL914ddm8fXt58fFPLUfsve/jmtRYWPkoNB7qDfuKB+4pn6aF8D26LwEP30LjmPgOBeUWXqbYWAtiG92Mv+krHy8/efB+PUpLYYSzMIrhJNAstafXvqzDnh59FB+F1zaQGbW1GrQkcGTNR+2UoeptFySonCe9ZJLiAgF795dPFbm+zJIOPGiIBI36V82kebog7FjMFi1i5bRQ4sjUwmnMzMjgiI7XBYFHoO8/7yXlRcc9hd9k2xNgcuBXqe/c8ED54g1Xly/85Mflfjq6owMX0sI679Bj+InQ0XvvV2ZOw8KQrn8iIWeVHfzk6lO0EH609i6awLvsO8qDxdgZICQrxlgQiP+6L3203PTAfTTReLgIEmXcS49GSIx8IpMMyIsstQAOknFKcEIr2soEHb3aqAhXSREcBnWeyMKWIqFQY0mIC8IZRxYYyQEi8hI5Z6miuFQ6ZvF+5bOvfmtZOGuOaicG/FrE3Zs2ls/ccEX5+LWXlQfo5hWTs+4PAj6jg/cMnrv86PLqk5/ON8Z4hPtEAJ22mxbjdfetpf1fWi7SG/Le2SUsCukIX03Gire0/32Z0RYE/rWvHq0ZUnjMReH2zVKuG5KkAw8aInlCccYpYcAt8SJBdYkjk1FpvGVmZOT6mk9TMfIYTHRRU3wMrRx1HjFRjkOirRDWdJkDxORFm1q8A86ZnhMOX7KE/5PlRIDJhseYd9EZ4c8v+UZ56Sf/uvzVFReXdXRWsEsTF383ne4f2P5w+czN15RXfebD5fe++YVy3brVZefuXRzr8QBnpYd37yyXrbq9vPPrnym/+C//WL5220/4IyI1Zo6NMvbBC2TEzSO6jgb7UTkuDxkQIbzxBRA3N1cX4VWooImQ6jsJ9fM6El2N1d+3QSTnMfRhqJ8pVaBMRq9xbMJgVD2B/RoVEXPZ6cYF+aJ9oYhWyr5TLb+8hrxCuLarUs5Dg+QVoQrbpfoIU50C/+E/L9YMVH47TcLb199f/vS7Xyuv/fSHeSGsfWgz/0gWf2iPG6h7tIQ46XfufqTc//DW8smbripv+MI/lvdd9KVy43138ySWa/LxgetofFDwKrok+q/f/Fx5+1c/Vb52+wq+Ycb9Sw6TF8UAXF/FhKoAJ9l67jJnhhZRN72Upk1VbaF6nw6yEty3kWVEp7/kqyaF+gUuWa8NxvyJEVq3E+trX9TLBK2ZMgWVCzri7mQEiNGfKVoKmCE2SF4KSFCIxnboMm5ACzAm8LjyDrqZ/MD3v1Fe9am/Kf/7yu+VWzeu54WAj4KMiuLrJ/ss/JP4927ZXD5xw1Xl1Z/9SPm9b3+xXHvPav406Vh4mC6FfkRnhN/+xmfLm7/8T+Urt95UHqQF5v/n2qCzM7rmNCDjwbn69tWtTSja4KAioxVQldoJaIUceZsPkBd1b5FDY9psZqN4sElEQwvXDLENLeNUu9t6HQHESFnsS2bOzrmjHl4nv/4NaIFgNi67ig1IHC/JFDgVi6SlvVFEPrIz7QJH7zU0+V/1qQ+Vv7r8u2X15o38K9bxiDAIyhmfdMwkAoqhw3fSZdcDNKE/fdOPyxvokufyNbe3mAm4FPuXm64ub/3XT5Sv3nZT2bDjYb5X0YhuH4gfY2Qul04OapYaTxDsigQDTmko2v+OiKm4gIq8NQ7IomDRMF6bagVMSwL6HtfsuHfia3c22izwiVRJREPro2YwCUbaNCMgAAuMQX3ZHhy8u5R1dr6HCA7jIFe+QQ2UiRQdTRfVmQ6w45FdZQP+M6ZOwuGA4JXb4FhyZ7BuEp998K+m8HOMo/FY2UT7x8cu+PIKZTWmhTaB4GVCbwKFy7RkHgW44YFtzz3vgicL66JBGKVBrdx0wcjoLYqgIY55z+8nTZ1WFs+aXZYvWFQOo23p7NllzrRpZeqk3vtCLYrsQjll/QkPoW4C8/EYm5KiM2O0TXIPwWZ1QEZG3FPwhQTzIASOhkhjgGYXKRgVZqzZmEBxvoRzGEwyhrZATbVFzVOkyBsbD/Dsdn7ivNdav5oRz3V+PIuiOraiEHJh4qqyRYGX6gzKJWtGWUwoIHw0pIcxyRdMn1mevt/y8rtnnFf+9nk/Xz71oteVD5//8+VDtH38ha8r//C8XyjvOfP88rwnHVX2mTObF05sg4dyzfyiCJ5iYLDojGEMFIM5ozRoyUfuIViLow+HErCgiwJwJSHmBoGLTg3gIomgXHRmmSBwVI1fR60rmtECS2Zchcq10iYyFd24UH+eMBBcLE6VA5B4ANIBccxFMR44aBUQy0QC9QUpWjgVaP82obDJi7bGAcnAVUFAG339JL5soij8U51n7r+s/NE5Ly7ve9YLyvnLjy2HLlzC/7wRH8rEP17Bv+Y6eP7CcvYhR5Z3nXZu+fNn/2x54fJjynxaRPL9CgCC1F/CC8cLE9TaIC/eOMWK1ykhYyJqgMUWkBHqT8h2wN1DwKhyBfO8KJB0HR0aF0m5d+vtb09BMUKI3EAVkbGICcp2Mah5XARvX0j3hZSluu+a5foQ/IAA9W5kfMCv+krOmpHFycAOwgQdZ1WZJQfs7YB0mOivOfaU8u6znl9O3OdAfoMV7/EML4uo20kHGz41cOiCxeVXTzm7/NrJzyxL58yD1e18iME9kfKg9osCmzOyGJwJ6lbhx8SfuwTEq4ZzTYbPYciAV3VWNC523hgqBHWTJorhl4xQ3xgjaFgQFusKQlvQjYfmbLVAUFVzljpEdCwawqIgceJnCjqLm2sOKglXJ5n4QMo6TD44iLv0khKRBCZoO1NALIZfOeXZ5TVPPq0smDmruwhGAYtjFt1TnLf86PLbdMbA91r4QMXAfqQNUgfdL2Woh/VTyJCqA0EydVBwO52KeaoyxgR/fMnEDh5qjMj3FJY5QdD6TwRwlTgN/l5+vMgxmLs2dO0CGXAWx4DvDZKU6BgQxg4w7Ms9BIr7iiJjUQVVDxEN4WykomlGcEB2LQp8GvnlRz+lXECXPb3vkE8UuMk+cemB5ddOegbfg/j9AY2qZAoItGU10Aakg+BJlEalTVSD3UPU6WMuKnBmBiwK8yCIzGae9SyJTjKCCjBXQbMx6+8gsclbi+b7CUBWuIMjLGrdajslAZzjWCC30CaVrRbKkfEeRDAMOj/zCUBKSP196colpLAaPuyXRKmv+HDG0pCLrgHlMFlOpkn88mNP/qkWQwXuQc455KhywbJj+P9h8y55tyK0qre6tFEnnaolSz4o7NoOyfdFkxxIKQsCkBLxTMIBXFEVcabIb94BWWr7V4EytRgRPg6oUq0jxgDtMAwkx4+8AmJu3tgQx+CuxCYZuOpkv6pT5AEZLJIxwJ5cyFjiOnZqAmL/O4OHqoNrBQK4Os6eOr288rhTy4IZs1Xz0wNnnJ896sSyz5y5qiG4OrQqqJKywaKwrBnNR+0G1x4AY+DHYXIelMEgEYXGtM5sl1BemYBwwZr5HoDOC+HM0DtTSHy3B4hotDDdubMzMh8b0iaUYcEVD0Slxhlc2Pmgbo6PhvNhMXNkJtQkgXSqtkeyTpe5Mk5wn3DskqXl2MX77dE9w0SwZM5e5RkHLC9TJuf3WSJzNWLIyHd8YKBNMi2jbpyp3MOk2b/9+sdwowOf0EzSRY6X07A4KX1K1vk4HWvV30Aivon2suNOLn/8wlfyE4gM3ETd+sC95fkf/UDZvONh1QryR7lHfR3VoPs3nQo46v3F819ennvE8XzDl4EPE374sovLH196kX59svk0dxU0k5oQMXWTPfz+bn37+1T6jwtMvjs3rC8fu/5H5ZK1d/BHYp669KDy88efyk+iRn0XHuN87X1ry69f9IWyZffoH3MDRKecshax6VrWHDjTgOoicGMAsB8foQZHqcThknXE21lCkD0iYFUPcxy7BGMCR9DBmYIQSoFQnLzbYZsiMJkPXrikHDBvL/5hNOk+KROrRSRzBe8j2P7fBBbD+y75Svn6ypvLxu3b+Vt2P7xnZfn9H3ytXHXvKplnHeCMc/BeC8teM2YQcz7j9RnZ9WTQkMt4o9qQmVvy7y9ZgBwxkHHCyJmENSa4Syc1sEiJb3/kInCKxPR9iB+lzq93uRS426EV04OBcQhG+sBRDd/k+/uXvK686alnlUPmL+TfhqpH97SHCKe2ReF1qU3/0fGx637E3+rjT//yn/wM59otm8rHbris7CD9KOCNvP3nzCuTHkO/Skdx11jCgg5p5bTRSyZx1Xk0LgtH/CukBP3pPAHCgoAhrGIW3XUdD6CzA8zlTBHvKcRPzCIDTSShqceGuUJI5TqLwi8MtMdOiijH5X0AUY8F/BzOskVLytvPfE752EtfX9508jPK8vmLaGHQGQPhyEdiCJHOHw6AeTodD3vw+Y+L76+5nb/BGOYQAR+GvIEufTdvf3hgq8CZeMGMOcWtB05YdJx1LFfIBxrdiNcXb5y6d/eGYxIxedSbQlZx5AMfqaiBCZLsJxBttDfdxJFLA9wRaVFkwDvVOHD8u9loHQJnBPxc5UELFpW3n/Gc8uGXvKa87sTTy17153EsAAkhGLgokJokAiPX7T8qsBgq8sTHd7PrBzRHoXcPV5HLxfBEBg6aV9SjFGfwjw5cX9r4DJEXRW8VBx1E4mEgVYyXTw7e1dmzWx/Ny4q6gr1FMbh84swVIhH1xyBdf/cq+frpBIH/2nnIgiXlbWeeWz7/yjeXt9Cl1EF7zeePJ8iQcnDeEFXqh0QgJqf4fwRPXXpwuHGu/Y0DxjI6kCyYNVsOHh2gP/D7TzKvFCxIb7FkouMGf6ZQR7wko011HtXoMPoegtBbGBlhNyrY5ZOzmo/T7REGxYiMU7+4KDT3IB1+tgbfc/jx2pX8P6knCgzsLLruXb5o7/LLZ5xT/u7FryuvP+nMcuC8BXwmGX2sc+gMyH9kvOqEp9F9wF789LAC/YTvtf/cMU/tPkmswP3FvVs32ZyzbhmnfwZTIPBoZKZTos2M5gNpytSnP4W/3Q6CjZuSVnE4lalsGhXCQ0714dUGkQM3u4goMakct3T/8twjn8y/o5SBYvhtoH+65kd0oyY/A8kBNZSEESL1lz9f354un5rxfxsuXXV72Wf23LJ03ny+Z5g0aWI/hYNY+P2oRXT0O+XA5eW8w44t86ZNK3c/tJF/dKCefXFtLPFMYHC/0evtp52tmj4e3rWLb1Zxk9rdaGE/vu1R2ihuyHt+j/ABZqzfylo6ex7/8PMDDz/E3zHBU7kj6N7rDSeeVZ79pCOZ94BFcOuG+8sXbrmOvwBmoL61rmIBCe4JVWs6dlXoWwjGASLKOdPBkDmjOi0waca7XsfvQ3j0TmvZJ1QWYOIb0KzWDepTU1x6vPy4p5Y/edGr+GdiMur7EM/7uz8rm3fK+xBhryQaG7TBnfxIDqdCdfWxUHw6HcFO3feg8ktPe2Y545Aj+ENoewp0MH6C5u6NG8rvX/ylctHKW/lUzqB9yEHC7VfT237191nqAYvh3Rf9S1m58QG+FpdCKUajJCqxI5KiJ+a6pH4URhFJf8LeB5a3P+3ZfGYcBUxufFV383b5UtdCOlDgYx6jLpUA+P3j9T8qH7ruhyS7hyAAkTzmAtRJRQJ8eHKzTg2a2aEtZpgkKqgPXlgQUPgJn3/7hkH2ocppVIyVF3n0gphEC+LkMRfE6o3ry0v/8a/Kmoce5I7zMWoGiLoper/BNHzzDi8fZBJfA+NG+fQDDymvOOG0curBy8vskT+fPxrrt24pb/ziR8vV69bqZQDvjJEHCLj9V/9ApSHw4wav/fzflZvW38dH6VoQqRzsMldmckVTmN61S8TGAZkzols4c3b5y/NfVo5Zsh/5Rr8MtBmtnki/4Srg7d/+TLn5wQeojDsDALp/0zghhhbSdM3o2+DUiIDBYCBDz9oMqdduAO7C+VTfVHAIPkDgEFMRlMFWT4LyzTfxQJrCDYDOPHDB4vKJV725/PLTzqYb10V8fS6NQmx2Y7DoAvLE8fcQBOjwZ+AQPgjVlY5uG+jo9s07bi5v+dI/lzd//qPlG7dcz48M23epxwZ+oeP7K28uN96/To7oDFc3lmkbrwMcUHfsHwcFxMeGMxFybpeTTed8vU701FZs4Gp7hOrqOeYAjtjYD/gm6oOPX3c5/07UeMCCmchiQHu+fOv15c5NG6g70CfSUzYunAlTUYH5yJkzqI5hBqo7UjWYHSCC6UAbMiwGuoc4ie8hpOraAM1QtnckyGeGsKIBtZuWhHoi5BXIIlb42PcQADoVp10cqc874rgyb+r08gAdfe3X8biS4itheWdMJKPU1bd35oC9eRCIoBNx3bxm88Zy0Z03l2vvXsmXCrhXwE/ndOMo8Nuw7//uhWUV3UegDgyKKfsQQasooP3/ymnnKBkC9whfWHE1/yohpkYeE46VdL021T02MXNAdZ7TC/vAvu/ZsrksmT2nHLl46Zh9MBGgXVetW1X+5seXlI380RzbqWDQBmGmY8H5KK/wbcCZs/W5ps4OI3xsQVSwT/PUjoCq6cbtfCDrmNBRw2S4TCpHLN6nPO/oE/lGdhTghwWziAbi9GWHl+ccflzZiyYnfssV16vxI+kITzvQfUgnSIpXb0IBPR3aAH88Ablr84byTX0ahX/Ntc/cvfg/fuZJAf+v0xnlkzdexTfBvFNAdq8Qye/yV04fZ0HcdDX/Ukg9R+X6+ksnQ9axqBpTD3lF24UI4DvpxnsF3dctozP30rnzR94ojwe06eb168r7fvDVcvfWzXxkH4yB0tgGx1gQ5kSCCbEN8hJ5mHEnTpl85onv4V2YFmL21ImVKjwer7XhVE2I057fPFboWFteesKpY96oVSA+JiDOGKcdclh5wVEnljlTppfb6dp6++7dNlkAXxdXC84wafmPfJoXYcDxEg0GDGck/BQOfqDsmtV3loWz55b95y/gf29b94ffcHr3t75YVj+0iblAo3I8FQj+qDWRBYEfW8sXbb6dHMtxBtHQKmc3yeuaUlLHZdHJTf4P19xRltA4LFu4ZMwnTz3gMgmfbXrvJV+lfnJnUUVoA4vDceLMEsD5JEHcvVxBxHFEmDLlzJNoQQjNRs+BQWcTxq980pCIy6d6pti6e1c5bNGScvje+438NGQP2O/cmTPLyQcvK+cedmyZP3UGXd5s4Hed66PO2nowLIBhm2Rh+DYM2shFog7x76Gj2sUrbynXrpFLqSX4fjDt6Fu33lA+RZN3O03iGEoJx6sQgvr96jgL4vM3XaWXTBG5vrCP2QYzuVZ5ncnAkEt8OlPQ2e+adavLhm3bysHzF5VZ06fDe7hvBfoM9yz418KfobbgMknODJ0zNlFXO+ZBo4Jp1J5EguqMo3/awjZHZ+cFwY0UHkqzlDnSplLqFJkDTGOD6qLA2/349Tx8QQQ30Lg0QgelCF3AD0enxVT21IMPLecdfmyZPXVauWfTprKdTu34iUteGxosT/6K4YCk/TOJOtyEPUyLbxUtwm/TGeO6tXi3+5HysWsuLWvp7IAjOXc++bXwLULQ0Wu8BfGFm37Mv2HbnUAErxssChaFm1Z1mUdRuWQKaRMmFS4lf0Jn5++tuqWsoyP9TDowzKDxw30fbs7rQ4CtO3eWWzesK1+hm+e/uuri8m3y37RjO8fxiHUeZwxUMI0zqKtChEEbiMvUUEPNpv3mf5F6kcKOz7E0w1e29/RgMEhE485ENi/1x8kWfnNnzCgnLT2ovO5pzyhnLjuyLJj9+P5hyk66dFpHE/JT115WPnvDVTRh1/ORiRHaMDwbBZ3WudXXEic2O96dnUY327tp8u7mSasG80B8FVTnu+zOd/yhSkPgsesvfObD5YYH1tFCw1Ksu3cBCHkMBuNEPGgkSNMpTyKBfEwGlFCGHkMEfGwF7+PMnz6DP8ayaOZctm/a+XC5m8Zjw/btdNbcrU+7ZDzy4/3BHCLERYJX5JKZoBChFe3zmrVLeFJN+83X6oKQI7Y8fooFgMGCQKOcDphI5YPW+fPCoBmDrxQ+/cBDyxvPOLs887BjHtdNGxqEL/ZctXpl+ZUvfbzcuekBMYQ2DBcEEBdFaAGqXhMnNg+hjic7xBadiJqQjb8g/pb/PwTulAAu6vYF9CbURBbFcJz8GFnCaOFEyIsc4H2yo8yR+nieoza3wYIABm1gF6fr8KRpOlMGq+pVR5kfkyZTne2ROU8p2owTnIwVzsPi7RlcXP4qr2JDVD5GFcC/o7r4rlvK6z/3D+W/fPyD5asrri2btm+zo8pEgKZiIZ10wMHlN57xXP5Pohn1WbvHcJFY7QVc3VyPHlcdZ85OYtijc91TSGhKXX3qxBsT5BNbpZdAQhTi0XROMlEEzBlpU/PB5WJ9H2NQp0CJgHvdmP4ELuLaEDMH7JtSNiARj7Y0VEevNiaDX/8mqEOcKlBLwLHQbTxtUTtsDGAfCCQdrjvxJtDX71xR3vwvHytv+PRHytdoYWykGzJcl04U+MjAs5YfXRbNwumbuiLXL2GwSODeetVBW8D2KjhRBdECTWpi1zoGJvFE83WBlMvyGDgfOXglT7hIpr5iE+4FSiUjmODDG6TXOgaoVC09QptymWfOgcAs7QA8aJSkUo0LrYll1Qfhwy6cLL/tygoTDHkAIPvKypFA39VWcOUdZ3gOkTbTMFdlhYq7H8HC2MZvjL2JF8bflQt/cg1/LAI3mqmbusDTj6W0IOhWT7yxL1cfWwQuVF4YMIU2sZgGQLwgBLTdVTv6CxxQwfho1EnBriYo2k4Y3sQghUw+D3ipJ4vCVaMmYWqqiYMaVG0TnOsjOhOMQ3SEwPWKKgqRFAMHlyFRwcQM5xMhhjomdIboOIhPg3JThQb3kRskA+p0zHOYx+xjHrwP9cBZYQvdnF208iflTZ//aHn1Jz5Yvkw3zOu3PMQLYzzwpZDuyPapvCFOFyCcLQihBRokxnOXHywYs0yQF0UwjkQ93Us9qIwWC6EUtf9tHJCRbC1iLlmG6VgQx+YnEsLW0Axxi4APZ2pUDnC9XABZSEoUYQ6xO0UKOsiubizg2Z5CufwpdUBxHw5jopdMsIgkABGFdGDjDcSdqneN76oqGIRADPUyW3YSDVyxDzzqvHTNHeWtdLP8xs/+ffn6T64Vp/GAXsqhXZ3RzrwABmD3QRDdkDk5gS3J1BbFBNELr1xM9Od2EiZPxUDHpfgPL000jWjNM0HDNV6zwE0XkdXDswvosDDXNQEa1lKiremDHXtWNuB3mYSyQnQNKvNkgaCVrW6tEwW8KBxnc9r5GFW1suGn+BkqUFbD4f9GfH/VbXyPMR5QhP/tFgdgFUFr4uqHo0NeFPnyKYUwEnSUyF/j5mGiCBNdFHjTEr9bhH9kP23SFH5owHLgU8r0yVMDx4Z30rFVjp+jxyNtxJQv9QOac7WkbtwCq58IRrsQazz7Cax0Z474MeCetkO8YLAoEKLqrHw6M5DOmWqiKWAG8VFMmvrrr8EnGBQqpAqxgl5yOhG5YkKP+gjmZ6bhozLTOB9+PpQcc30ffM9fcd7Dlh3by0s++hf830LxDFxA5VxM3q/j9V8Ge0Sd+AcXJbENIjdRbYTchlW/8X7Oe8Cbl/gvRg/qG3OMFkohCk4Htgr1oQyXoevokvOyu1fyxyfwIKNWyoqz4MZJeUVuQ+btkSxARLlkgVDW7HxgQt4CVhMJSec4g3jzlSTzCqFI0aei5wXBQvMjKDEdCSrnRYFMwo32AXoLJ+hUdNVXnfApphbBmWhB/LUIHfgFgc8iudI5I8GkziPYvi62QeQWr2YmKNSPM5HHWhAAJrCec54w4KPp9zy0qXzgsm+Vi1feWrbxtxLzBALGmFSO+66out6iEJUJhjxHJvo+BRLTchHno/YoOg44HY0wOpm6OvR17njiqpJjLLgommf0yTdJ9cjmVKwzDoE2zRyUJUP0GQfVmXIJIylnIomonIGzib9UIvTuMcIkRRu1TT6eeZhBYU5e2Qcub3CZ80Ru+Bj7wQsXl3c/+4Xl+Ycfx5dVqEu4HGGkcWosQJsfMLgkhI8JRhi8XxeA51CC1a0C1OtIRG2txpxFuyRO5xAOeXFfRMbkBMdFzD7gTYHG2Kp0cN0d/FnNtPf0SbJY5zFQy2V/x7keymVRDzFYFOofw4agtLkBYohsGm/6PwyMx17TZ5W3Pe3s8oJDjy3T6f4DiBMKiC2oBul/JHWraByLIvQace85gB9UyMl5sCgIQQfRF2NBxkBFRuRI8MacGqvXYF+BE6FXmyzCK0Rsiuo35vsUkB1lwGeo5EXRHrKKR2+B9dAfEKRGGBzV1Y8XAG+qIORFIe0JQThxGoa1yhLi2en/AnAZsveceeXXz3xuef6hx9h3U6xqro6u6k1guSG2yRP1V1EkFZpaoEF4/pC29xRzfLgyWRzB+V9qtX0xYy464TUTKCfItIh2zjgA04bUoLzKwcIUUpEzUzulGsw0BqpPblPVG1EFZ64N0s64CMY9U0DwbXQGFjP/vwwsisVz55VfO/Pc8uLDjy+zp0zj+lvtkGl7XNUta01VH8qCjl6Dp08cnwVOfcZiC8AY88BKYF0NApAYNBC0DKctMZPeQwjJaKrRRlsU2FQnmZKJwldUUZvCKRI1tssnS8bBaJ8Wduw4afoz+meKiOGANLEZ/n0A1897z51ffvOs88sLDqNFMRWLIlUTbRy0U3hTQ+jpZFG0XpPzu3rKJqRhwKNi0Oc5BJPkw1x1ya73EK6Ad6CsWTyBoJw2NNAWBnQiUdI4+3QaExoEETphxiNYmRbFOGAfKYdwUgSCkagTiTZwpgy5fFKigC4sDF9/gAMlnTJO1T4eal89EdtYwBSdN2MWL4oXHnacXD6hnGsBPpXMj5Ro4yc6rg0tPCJlnQqUyQ0zbTEb6EQQCeCebpQxaBPxoOMQrgUqRI6E7nGnvOMX5P18Whr2uEqzKsQnXURGcFld0c5iDBCeL1fEx5eSBC8iuX74cXosjM3v/d+i6ACPXV/89x8o1963Rt+H4EA1BCHG5MzVRSRKm4qRH8EOHslSjFSk6czQfFa/849UGgLvEVyx+o7yEH+pxoYxotOnHtWKL2CdsO9BZdHsua0aHWAv92/ZVP70B98sX7nzJv4k8iw6Y+CnaA6ev4D/ixB6c+OOrWX1pk1l0079vgM/HvbVESFzYPDRccqaVUjmFePOIUL/ES2yKkjOaVVN+VVaEICNJ7mrUby4ecKCvmUMt3OurBZr2kAYuVF5UYQpBVF72rQsTJrQgriGFkQ7kre4skvllJnF1aWnA/IbeHlRjBoQCCy2pKwZY0Hw7zJ95iNlxfp1bVFXkChMdZS1ofQWTSnDfwB951nPpcujvUgr+h6w+PALJx+64nt01phRTj/4MP5lPnwzrpbCkGyj+t21aX256PYV5Tt33VLWbnmo7HxUzuFShbaP1iUqUCb1zT7NblkrzJjIokDBPI/AbVa3hNMpk0978ntYhEf0SvsnIi+FSqZoRsmi3XTKgUHlAdJVbX9CpSEk8tvPfoGSIfDd309d86Ny79aH+JKthVSBMpEab5kZGbznMTgmUK7zsA3CTavCO848T4QO8AHGT19/RVn70Gb5lZHHHuEvQOHMgTcbOXdcfo5Sv8JpXMrsIn7HhgfK/Q9tojPFwWUOTfRUQwPaN3v6jPK0g5aVUw9cXg7YayH/M3b+OIhukKHDL3CcctDycs6TjuLPA+Grtfh++6ChhDwGo8cECITExmW6RjvQm1dBx0UGhTjTgwlCE8D4ICrcX4YxAu8YVVWPw17XBXaQd+J4vQ40DQTSccYKggmjIWHEsYVXIXDajCsCj0a6e1CpYdwbbeaiS5bHAYogL0UgBCU+owRH76/ccVP5i0u/VR7aHv9VWQamyYwp03ji947IFbDhP4keMH9hedtp55R3nn5uWTRrFllqmVAxheiGT5+8d5MEkcsbwFEX7hcUQYMikg0Qz/HD8XWlRMC+Q6BM1KG9yygcjCvlAvR2B/hJxLLjDOLo5qQdG+wsJVq5zAFi8qJNLd7B1R/ICwDIN9o8QL4NHELb4GOPBXaUrU0ggIOxRaCENq5B3YE5wP4Y/6gwfjHvj75/od6bPHHA14DPPeyY8j/PeXHZj/8rECl5ByJYUxgixDYRiJub6yThVaignnQ+wCTivT43aCVMo76Tudd4EweG9CSLrKVE/NWumVoddyCdmxKaD11l18MAoTEEVN03qMrDkmOgOlPewoM0k0EVtk/1EaY6BU/+zsLIaOUJJCA2Hz9juAmhtygGIJ3USo3qxoySbXRJ86Vbbijvv/gr/KsZvn9/WuCn7089YFl52ynPLPNnzEyR+3uSNg0tom56KU2bquzgG3w6yEpwP89I5jfmuuCe5BIQHIQjTrMEQgARhU2T3CBfEcK470TCjGLClI9TxqF5ckGRTEmCvBSQoBCNDZ/L8pnLusthePZIDgjBf+MDPqG+hLwouEoqVwlZXhSSkUAF8JOgX7j1uvKnl3yzPEA3w08kcI9x7qHHlvPovgK/ysH11/0DsT2ytUVBW20Q65BXoarUTkAbZQyaDzA4sCYOQFO1dMnkBiSPatsLEtkXiyqIWpE5QTmHAMBVxxkCKgfGfZ+ih/HsDPhIO5u7CIHjJZkCp2KRtLQ3iuj2z/cUzg5AZwsDtlxfCcLiRMDFrcwELp9cJkK24qd7Hin/evsN5UOXf6/swI3wBDChsSHgUe0rTnhaWTwT9xM61yxBDMQCr8htEpiKC6jIW+OAm66GXM9BvZUjrV80RiKw2ZvRCjVIgwIyB0gnYWFsDsJSgegyBO1wLPNEMKizQQ2UiSQpLmv4pnHKVDrStUVicAEHN9rZlzAcEM33BFyGL7iGE4h43gVqZTWDTe3VDe8zzJ45nf9nx1jAQWvbzp1l7aaNfJmFbzCOtTDwdOegvRaV0w9YbjflPe9ufVkXDcIoDWrlpgtGRm9RBA3b669ukBwKcE3qRgg9CV/ODI2rAAWLyM2YwzC4i8BVh+tB3ly54QRKfCLgIki0rONcXVVXOx7L4TQ/a9rUcvjCvctrTjit/M3PvKa8/iln8a/ThTAJck+huSJfPo01ifqAv5RpJZuuLYqmk10oF5WOgRLDY/wLJU8/5HD+Nt0o4OzxlVuuK6/9/EfKz3zqr8uLPvXB8ravfLz8aM2d/Ih3FPBu95kHY0Egtuw79vewPlVliwIv1RmUS9aMqAnPn+w/ABaFcyKxtZ4PfM7MUUVkmCweXDkWReD9G5cjQYMa6SVhRW6ZIyPAK1p2wKh8jCIMHJX2n7cgTGIAYgunwmP4iuaUMo9uAo9evG95NZ3qP0SL4LOvelt57/kvLecf9eTyn45/Kk0e/DBzCyaxKG0qauOjrnMFWBR+YUyk/gbeCTYpYSJTEdqiaAhtFDc3BmJEuoguaQ5dtI8dxTMwwb5x243l/d//Wrke/2J3546ycfvD5YerV5bf+86Xy9X3rFLPIfCrhsfufUCZMXmq7EwSV39Ax9NxBlVHekyd5UVb44Bk4Kog9A6sdROFbM2D5osEJqgRiYmMJmnNCNHDQ7RqH7g0BQ+IgzBXWUJvlXs7I/ME/BDxH73w58obT3lmWYyfo7GjlJTDBJhBl0Jzpk8vyxcuKa898XQ6E7y6fO7Vv1z+4IKfK+fRIthvwUKOgzPGkXvvW45YtDcPMu/b7Z57jkOLkideOjMMQL4uxEggCvthvnJ8KTUoa4qBhaA6b6JYuKzBxzFwvT8K+AG5f7zm0rL+4a38BmAF3vhbs2VD+furv6+aIRB/8ey5/L/32htkUgmk2l0dkIEdhAk6zqoySw7Y2UGYRyRXZt+HMDMLwjjltkNSDze+rDWT2jUzDCqnG8GOUsqRcXe5MnnhAINFMQYwAPvOX1h++9yfKR98yavLcfvsz9fJ0GOCL5u/pPzc8aeWj7z4teWbb3hn+YMX0CI48viyj/7zRSygOoTArGkzyrOWHUkxpmjNKA3VAcFiEQbkRTFYJHvQnugKQptmSBA5Xj5RCpekA6wWZJxPZ4g2WSNwYHqQFsIdG9vv5PoxwO9nXb529BkCwIEHj1+BXl0YTHFQ9D4CtEnahb6Fg7jLVFYiksAEbWcOmEF2tInP6sOjLrYxAnCviwg0T5FaURVCqEB8GIZY48D4016F12x6eBvxoY8HJvczDzu6fORlv1jefPIz+EzwkZe8tnzuNW8vv//8l5WzjziOJwWO/KMmBoCBPXP5EWX2FP//LPK+iecQY1dvfHR2UQGxF176tlmbD0lKav/3Lrcq0JSplIy6nIIHvo46HsI+IDNXwdsCoiEcIFU0zQgOcDvTPOodWNtlLhnrnwdzRJOIulVUTl6USXyxD/YVOJxVZPR4UPCiCAuD5Nqg792+ouza3b5LNwr4/3TLFy8t/+25Lyn/4/k/Vy449qRy0IJFZQ4uh2jBjLUQKjApjl16YFlGl1G48UYNuBZal8BdffnpE84Mqsr3ExMCx5Mxkn0gAUSQ3YkPTz7a8iRsVQIRCbXAz4T2JgiAfplPlzzH09lVvnetUH8cbJ5NN+RjAZ+lwv/uk31I/f3eKvdtqNUJ9SJRek18OGNpyEXXwOV8rA6odW4ikW8dZIYWNp7HD5x1vcNha5BFMA4QEbfWQLc/lsBFFeEahc7604u/Vm69/94J/YofBhdPVPBfT/HG0UQWQQY+EPfs5cfQ2YSIVRZ5q6+pq42Qu2/P4AIreB+cVJa56GRRNC6pggj6cNWmjfw4dRRm0sHkDXRmPWivBWU6LjlZS31JfXj04n3K6576dNb0gAPZvVs2l627dvK+pAJaC2TGh+/cc3sY5jiEqoNrBe+vKXgMnB318QvOfadaAGOYImx3a603qv4wNIgnmxlYIaITOKxVtrq6tILPEmkSX3nvqvL2z3+0XLnqdrH/GwP3FSceeHC4hGh7zfsn7lQ4U/gzw0TOFCiOzbw4ngsK9HQO4UxBkGGAkgU6ej9c7sT/wR7RfzhwnHLAsvIH57y4POPgQ+kGeUZZPGt2edHhx5f/ce5LyrJFe6vnEGjfivvuLjvoLGHg3bh9qWgzLdsNpFN1WOiqy1yZcUDuXZVUQEVtnzTprS+nFI8kqbL6iwsMHmv3IdnM+cypzJ1Fqy7OWVyXq8ggEjggOgvlCvBek3/+zR4MGJ6S/PLTnlXecua5ZdG8vfinW35aoN/wq384++CfPP7wzlvKv950Tblk9R00wLtcFVp9JEs8dgCDb9hpw8Ja81t/rNohtuzcUV7+8b8u199/D9/UWiSL73cEqCY7EuRLOY3XauFs+Tq6r3rHWefLI+onEA/teLi88xufLRfTAavOw1g1X1+zuC4bQ0eZjHLjLaN0BK/I82jKpFOPe48MO8FfHwK091Cey6qGZwptoO3/E9VEKu50rSGAkqyjVwsrHJCscYDFGJSvU6+5Z035wR23lAPnLyz70ukdT5Iez2URjpT4nM+ajevLhTf+uHzge18v/+uH3y7/esu1dCS9P30BpoKIcs6csXK8OYV3u2dPnc6XHy888rjy1tPPLkfsvR/79YDF+Jnrrij3bd3CRzHEschOkH0wIQw5p8aBpkNYPEk679Cjy/yZs1n/RAD9eP26teUjP75Uvh8B0P6sBZxpPTgleJ3JOiuiEwPTz/UImxoTknkFi65T5AxR4c8QDjahrJzbfTukS5b4oAGUqYXTmgnMOFj1zS2QcNkCoK7Q4XT+2pPOLL90xtllH10YEwUG8c7195U/u/ir5eKVN5cH6WYQX7LBL93hL7RJ5aZq9WGJOJ5c4WyF7xUcMHd+efqTDitPX3ZEeeoBTyoL6GYVR+ex6odvzL3sn/QMwRdOso+2J4LuV/ZpSfNxulFf3cT7Ma854Wnl157+XP606hOBjQ9vK7/77S+Ui+66lfuVQXW1KlSwQrStC5XHxHcxgQi9Yu+Jrrk1wlkMwKjzaMqkU459T3NAhWnjD7DrLiyQC0L+xrSI7snJQCsju1BOmbOErAqy6oFsV1HrzLuz+gtwFMVHm6+6e2W59M5bywHzFpS9583jzyJN5GwBH3xTbO6MWeWGe9bSkXkz/++6UAeTVaCsmal/aNZhf3OnzeQ3/F5wxPHlbWc8p/zaWeeV8488oRyxz35lHh2Jx/viDYDvLnz6usvL/dv0DKEIbTFRhFw/TjWxIfM+9MKbbHdtWF+WztmL6rw3P3n7aYCPevzTtZeWz998Hf+DxkHf826djkWnUZ5Eguoc5zYRNxUkJZJ5rgLgdfSaUmhBVBJBu/CXULT34KK1MZ0XuLeFCajs0FF1ypM/0K7Ehj6+c2VwnZEAjndU8dulX/nJtWXH9h3lyQccLN8HTr494Kj9pMVLyjmHHlO279hZbrr/7oL/MiqQ9rRmakoZYk+jxbDP7L3Ki44+obzj6eeVXznzvHLBMSeWw/ZeWuZMn8lnCyyC8WshwGL82NU/KOu3b1WNAvvzUVgU7kSC8/I+piRog/BDAVfefRc/YsVXRsf7sN8o7KDLzQtvu678xeXf5XsgoNvvuR+YiKaJyiUjmBB0OPMNzp+WQaAGujqwTinGEhsvCCi80TDePQVQdW12EEjIHGnigOiUNzWh6UQygcGiaxzvznED6XANfs29q/mG+MD5i8r+NNBT8L6DuowCWjZnxkz+J/HH7XNAufW+dWXjjm32bi2AiY2fqcfl0KF0Jjj/8GPL2884r/z2sy4oFxx9Ylm+eB9+TMvvjo+7xyFwmXHH+vvLh668hI+yaGhoJ4susvKWEpx/E/WL9o4DOAjtoAV42Zo7yiI6gx2yaDGfxSZyEAFQ3010E40zw19cfnH4Nl4dozZpCSwIy7qRPs7gq1UfN+Q2NX8uMVS7IJPKW17G9bXdN5sgPHlylQRaxCbyGnJetqZi5avPoPJA0sk1ryqdG+AbOOrSow4mbmj3nTOvvOYpZ5TXn/7sspjkiV4WYFHdu3lD+fBl3yn/fN2VNNDbyswp08t+8+aX0w9ZXs497LhyAp2BFs6aW6ZN1Y98jKjPRIHJtWHb1vJHF3+lfPz6K+wafBBXOadmGkOXuPQvYAJf8i2ks9n5hx1TXv2UM8shC2hh0CVg75181AuPVh/etbOsuP/e8g8/vqT8cM2dZSudJWxm+CIk89MdhxDTimSd8CYql0xBRHk7nDedny8VXjepvJkWRHZIDR7cbHN558Oi07hFYOBe52NEda8JZyIpB5IdkLBR12ugrMmorG1COoMum05aekD5dTqKn3XoUfyrEYM2d4Drd1wXf++Om8vld91WTjn40PKUAw4pe9ENPC6x5Czw0wGTi39BgxbgXRseLB+98rvl0zf9uGyjyeZ/5mY4RpKYVnkSCVknvLcoIOIfsiyZOac8nc6SZz3p8HLc0gPLkjn1Q5JyoLh7y6ayYt3d5Ru331CuumcNXyLxz+W4OvbqO+gt8gkaJn6+CKCRmdSSGJ6IcusxdfBpzCjl15t/lmILqWCx0wBcYRnEyRezMpy2mmhOYF3j0km6SJwb+wQOiC50ohdTfXtnC+8DGR82e+PJzyxvevpz6KZ7L7WMD0xaeRNHnmg9UcA9yppNG8r37/hJ+frN15craHJt3rmdj764fLUuBXS3YQS6uiazlH2cMpyJFbU4FqM8KZtaFkyfwZ/7wqUjPo6xlQ4SWBjg9sYagffhwvXGCJdPw3a5FnAIH0TzqvWOSKOSEdrls9w3lOqCgNyMQG4MY3CmCFVVf6fLi2KwIFRQXawCkcwJ4UgW7ERdAF44yZ7rCzZn+rRy2gHLyzue/bxyKh3xcfbIxf4tgImDhbWLrtdxWXTR7TeV791+c/kx3es88PAWvl/AO7Ftegn8WYLBzXQ11j4wDQtOpwYro1kVWv8K4iSmUqCU1DswfvBB7ajguK5IXgSZM0gXF4X4cKrusY2SmMY5tvAmxDkTMhKaG6MtCEYsAAwasKeXT4Dv5XQ4UPeaMEKjvFyhYm/S5/pOxAcfTptL18uvp2vl159+dlk6f8/et5goMHFwKcGXGZs3lh+uvKVcfOuKctndd/GZAJdKj+L9Dlc9OYYMF0E4X3ATB41sGhV64xRF4XFRqE/Vub6zGqT+5P04VeZAGAMSe2d+q28wedLkJoqQOTKpLwlmq2LTTSpvogXhHBhhR9lIYJW/fBIf83SCiTKyLLqeFI05AUIkpDOYqIJmfsJLFu3AeJdPEgIf+ptanrr0oPIbZ19Qzlh25ITvLcYCFgEm+sO7d5Z7Nm8ql955S/n2rTeW6+nmE1+22fUofg+Vjkm6G86wTxymVCddZ51G7WmygcqEmkqg0ToziNCaqYJmeaIKM8ENZfPjPTQqYurHXr8Oxol40EigJGYOqM5zlaW+SiyDgDGAhAVRoQ65AJAn0Pj3E5ZIKqOKRKAcGh57Z7JypiMh2AmuQO5IZkkHeL/BgBCHBj6L6CbydU+Vs8WSeXPpxnL8z/p78I0xnQXwM5p3b9pI9wQrynfpcuiKe+7if0S/m+xYKLjcADhL9eHaOJUMJKWq6y2K7uLVdjFYEOZEAvlAzgNBouxFdZQ1q0jhbOLKspTqk+s3HAPsb6hzLWBuGlMPeUXbhQi9yydTkUQL4qW6ILwFgqwYj36HxzNF8HD+JulCYNiYCudUTRxJZad0iLp8aWQ1cTpgsHhGcFwyHbV43/K+819Szjr0aD57jAcsBHzZfvXG9eUHd9wsHwJce4f8tAt1J3c0hZc96H5DZkaGr5t0lXaY8xnebOcxwMsH1dxrWRDWdinC6AnUONCGUhUElgInuVFDHoPhmULLVuR9AF7XlJJ6Tq/WX2pwWVwQLhMQcdxEX+HH9UjW2QGny41BphZOayZoOmkkCc7eG4BBZxPCgLAo9cVReOmceeW1J51efvH0Z/OTKH9klnsC/Czk7rLuoU3l+7f/pHzn1pvKdevWlnXbHmI93i3PA2LUEcmCUcRUX57+UcXw9coTTMJmndM4gUXHe/cTyJq6kTwG5pPqk+s3qC9hzEVhphFtMBkYcqC30CWzBVFBFnMGMic6qGxeFK6igBHV29ipwXHWOP8K2aXybNeshTEHMTmeB43B1CkcR4oPuj11v4PLO551QTnl4GXMMdHXbHqw/IAuhb5PZ4PL1q7kd2jxiVt+LCvnA4LG5ZgqIFW1t0sGgcqqg6VqB3qXSwMdlXdFtHzWCTOd503J6WACEUIb6NVqoAafNWdGbxFkXVgUEqSJgOoyj6JyyRRKKMvzYVJ5oy4IX6BTWa/rNWawKAjBT0WrPtckxVGdaVkQNmhQ5prZoHTq6Osz7pkCIFprM5lmxNzpM8pRi/Yth8xfVO7ftrmsWH9f2bxjOz8Zkjei2JVApUIoIU2XOcERtVaBYaLzG3dhsOv4E8bsgPcxQ/PIC2NUG+xeIGQdXQgAGvnwTNGvr+mUJ5HQHxNk0mPCaUH853bJlAt47qJh9zgCDifQxM4UptUFYHA8h+ZSQafE68gBIeTNnqF9sCDoSJ53FNpEYmiB8urDz9+dP7eeqehSaIJvAwkqqzenVY1B4X2rGmDRBe0tCCAuitCCGiSJzUOo48kOsUUnoibJGpH+j/1jPqrizNmBwZwiTGRRBA2LTqO8ooUTwS/y2KMYBWwMEkwmYPCV18sBnhAe+NadBy4dsClt5RWYuY05jnIqMqTGXAXTmdBAqvZVSQi0eTcn47Im734ALi5/xlGOttZ25FUmsCi6VlfAtUGk6ta4EuEKJTZmDr2vnw4XidVeABIrRuhx1XHm7CSGPTpXT/A1TTecXbCaO6Q5DOZUD+QTW9U+0t4gHk3nJBNFwJyRNtWfsjS0QgLiWZXBDVIZyIuC4arPgiuQZ6X1turMv24JHRV0CGOhFGlqdDFc5LJFrRsQZ0DLufXRWeGUJg5jMIKdNnmJepwJM1gkXFADBGgL2F4FJ6ogWqBJTexaBcFHiEiUujY0awOPgfORg1fygotk6it24V6gVDKCCT68Ab0mPzLAxo4HQ/XVJ0UC893GGJwpNK9AGF+KZ69z0vGsPrny4KJSAzsFwSBfKHc6kv2k5yMZcWwVsA8Xho8hm2mYq7JCRaibyQTnqZwy2QUSEJEEjXDWnBm2CJqq6RTcl66MBmpFlKsQMKgbbfFMLFm1hrppLkFUrElzU3tTeBODFHbWMcBLPVkUrho1CVNTTRzUoGo6Q6hkfmo0TqgVrTquPHKhXWBR+IVBZfoDojo+V7mgaDm33pVhqI+plQeo3auVm6q2YQzkRcELxRdinsP4fxlcrdGDOcqauvl0PJtFjaZT3hCnCxDOFoTQAg0S47nLDxaMWSbIi4I2+HqdyjaUDlKP5uOLVdT+t3FARrLFYi5ZhulYEMfmJxJXtylZrZdMqjUjBO8J9HjT5ckzCsFLQ7Cu12sGakwnfGxQDVQBIgoJ23gDcafyZ4kK342MQQjEUC+zZSfRdMJ3PKuOUi6U7h9yAReUuzAtgAHYfRBEN2ROTmBLMvkTe0VTkcSF6kRrPEC5mDDWzaE7rwY6LsV/eGmiaURrngkaTrj7XSYVjBO8zCBF1jmOyg8a0DtTqNggOtbLqEIS2PgiNhdXNJ+gg9xMJnNYCBykubVOFPCicJzNbQeMXgsManqEBG61uapAWa5vr/6iElKrZL2EjKE1cfXDxMuLIl8+pRBGgo4S+WvcPEwUYbAoiDeVSLX/5V7AO2SOAwAdAhwH8twKBy8T9dABznZtgdlFMNqBLVyBCp4jsHEgEEFWdVwC0DjvBNE3kOG4jWXPJ+syyD5oQ0J6hDO4gSP0FkXQ+DaZYbgoUqkOmj14ZiKvygwju6qD4MKkXz81GSBmr949RQMR8KATNHUzSi06zmOBA0mpXJK5KUXgKeEMleslE0H0BBWMA/BWEeDSyJnIxrKAmyN7G41YROG6gUfWedhIkxZlU+HGIcBBxQQJo/YKKsz1TbpeeQb0vA0drAXVhxIsikeSKxdVOzbenfmAmGSpUws8iQGona7DFPEsIf5hnFiUewhOojDgviiARSELQ3x4F8pqiqw3Biwi8bq8g4T6MCQewHwAzUlgEYkJAtlF47QgzMtBeVATyTwA9qiTSaa6etk0uHzSygIsOA33nFkddzqG6OLuOz6qagMiiuYZfbijm1Hag5xTAXTGIdCmmYOyZOj5tDaQAFmzmja1pJyJJKJyBhZA5/Ipw7WACMnaJh/PPMygMKdsAIhnFUC6NgaSCZO/yhnODnQXCamsVWymKNXP3KVNDPXpIf62K+RYahx0fFKFA/OLwcOXySG5pU7pWo5iuX8ih4OKjMwJjouYfcCbAh3de5PMdXfwZzXT3tMnyZq7CJnXTATajCsc9xMKXWXd5TBYFOofw4agtCGy9xDZNENTA/HkPQ6sAGUQYjk+CLVOEngeyrKgiC2oBimKJLwx51xNJEH8FOBGBOBJlfmw8v4s0TLzIgFVN84ja2w40r4gUufKCJwIvVoI4RUiNkX18zdxgwGB7CgDPkOlXD4JIYhHXGBSxocHQIOKiHp6wuCoLgAvAN5UQciLQtoTgnDiNAxrlSXEkxO/X0C6dvnUsloGL/ZxvELEpkPG9VM+CrFFAiviyrKIxAssd2+qlQRdyxjOTUAk9ErmoEk3OFuI3TxUcCW0h51GOaemVh1lohNeM4FygnRitHPGAZg2tJ0wwqIggLkWWHnOTO2UamCRkhZOjFIFkS1D7nRMGUpUwZkEYEg745QZ90wBoVUqGFjscfZvS9wvilodZSa1MRAOiBU64YDuxZD7H+UHT5+IWznlVWQkk95DVI1uXscwQZHtisyBnq6ic6aA0ERIuRuArBHu+6KiqUYbbUCwqU4yJRNF7mxCrT2nSNRoLTeDwokM49nQAItYR/sAafoz+meKCDel/M4kc+5NrE7OWOURaqtFticMDkKd+g6eEhINGpQZlBOul0zZCKjOTCRA9ryn8ztiuXFnachnCnZKA+B5HtXQkwotw6CsWTyBoJw2hJFQqhOJksbZJ3UkBiQMCkTohBmPYGVnUbhyDq24+lAmKghGok4k2sCZMuTySYkCurAwqHxw4UC5bsI4VXsVkyPFls0b1F0AGT6UDS+hIHtOCIVBI4dvHieUCS2gkxgYa6pAPhP4LJPHGD5m6t1yNnDlB5XtLwqDctPw2KUYVRfUSrKu5zMCYo0+g84mDI9UeVK5ATGDCKn1zt7Q2WVEDh1AWmfAI9nB5VIG1zdhoMse4J1yAb0yEb5mElGhAmfoEDOAOqLonym0fi3RVOBuqgGYaNNsyAFw1TGCkaC2oIKuKdicG9BZFOwnTIk1py0AbK4HnYcD6UjZdgkimaAZEco60uwEDqAyAYuid7YwsBjtAHzMRBve0WYoN5FlpyQECS/dzKIZw9XFJKcD8tlisEiSv0B6mE1slvaoaIBdipuV4nNGEKH6WATNBOBGCCqHDD4sMIZzSsYpQCnvk2UkUgNA7yHUWLUDqCHbe5x1KhhX9CoX7LQo8sIgpFKtmMzeygLnjma12jSvzKSmSHKzQxKmZAzYhAeyL3g+gbKPe/pkFZc2VDtveDEHTFBJOXwq41gQkGm9lI9CXhS9SRYaYUFd/FZxy6oQL5/MqGg8D614xzIiNQ4M6kvoXT5ZGyCyWaKnMwRBjQzN+shG8AnoHJVBIkWnEQzr2FBIE6djKEeLXE8OQgfeMaqqTYum6wI7yDtxvA6QaSCQjjNWEExQdBcNIEILr0LgtBlXBB6N476jTRguCnDRJUvi0s6xQR7yUgRCUOIzZ4eY6weedcPL3F7dwof7HExHAmTmKhgHlAd0dIF37Pkrgv4sAd9uPPka6wDD8XXlRUDfhJKZqEO7BhUOxvt0AXq7A/yAsOw4gzha7bx0ozOFidJC0VYIa7rMAWLyok0t3sHVH+jdT0Dn9YNJxiG0DT52hXeFL3MksrXLJwAOYhEooY1rUHdgDrAb0To0XpF1fJlbgyAjbh4qyBlCjaYF8g4SbSDDwJZ12SHaZcIoqUiXTsMBgayfu0Gv8QamPtKTLLKWEimuds3U6rgD6dyU0HzoKrseBsgDgu53Q2Ayp0hoq/cUrfXqo3alnLfwIM1kUIXtU32EqU7Bk7+zMDJaeQIJiM2HMzZAIW1kH0tYsKyitygGIJ3USo3qxqypJOf9K1HkMRiA66sgIV4ysQWJumTOcDZTkxA4EAhR9TFE7qoVkRdGKAR5ZEntSfGJEB6rFAgBRBQ2TVzn8l4dB3qLIgBmFBOmvFdGdP5M0VLADK44CfJSQIJCNNZLLpMJpAqCdZfD8OyRHBCC//rw9YMY6kvIi4KrpHKVkOVFIRkJrQBjdE0UXTNKiUFvqh1yAeMkQGZugsB0LWOkyjIZ8KbIA9S7wa4hzIsF1w15VMGdjsNrGd5ErcicoNymBbjqOEttzIsCbdrTo5QGRiIwLn4tnAiB4yWZgo7fSrS0N4ro6sf3FM4OhMe0sDl/hgRhkaEcmZ09GCJwcfXBNu7lk8tEyFZKm4riO0LIXC6dHNSMGuv7ELHAxEHlQlEOlnSE7JPtDmxCfbzPYGGkAFKIRUZorYf4xNLUDSlcchCQTsLC2ByEpQLRZQja4dDc043G6CFTA2UiRUfTRTXxphjcaGdfwmCRc8jcBsc6MUTHSyYtCgLxvAvUymoGm9rNzfunssP6psfmKrZLpmxkrjozOW46ReBEjKsw0k7Avtz+IY05PdiU7ERDo+1+QnWhJ+HLmaFxFbhOLHhjDsNo19AQ4CM3b77DewMSwNRNKWTkE755pz4qBI5wLWSzi2SCQ9MNTAS5p9BckS+fBm1iaAsstvDmKVLkwtqiaDrZhXJR6RgoMUTOe631qxnxXOe8KNI9BIzRwbiZkt2XcSYmxtUn2AkDnnwgV46zhD9TwJX8pbsVfHXgNOg5P4Ymi0erugi8e+Ny5GpQI70krMgtc2QE8oBUbhoW5OlZ1OWPeQggtnAigItODeBeaJmlAOu4sHAAZ4o4QUhHi8IvjEH9lXBmXIXKtdImMhVhcKYgqDuBBHFzYyBGS5uzuIKnoWSdg18UdMkUjQKnY7HHnc4jqwP3RGNkf6eQiZEc8uUTh1AfZCyKRrWEJnFPMqKHh2jVPnBpCnuEpxBG+3Z9yp0d3QYDgjEwTcdfeP+zTxET5F6d9sc1Adc68sRLZ4YBfP0Bjuk0KiJjEROU7WJQc4MpBhaC6rxJ94WUpbrvmuX6EAaLQp3dAaCWbqITCE4OPgSWsxLo6AYqIsllvMr3zhYuU0EYpzyekNTDjS9rzaR2zQyD/etGsKOUcmRyCaUKQl44QG9RBBCvGs41SYcDAhnwqs6KxrNdBVErU2IA4dOtIS+KwSLh+oYgzE3DgrBYVxDaNEOCyPHyiVK4JB1gtWAHFTlpPoDoWDSEMSARBy9ZEKkwIznnYIKucqgO5VXo+XhkPg6GEwzbGEG410UEmqdIragKIVQgPgxDrPE8Ha5VFVmTJxQqMdAR50UBtZrMY1hcIQK4SpxG/0AIxNOlxsAloxMCibWhaxdAzGZA+rZZmw9JSlr/N2sPw74cwt1UY8NOciHHs51FJNB7jkxzRtVJNpIHkM6pMeF50of9p+MlfPTPg7ktANi8vXLyokzCi93vihE4nFVk9HhQ8KIIC4PkfJSqtTetCpyZAYvCPAgisxnxOKbqJCOoAHMVNIPETJ0DbwGo+6gDcWZQVb6fAHicVGY4wiLHk1YKRwKIILsTn/pcJNxXkNyqBCKS1UI5Mt6DCIbQ30Dgpfz/plYkIqNWct8AAAAASUVORK5CYII=;" parent="1" vertex="1">
          <mxGeometry x="1431" y="1315" width="66.01" height="65" as="geometry" />
        </mxCell>
        <mxCell id="F7nrCwxnaVBbBVm_Oen9-51" value="Meeting App" style="" parent="0" />
        <mxCell id="F7nrCwxnaVBbBVm_Oen9-54" value=" Call Processing" style="fillColor=none;strokeColor=#5A6C86;dashed=1;verticalAlign=top;fontStyle=0;fontColor=#5A6C86;align=left;" parent="F7nrCwxnaVBbBVm_Oen9-51" vertex="1">
          <mxGeometry x="1308.5" y="620" width="351.5" height="320" as="geometry" />
        </mxCell>
        <mxCell id="F7nrCwxnaVBbBVm_Oen9-55" value="" style="group" parent="F7nrCwxnaVBbBVm_Oen9-51" vertex="1" connectable="0">
          <mxGeometry x="1310" y="660" width="110" height="113" as="geometry" />
        </mxCell>
        <mxCell id="F7nrCwxnaVBbBVm_Oen9-56" value="" style="outlineConnect=0;fontColor=#232F3E;gradientColor=#60A337;gradientDirection=north;fillColor=#277116;strokeColor=#ffffff;dashed=0;verticalLabelPosition=bottom;verticalAlign=top;align=center;html=1;fontSize=12;fontStyle=0;aspect=fixed;shape=mxgraph.aws4.resourceIcon;resIcon=mxgraph.aws4.s3;" parent="F7nrCwxnaVBbBVm_Oen9-55" vertex="1">
          <mxGeometry x="16" width="78" height="78" as="geometry" />
        </mxCell>
        <mxCell id="F7nrCwxnaVBbBVm_Oen9-57" value="Amazon S3&lt;br&gt;Call Recordings" style="text;html=1;align=center;verticalAlign=middle;resizable=0;points=[];autosize=1;" parent="F7nrCwxnaVBbBVm_Oen9-55" vertex="1">
          <mxGeometry x="5" y="83" width="100" height="30" as="geometry" />
        </mxCell>
        <mxCell id="F7nrCwxnaVBbBVm_Oen9-58" value="" style="edgeStyle=orthogonalEdgeStyle;html=1;endArrow=block;elbow=vertical;startArrow=none;endFill=1;strokeColor=#545B64;rounded=0;exitX=1;exitY=0.244;exitDx=0;exitDy=0;exitPerimeter=0;" parent="F7nrCwxnaVBbBVm_Oen9-51" target="F7nrCwxnaVBbBVm_Oen9-62" edge="1">
          <mxGeometry width="100" relative="1" as="geometry">
            <mxPoint x="1449" y="810" as="sourcePoint" />
            <mxPoint x="1560" y="810.15" as="targetPoint" />
            <Array as="points">
              <mxPoint x="1500" y="810" />
              <mxPoint x="1500" y="810" />
            </Array>
          </mxGeometry>
        </mxCell>
        <mxCell id="F7nrCwxnaVBbBVm_Oen9-59" value="" style="edgeStyle=orthogonalEdgeStyle;html=1;endArrow=none;elbow=vertical;startArrow=block;startFill=1;strokeColor=#545B64;rounded=0;" parent="F7nrCwxnaVBbBVm_Oen9-51" edge="1">
          <mxGeometry width="100" relative="1" as="geometry">
            <mxPoint x="1450" y="847.1500000000001" as="sourcePoint" />
            <mxPoint x="1560" y="847.1500000000001" as="targetPoint" />
          </mxGeometry>
        </mxCell>
        <mxCell id="F7nrCwxnaVBbBVm_Oen9-60" value="" style="group" parent="F7nrCwxnaVBbBVm_Oen9-51" vertex="1" connectable="0">
          <mxGeometry x="1500" y="791.15" width="120" height="112.99999999999997" as="geometry" />
        </mxCell>
        <mxCell id="F7nrCwxnaVBbBVm_Oen9-61" value="&lt;div&gt;Amazon Transcribe&lt;br&gt;Streaming&lt;br&gt;&lt;/div&gt;" style="text;html=1;align=center;verticalAlign=middle;resizable=0;points=[];autosize=1;" parent="F7nrCwxnaVBbBVm_Oen9-60" vertex="1">
          <mxGeometry y="82.99999999999997" width="120" height="30" as="geometry" />
        </mxCell>
        <mxCell id="F7nrCwxnaVBbBVm_Oen9-62" value="" style="outlineConnect=0;fontColor=#232F3E;gradientColor=#4AB29A;gradientDirection=north;fillColor=#116D5B;strokeColor=#ffffff;dashed=0;verticalLabelPosition=bottom;verticalAlign=top;align=center;html=1;fontSize=12;fontStyle=0;aspect=fixed;shape=mxgraph.aws4.resourceIcon;resIcon=mxgraph.aws4.transcribe;" parent="F7nrCwxnaVBbBVm_Oen9-60" vertex="1">
          <mxGeometry x="21" width="78" height="78" as="geometry" />
        </mxCell>
        <mxCell id="F7nrCwxnaVBbBVm_Oen9-63" style="edgeStyle=orthogonalEdgeStyle;rounded=0;orthogonalLoop=1;jettySize=auto;html=1;endArrow=classic;endFill=1;" parent="F7nrCwxnaVBbBVm_Oen9-51" source="F7nrCwxnaVBbBVm_Oen9-64" target="F7nrCwxnaVBbBVm_Oen9-56" edge="1">
          <mxGeometry relative="1" as="geometry">
            <Array as="points">
              <mxPoint x="1420" y="699" />
            </Array>
          </mxGeometry>
        </mxCell>
        <mxCell id="F7nrCwxnaVBbBVm_Oen9-64" value="" style="points=[[0,0,0],[0.25,0,0],[0.5,0,0],[0.75,0,0],[1,0,0],[0,1,0],[0.25,1,0],[0.5,1,0],[0.75,1,0],[1,1,0],[0,0.25,0],[0,0.5,0],[0,0.75,0],[1,0.25,0],[1,0.5,0],[1,0.75,0]];outlineConnect=0;fontColor=#232F3E;gradientColor=#F78E04;gradientDirection=north;fillColor=#D05C17;strokeColor=#ffffff;dashed=0;verticalLabelPosition=bottom;verticalAlign=top;align=center;html=1;fontSize=12;fontStyle=0;aspect=fixed;shape=mxgraph.aws4.resourceIcon;resIcon=mxgraph.aws4.fargate;" parent="F7nrCwxnaVBbBVm_Oen9-51" vertex="1">
          <mxGeometry x="1371" y="793.12" width="78" height="78" as="geometry" />
        </mxCell>
        <mxCell id="F7nrCwxnaVBbBVm_Oen9-65" value="&lt;span style=&quot;color: rgb(35, 47, 62); font-family: helvetica; font-size: 12px; font-style: normal; font-weight: 400; letter-spacing: normal; text-indent: 0px; text-transform: none; word-spacing: 0px; background-color: rgb(248, 249, 250); display: inline; float: none;&quot;&gt;AWS Fargate&lt;/span&gt;&lt;br style=&quot;color: rgb(35, 47, 62); font-family: helvetica; font-size: 12px; font-style: normal; font-weight: 400; letter-spacing: normal; text-indent: 0px; text-transform: none; word-spacing: 0px; background-color: rgb(248, 249, 250);&quot;&gt;&lt;span style=&quot;color: rgb(35, 47, 62); font-family: helvetica; font-size: 12px; font-style: normal; font-weight: 400; letter-spacing: normal; text-indent: 0px; text-transform: none; word-spacing: 0px; background-color: rgb(248, 249, 250); display: inline; float: none;&quot;&gt;Websocket Server&amp;nbsp;&lt;/span&gt;&lt;br style=&quot;color: rgb(35, 47, 62); font-family: helvetica; font-size: 12px; font-style: normal; font-weight: 400; letter-spacing: normal; text-indent: 0px; text-transform: none; word-spacing: 0px; background-color: rgb(248, 249, 250);&quot;&gt;&lt;span style=&quot;color: rgb(35, 47, 62); font-family: helvetica; font-size: 12px; font-style: normal; font-weight: 400; letter-spacing: normal; text-indent: 0px; text-transform: none; word-spacing: 0px; background-color: rgb(248, 249, 250); display: inline; float: none;&quot;&gt;Audio Processing&lt;/span&gt;" style="text;whiteSpace=wrap;html=1;align=center;" parent="F7nrCwxnaVBbBVm_Oen9-51" vertex="1">
          <mxGeometry x="1350" y="870.25" width="120" height="60" as="geometry" />
        </mxCell>
        <mxCell id="F7nrCwxnaVBbBVm_Oen9-69" value=" Meeting Audio / Metadata Ingestion" style="fillColor=none;strokeColor=#5A6C86;dashed=1;verticalAlign=top;fontStyle=0;fontColor=#5A6C86;align=left;" parent="F7nrCwxnaVBbBVm_Oen9-51" vertex="1">
          <mxGeometry x="624" y="790" width="400" height="90" as="geometry" />
        </mxCell>
        <mxCell id="F7nrCwxnaVBbBVm_Oen9-70" value="&lt;div&gt;Call audio streams&lt;br&gt;&lt;/div&gt;" style="text;html=1;align=left;" parent="F7nrCwxnaVBbBVm_Oen9-51" vertex="1">
          <mxGeometry x="870" y="801.15" width="170" height="30" as="geometry" />
        </mxCell>
        <mxCell id="F7nrCwxnaVBbBVm_Oen9-71" value="&lt;div&gt;Call signaling &amp;amp; metadata events&lt;/div&gt;" style="text;html=1;align=left;" parent="F7nrCwxnaVBbBVm_Oen9-51" vertex="1">
          <mxGeometry x="840" y="837.75" width="170" height="30" as="geometry" />
        </mxCell>
        <mxCell id="F7nrCwxnaVBbBVm_Oen9-85" style="edgeStyle=orthogonalEdgeStyle;rounded=0;orthogonalLoop=1;jettySize=auto;html=1;" parent="F7nrCwxnaVBbBVm_Oen9-51" source="F7nrCwxnaVBbBVm_Oen9-86" target="F7nrCwxnaVBbBVm_Oen9-87" edge="1">
          <mxGeometry relative="1" as="geometry" />
        </mxCell>
        <mxCell id="F7nrCwxnaVBbBVm_Oen9-87" value="" style="outlineConnect=0;fontColor=#232F3E;gradientColor=none;fillColor=#5A30B5;strokeColor=none;dashed=0;verticalLabelPosition=bottom;verticalAlign=top;align=center;html=1;fontSize=12;fontStyle=0;aspect=fixed;pointerEvents=1;shape=mxgraph.aws4.application_load_balancer;" parent="F7nrCwxnaVBbBVm_Oen9-51" vertex="1">
          <mxGeometry x="1216" y="796.87" width="69" height="69" as="geometry" />
        </mxCell>
        <mxCell id="F7nrCwxnaVBbBVm_Oen9-88" value="&lt;div style=&quot;text-align: center&quot;&gt;&lt;span&gt;&lt;font color=&quot;#232f3e&quot; face=&quot;helvetica&quot;&gt;&lt;b&gt;Websocket.&amp;nbsp; /api/v1/audiohook/ws&lt;/b&gt;&lt;/font&gt;&lt;/span&gt;&lt;/div&gt;" style="text;whiteSpace=wrap;html=1;" parent="F7nrCwxnaVBbBVm_Oen9-51" vertex="1">
          <mxGeometry x="620" y="840" width="135.83" height="28.7" as="geometry" />
        </mxCell>
        <mxCell id="F7nrCwxnaVBbBVm_Oen9-89" value="Amazon CloudFront&lt;br&gt;WebSocket endpoint" style="text;html=1;align=center;verticalAlign=middle;resizable=0;points=[];autosize=1;" parent="F7nrCwxnaVBbBVm_Oen9-51" vertex="1">
          <mxGeometry x="1060" y="878.5" width="130" height="30" as="geometry" />
        </mxCell>
        <mxCell id="iztJvjO-frAtPUYrZVRu-34" value="" style="group" parent="F7nrCwxnaVBbBVm_Oen9-51" vertex="1" connectable="0">
          <mxGeometry x="350" y="787.5" width="120" height="89" as="geometry" />
        </mxCell>
        <mxCell id="iztJvjO-frAtPUYrZVRu-35" value="Meeting Participant &amp;amp;&lt;br&gt;LMA User" style="text;html=1;align=center;" parent="iztJvjO-frAtPUYrZVRu-34" vertex="1">
          <mxGeometry x="13" y="72.5" width="120" height="30" as="geometry" />
        </mxCell>
        <mxCell id="iztJvjO-frAtPUYrZVRu-36" style="edgeStyle=orthogonalEdgeStyle;rounded=0;orthogonalLoop=1;jettySize=auto;html=1;" parent="iztJvjO-frAtPUYrZVRu-34" source="iztJvjO-frAtPUYrZVRu-37" edge="1">
          <mxGeometry relative="1" as="geometry">
            <mxPoint x="160" y="44.5" as="targetPoint" />
          </mxGeometry>
        </mxCell>
        <mxCell id="iztJvjO-frAtPUYrZVRu-37" value="" style="pointerEvents=1;shadow=0;dashed=0;html=1;strokeColor=none;fillColor=#505050;labelPosition=center;verticalLabelPosition=bottom;verticalAlign=top;outlineConnect=0;align=center;shape=mxgraph.office.users.call_center_agent;" parent="iztJvjO-frAtPUYrZVRu-34" vertex="1">
          <mxGeometry x="50" y="17" width="46" height="55" as="geometry" />
        </mxCell>
        <mxCell id="iztJvjO-frAtPUYrZVRu-38" style="edgeStyle=orthogonalEdgeStyle;rounded=0;orthogonalLoop=1;jettySize=auto;html=1;" parent="F7nrCwxnaVBbBVm_Oen9-51" source="iztJvjO-frAtPUYrZVRu-39" edge="1">
          <mxGeometry relative="1" as="geometry">
            <mxPoint x="1080" y="832" as="targetPoint" />
          </mxGeometry>
        </mxCell>
        <mxCell id="iztJvjO-frAtPUYrZVRu-39" value="" style="shape=mxgraph.cisco.computers_and_peripherals.web_browser;html=1;pointerEvents=1;dashed=0;fillColor=#036897;strokeColor=#ffffff;strokeWidth=2;verticalLabelPosition=bottom;verticalAlign=top;align=center;outlineConnect=0;" parent="F7nrCwxnaVBbBVm_Oen9-51" vertex="1">
          <mxGeometry x="520" y="800" width="62" height="64" as="geometry" />
        </mxCell>
        <mxCell id="iztJvjO-frAtPUYrZVRu-40" style="edgeStyle=orthogonalEdgeStyle;rounded=0;orthogonalLoop=1;jettySize=auto;html=1;exitX=0.5;exitY=1;exitDx=0;exitDy=0;exitPerimeter=0;" parent="F7nrCwxnaVBbBVm_Oen9-51" source="iztJvjO-frAtPUYrZVRu-41" edge="1">
          <mxGeometry relative="1" as="geometry">
            <mxPoint x="552" y="790" as="targetPoint" />
          </mxGeometry>
        </mxCell>
        <mxCell id="iztJvjO-frAtPUYrZVRu-41" value="" style="sketch=0;points=[[0.015,0.015,0],[0.985,0.015,0],[0.985,0.985,0],[0.015,0.985,0],[0.25,0,0],[0.5,0,0],[0.75,0,0],[1,0.25,0],[1,0.5,0],[1,0.75,0],[0.75,1,0],[0.5,1,0],[0.25,1,0],[0,0.75,0],[0,0.5,0],[0,0.25,0]];verticalLabelPosition=bottom;html=1;verticalAlign=top;aspect=fixed;align=center;pointerEvents=1;shape=mxgraph.cisco19.rect;prIcon=meeting_scheduling_and_management_server;fillColor=#FAFAFA;strokeColor=#005073;" parent="F7nrCwxnaVBbBVm_Oen9-51" vertex="1">
          <mxGeometry x="520" y="700" width="64" height="50" as="geometry" />
        </mxCell>
        <mxCell id="iztJvjO-frAtPUYrZVRu-42" value="" style="group" parent="F7nrCwxnaVBbBVm_Oen9-51" vertex="1" connectable="0">
          <mxGeometry x="400" y="650" width="50" height="60" as="geometry" />
        </mxCell>
        <mxCell id="iztJvjO-frAtPUYrZVRu-43" value="" style="shape=actor;whiteSpace=wrap;html=1;" parent="iztJvjO-frAtPUYrZVRu-42" vertex="1">
          <mxGeometry width="20" height="30" as="geometry" />
        </mxCell>
        <mxCell id="iztJvjO-frAtPUYrZVRu-44" value="" style="shape=actor;whiteSpace=wrap;html=1;" parent="iztJvjO-frAtPUYrZVRu-42" vertex="1">
          <mxGeometry x="10" y="10" width="20" height="30" as="geometry" />
        </mxCell>
        <mxCell id="iztJvjO-frAtPUYrZVRu-45" value="" style="shape=actor;whiteSpace=wrap;html=1;" parent="iztJvjO-frAtPUYrZVRu-42" vertex="1">
          <mxGeometry x="20" y="20" width="20" height="30" as="geometry" />
        </mxCell>
        <mxCell id="iztJvjO-frAtPUYrZVRu-46" value="" style="shape=actor;whiteSpace=wrap;html=1;" parent="iztJvjO-frAtPUYrZVRu-42" vertex="1">
          <mxGeometry x="30" y="30" width="20" height="30" as="geometry" />
        </mxCell>
        <mxCell id="iztJvjO-frAtPUYrZVRu-47" style="edgeStyle=orthogonalEdgeStyle;rounded=0;orthogonalLoop=1;jettySize=auto;html=1;entryX=0;entryY=0.25;entryDx=0;entryDy=0;entryPerimeter=0;" parent="F7nrCwxnaVBbBVm_Oen9-51" source="iztJvjO-frAtPUYrZVRu-46" target="iztJvjO-frAtPUYrZVRu-41" edge="1">
          <mxGeometry relative="1" as="geometry" />
        </mxCell>
        <mxCell id="iztJvjO-frAtPUYrZVRu-48" value="Other meeting&lt;br&gt;participants" style="text;html=1;align=center;" parent="F7nrCwxnaVBbBVm_Oen9-51" vertex="1">
          <mxGeometry x="363" y="710" width="120" height="30" as="geometry" />
        </mxCell>
        <mxCell id="iztJvjO-frAtPUYrZVRu-49" value="Meeting platform&lt;br&gt;(Zoom, Chime, etc.)" style="text;html=1;align=center;" parent="F7nrCwxnaVBbBVm_Oen9-51" vertex="1">
          <mxGeometry x="491" y="660" width="120" height="30" as="geometry" />
        </mxCell>
        <mxCell id="iztJvjO-frAtPUYrZVRu-50" value="Browser based&lt;br&gt;meeting app &amp;amp; &lt;br&gt;LMA browser extension" style="text;html=1;align=center;" parent="F7nrCwxnaVBbBVm_Oen9-51" vertex="1">
          <mxGeometry x="491" y="864" width="120" height="30" as="geometry" />
        </mxCell>
        <mxCell id="F7nrCwxnaVBbBVm_Oen9-86" value="" style="points=[[0,0,0],[0.25,0,0],[0.5,0,0],[0.75,0,0],[1,0,0],[0,1,0],[0.25,1,0],[0.5,1,0],[0.75,1,0],[1,1,0],[0,0.25,0],[0,0.5,0],[0,0.75,0],[1,0.25,0],[1,0.5,0],[1,0.75,0]];outlineConnect=0;fontColor=#232F3E;gradientColor=#945DF2;gradientDirection=north;fillColor=#5A30B5;strokeColor=#ffffff;dashed=0;verticalLabelPosition=bottom;verticalAlign=top;align=center;html=1;fontSize=12;fontStyle=0;aspect=fixed;shape=mxgraph.aws4.resourceIcon;resIcon=mxgraph.aws4.cloudfront;" parent="F7nrCwxnaVBbBVm_Oen9-51" vertex="1">
          <mxGeometry x="1085" y="791.15" width="80" height="80" as="geometry" />
        </mxCell>
        <mxCell id="iztJvjO-frAtPUYrZVRu-57" value="" style="sketch=0;points=[[0,0,0],[0.25,0,0],[0.5,0,0],[0.75,0,0],[1,0,0],[0,1,0],[0.25,1,0],[0.5,1,0],[0.75,1,0],[1,1,0],[0,0.25,0],[0,0.5,0],[0,0.75,0],[1,0.25,0],[1,0.5,0],[1,0.75,0]];outlineConnect=0;fontColor=#232F3E;fillColor=#DD344C;strokeColor=#ffffff;dashed=0;verticalLabelPosition=bottom;verticalAlign=top;align=center;html=1;fontSize=12;fontStyle=0;aspect=fixed;shape=mxgraph.aws4.resourceIcon;resIcon=mxgraph.aws4.cognito;" parent="F7nrCwxnaVBbBVm_Oen9-51" vertex="1">
          <mxGeometry x="1521" y="660" width="78" height="78" as="geometry" />
        </mxCell>
        <mxCell id="iztJvjO-frAtPUYrZVRu-58" value="Amazon Cognito&lt;br&gt;Authentication" style="text;html=1;align=center;verticalAlign=middle;resizable=0;points=[];autosize=1;" parent="F7nrCwxnaVBbBVm_Oen9-51" vertex="1">
          <mxGeometry x="1505" y="738" width="110" height="40" as="geometry" />
        </mxCell>
        <mxCell id="H0DclU-_FFojEJTY1uw1-1" value="Application&lt;br&gt;Load Balancer" style="text;html=1;align=center;verticalAlign=middle;resizable=0;points=[];autosize=1;" parent="F7nrCwxnaVBbBVm_Oen9-51" vertex="1">
          <mxGeometry x="1197.5" y="873.15" width="100" height="40" as="geometry" />
        </mxCell>
      </root>
    </mxGraphModel>
  </diagram>
</mxfile>
